<?xml version="1.0" encoding="utf-8" ?>
<svg baseProfile="full" height="200mm" version="1.1" viewBox="0,0,200,200" width="200mm" xmlns="http://www.w3.org/2000/svg" xmlns:ev="http://www.w3.org/2001/xml-events" xmlns:xlink="http://www.w3.org/1999/xlink"><defs /><rect fill="#1a1a1a" height="200" width="200" x="0" y="0" /><text alignment-baseline="middle" fill="#e1ed5e" style="dominant-baseline: central; font-size:9.0px; font-family:Arial;" text-anchor="middle" x="100.0" y="100.0">2017</text><line stroke="#e1ed5e" stroke-width="0.3" x1="100.0" x2="100.0" y1="15.0" y2="10.0" /><path d="M 100.0 14.0 a86.0,86.0 0 0,1 42.46469731375804,11.215312516191453" fill="none" id="id61" stroke="none" /><text fill="#e1ed5e" style="font-size:6.75px; font-family:Arial;" text-anchor="middle"><textPath startOffset="22.20632615414155" xlink:href="#id61">January</textPath></text><path d="M 100.0 79.0 l 0.0 -63.0 a84.0,84.0 0 0,0 1.4459219170901134,0.012445506434235476 l -1.084441437817585 62.990665870174325" fill="#4dd2ff" stroke="none" /><path d="M 101.08401301168833 79.027996857942 l 0.4617674209017638 -8.933645350777548 a29.945571440912847,29.945571440912847 0 0,0 0.5145475545269534,0.031038913657486157 l -0.6154770242683292 8.924373167739757" fill="#ff6409" stroke="none" /><path d="M 101.44485096284872 79.0497635885617 l 0.7451598030239084 -10.804764255319428 a31.83042906560359,31.83042906560359 0 0,0 0.5462856624785534,0.04240228131137803 l -0.931035654864803 10.790336711819586" fill="#ff7e0b" stroke="none" /><path d="M 102.52436894288641 79.15227682838746 l 3.0758550757398866 -25.402219955100286 a46.587763933064764,46.587763933064764 0 0,0 0.7952870096074808,0.10325107873705656 l -3.5126568138552132 25.34551055319909" fill="#c5ff1e" stroke="none" /><path d="M 105.36241919743992 79.69619591428918 l 3.664337260287087 -13.874332292477002 a35.35006843604582,35.35006843604582 0 0,0 0.5869830228445453,0.1604446335555609 l -3.9026181723553433 13.809201118095148" fill="#ffad10" stroke="none" /><path d="M 106.0581310904928 79.89281104454417 l 2.4285226027951716 -8.060367484227854 a29.41826858760664,29.41826858760664 0 0,0 0.48360079171269577,0.15025712003316524 l -2.5669087672185857 8.017370229312169" fill="#ff5c08" stroke="none" /><path d="M 107.4271985657038 80.35727306442388 l 3.0172675809434986 -7.979773619856527 a29.531159984384935,29.531159984384935 0 0,0 0.47392847961075685,0.18387688716827885 l -3.1541792255539223 7.926654028797701" fill="#ff5e08" stroke="none" /><path d="M 108.43124777332544 80.76684994638697 l 2.7275045904129733 -6.221914771061282 a27.79348987701273,27.79348987701273 0 0,0 0.4365138072214918,0.19585102122821324 l -2.8342005161012453 6.174043419316538" fill="#ff4506" stroke="none" /><path d="M 109.08828744355905 81.06846463323043 l 4.765687045354546 -9.92725784768461 a32.011912703462365,32.011912703462365 0 0,0 0.494704070010824,0.24274913867812392 l -4.935862382375801 9.843753548871653" fill="#ff800b" stroke="none" /><path d="M 110.05341064243156 81.56283822128135 l 6.91227837815478 -12.676573080551583 a35.43866674744144,35.43866674744144 0 0,0 0.5330581495676497,0.2966462831045841 l -7.129460616794464 12.555711399886818" fill="#ffae10" stroke="none" /><line stroke="#e1ed5e" stroke-width="0.3" x1="143.23703022742887" x2="145.7803849466894" y1="26.81831364943548" y2="22.513508569990506" /><path d="M 143.74570117128098 25.957352633546492 a86.0,86.0 0 0,1 28.547481713284135,27.462654790039103" fill="none" id="id62" stroke="none" /><text fill="#e1ed5e" style="font-size:6.75px; font-family:Arial;" text-anchor="middle"><textPath startOffset="19.985693538727396" xlink:href="#id62">February</textPath></text><path d="M 112.19680574252982 82.90503203632743 l 1.323498523943302 -1.8550073965583918 a23.27874982921918,23.27874982921918 0 0,0 0.32418949604683767,0.23553745601065196 l -1.3552333363439282 1.8319507057310649" fill="#ff0400" stroke="none" /><path d="M 113.06298171725822 83.55741782278167 l 5.365448251947521 -6.753574774104203 a29.625474315870598,29.625474315870598 0 0,0 0.39655334029077055,0.3206518894121675 l -5.480904990802783 6.660216787427906" fill="#ff5f08" stroke="none" /><path d="M 113.89432698308785 84.25364557470407 l 22.402777512566693 -25.38892853560352 a54.859742061385326,54.859742061385326 0 0,0 0.7026984684681317,0.630889623165963 l -22.836486968630815 24.999539903668257" fill="#69ff28" stroke="none" /><path d="M 114.68862486808459 84.99185889309783 l 9.774398612743822 -9.987017500454241 a34.974240115125674,34.974240115125674 0 0,0 0.4266261063736713,0.42479403829157264 l -9.944860519284815 9.817287611512551" fill="#ffa80f" stroke="none" /><path d="M 115.68641384162765 86.03803664274999 l 15.116899262033515 -13.455057076949558 a41.23756912878718,41.23756912878718 0 0,0 0.46737509423439494,0.5342905266642167 l -15.346266219845758 13.192850994082393" fill="#fff817" stroke="none" /><path d="M 116.82858285166822 87.43820079747576 l 24.516495365877095 -18.300488796371535 a51.59356852691744,51.59356852691744 0 0,0 0.5251178356210725,0.7162601376478497 l -24.827875814011794 17.87576621505219" fill="#8cff24" stroke="none" /><line stroke="#e1ed5e" stroke-width="0.3" x1="172.23445277983987" x2="176.4835382374775" y1="55.19839476539836" y2="52.563006222186495" /><path d="M 173.08426987136738 54.67131705675599 a86.0,86.0 0 0,1 12.851231095245387,41.99856678651699" fill="none" id="id63" stroke="none" /><text fill="#e1ed5e" style="font-size:6.75px; font-family:Arial;" text-anchor="middle"><textPath startOffset="22.20632615414155" xlink:href="#id63">March</textPath></text><path d="M 117.84615892207809 88.93136811851018 l 7.545023038043909 -4.6796110530065445 a29.878408204854875,29.878408204854875 0 0,0 0.26731813685940453,0.4394007304253876 l -7.624456973189537 4.549042549374076" fill="#ff6309" stroke="none" /><path d="M 118.56541770881063 90.18545643968196 l 21.309967030722177 -11.26544002253763 a45.10445671969934,45.10445671969934 0 0,0 0.35694929663103964,0.6895124264119608 l -21.500725760513333 10.896954873865326" fill="#d7ff1c" stroke="none" /><path d="M 119.85752413597 93.16781622104841 l 8.107571921404416 -2.789492838523838 a29.574030135060237,29.574030135060237 0 0,0 0.16147801568386816,0.4827987135849848 l -8.154387230860054 2.6495210220165393" fill="#ff5f08" stroke="none" /><path d="M 119.97218684219823 93.5106431181261 l 5.309865151828372 -1.72527977216977 a26.583122622946725,26.583122622946725 0 0,0 0.13765565759822837,0.4364060523869988 l -5.338776293194806 1.633623553356352" fill="#ff3405" stroke="none" /><path d="M 120.37134235888165 94.90015583598534 l 58.26170165250474 -14.585469819496005 a81.05965209107444,81.05965209107444 0 0,0 0.3271999866472663,1.3564551838740029 l -58.50413443941283 13.580429403962597" fill="#49eeff" stroke="none" /><path d="M 120.6074358757038 95.95851677861258 l 17.487983302562412 -3.429703312896792 a38.821122995063945,38.821122995063945 0 0,0 0.12295994728680922,0.6568569551270683 l -17.54442897375908 3.1281682803071607" fill="#ffda14" stroke="none" /><path d="M 120.83666639777658 97.38593545837742 l 30.565326350923435 -3.8345738368972984 a51.804920572029914,51.804920572029914 0 0,0 0.10338694923099469,0.8857562436652854 l -30.626803653158017 3.30787385490716" fill="#8aff24" stroke="none" /><path d="M 120.91429891909075 98.10471618934814 l 24.15785964427142 -2.189219942820735 a45.25685195053887,45.25685195053887 0 0,0 0.06363009116877934,0.7764482813698858 l -24.19196421925969 1.7730577442430802" fill="#d5ff1c" stroke="none" /><line stroke="#e1ed5e" stroke-width="0.3" x1="184.98032266829074" x2="189.97916517819016" y1="98.17113171792111" y2="98.06355123074" /><path d="M 185.9800911702706 98.14961562048488 a86.0,86.0 0 0,1 -9.607161424134198,41.387399972396054" fill="none" id="id64" stroke="none" /><text fill="#e1ed5e" style="font-size:6.75px; font-family:Arial;" text-anchor="middle"><textPath startOffset="21.466115282336823" xlink:href="#id64">April</textPath></text><path d="M 120.9904718944345 100.63252640178507 l 3.0851194780319475 0.09296692005452194 a24.086519891715675,24.086519891715675 0 0,0 -0.01605523359624227,0.41431423929225897 l -3.083062111584502 -0.14605840636078707" fill="#ff1001" stroke="none" /><path d="M 120.23288151984713 105.62410040840565 l 15.274468845633674 4.2458186881903375 a36.853591859550946,36.853591859550946 0 0,0 -0.17515522975131867,0.6097383329717223 l -15.199120978996255 -4.508114496666642" fill="#ffc111" stroke="none" /><path d="M 119.79798401119884 107.00284435728193 l 20.66146477596253 7.3082704753011365 a42.915906187709844,42.915906187709844 0 0,0 -0.2523368205313255,0.6943225557501251 l -20.532603694425976 -7.6628408280573925" fill="#f1ff19" stroke="none" /><line stroke="#e1ed5e" stroke-width="0.3" x1="174.80103733775053" x2="179.2010983576182" y1="140.37084112569926" y2="142.7455964860345" /><path d="M 175.68104954172406 140.8457921977663 a86.0,86.0 0 0,1 -30.038265399797805,32.042727171017184" fill="none" id="id65" stroke="none" /><text fill="#e1ed5e" style="font-size:6.75px; font-family:Arial;" text-anchor="middle"><textPath startOffset="22.206326154141568" xlink:href="#id65">May</textPath></text><path d="M 118.30583269289576 110.29060199501025 l 8.694793051755278 4.887767534296211 a30.974452249731407,30.974452249731407 0 0,0 -0.2652711146375062,0.4625225481392873 l -8.609369940965392 -5.0367099282938135" fill="#ff720a" stroke="none" /><line stroke="#e1ed5e" stroke-width="0.3" x1="143.8653032363475" x2="146.44561519142675" y1="172.8068346515853" y2="177.08958963109032" /><path d="M 144.38136562736335 173.6633856474863 a86.0,86.0 0 0,1 -40.68145358897372,12.25698825130547" fill="none" id="id66" stroke="none" /><text fill="#e1ed5e" style="font-size:6.75px; font-family:Arial;" text-anchor="middle"><textPath startOffset="21.466115282336833" xlink:href="#id66">June</textPath></text><path d="M 109.57404056367764 118.69057910512821 l 4.401486402760765 8.592644792320128 a30.65435793207783,30.65435793207783 0 0,0 -0.47170647515452024,0.23652341910826818 l -4.252926019923485 -8.667136052337698" fill="#ff6e0a" stroke="none" /><path d="M 103.41894727170886 120.7198165907248 l 2.0501049054810685 12.424233033603253 a33.5922395385712,33.5922395385712 0 0,0 -0.5713306297261718,0.08923009435538001 l -1.8359384121463795 -12.457681435305739" fill="#ff960d" stroke="none" /><path d="M 103.06178313531738 120.77559828337769 l 0.7415661267230426 5.031865180667436 a26.08621544143741,26.08621544143741 0 0,0 -0.4447965673199691,0.06164475123499579 l -0.6548409682162429 -5.043884497395035" fill="#ff2d04" stroke="none" /><line stroke="#e1ed5e" stroke-width="0.3" x1="102.19456741930631" x2="102.32365962044197" y1="184.97166512339345" y2="189.96999836594603" /><path d="M 102.22038585953345 185.97133177190398 a86.0,86.0 0 0,1 -42.740103519485714,-10.115201625700543" fill="none" id="id67" stroke="none" /><text fill="#e1ed5e" style="font-size:6.75px; font-family:Arial;" text-anchor="middle"><textPath startOffset="22.20632615414155" xlink:href="#id67">July</textPath></text><path d="M 97.2962882734958 120.8252237178851 l -3.4542170359429707 26.60595870427783 a47.82924996911274,47.82924996911274 0 0,0 -0.8155374723294008,-0.11302606247047776 l 3.9116830994592027 -26.542558076314744" fill="#b7ff1f" stroke="none" /><line stroke="#e1ed5e" stroke-width="0.3" x1="58.666819895761336" x2="56.23545636021788" y1="174.27360380694188" y2="178.64263932499728" /><path d="M 58.180547188652646 175.14741091055294 a86.0,86.0 0 0,1 -31.652253787137756,-30.449443065178592" fill="none" id="id68" stroke="none" /><text fill="#e1ed5e" style="font-size:6.75px; font-family:Arial;" text-anchor="middle"><textPath startOffset="22.20632615414155" xlink:href="#id68">August</textPath></text><path d="M 86.51685102203217 116.09983520530335 l -16.85831339388158 20.130020659443836 a47.25681744301778,47.25681744301778 0 0,0 -0.6191419974128446,-0.5276462421940122 l 17.202320867871485 -19.836850027026873" fill="#bdff1f" stroke="none" /><path d="M 84.67929136418377 114.36230785411682 l -29.580646759924605 27.73020265503445 a61.54600845983138,61.54600845983138 0 0,0 -0.7179007545600451,-0.7791394819539061 l 30.053593922480378 -27.216911918279198" fill="#31ff3c" stroke="none" /><line stroke="#e1ed5e" stroke-width="0.3" x1="26.63291911575756" x2="22.317208475507996" y1="142.92168965132927" y2="145.44649492493687" /><path d="M 25.769776987707644 143.4266507060508 a86.0,86.0 0 0,1 -11.730757126820373,-40.83630448921669" fill="none" id="id69" stroke="none" /><text fill="#e1ed5e" style="font-size:6.75px; font-family:Arial;" text-anchor="middle"><textPath startOffset="21.46611528233685" xlink:href="#id69">September</textPath></text><line stroke="#e1ed5e" stroke-width="0.3" x1="15.007084014347285" x2="10.007500721073583" y1="101.09737516637583" y2="101.16192664675087" /><path d="M 14.007167355692545 101.11028546245083 a86.0,86.0 0 0,1 10.666146001902534,-42.60595125391555" fill="none" id="id70" stroke="none" /><text fill="#e1ed5e" style="font-size:6.75px; font-family:Arial;" text-anchor="middle"><textPath startOffset="22.20632615414155" xlink:href="#id70">October</textPath></text><path d="M 79.03285615573316 98.82574320788736 l -30.003511021036207 -1.680335045410201 a51.0505274405338,51.0505274405338 0 0,0 0.056688958515535036,-0.8769530971083553 l 29.97014147151626 2.196547206771568" fill="#92ff23" stroke="none" /><path d="M 80.14247586403 93.16781622104843 l -32.55144345987853 -11.199656234343415 a55.424246848538836,55.424246848538836 0 0,0 0.3181534383822847,-0.899462613309498 l 32.353836940686435 11.758316474079525" fill="#63ff29" stroke="none" /><line stroke="#e1ed5e" stroke-width="0.3" x1="26.266209847984243" x2="21.928928074336255" y1="57.711370442889674" y2="55.22380399835377" /><path d="M 25.398753493254645 57.213857153982495 a86.0,86.0 0 0,1 29.58750427330803,-30.492523968695096" fill="none" id="id71" stroke="none" /><text fill="#e1ed5e" style="font-size:6.75px; font-family:Arial;" text-anchor="middle"><textPath startOffset="21.46611528233685" xlink:href="#id71">November</textPath></text><path d="M 82.54541684631803 88.32363383020206 l -7.257134167797681 -4.8547109455709165 a29.731220687536343,29.731220687536343 0 0,0 0.28821662560884814,-0.4229223340173507 l 7.172493076520093 4.978911302858682" fill="#ff6108" stroke="none" /><path d="M 83.84228863543731 86.58626213691792 l -11.034558435580786 -9.160621263130713 a35.34149440591076,35.34149440591076 0 0,0 0.39260931182872155,-0.4647255898535677 l 10.87523851026494 9.349205802613396" fill="#ffad10" stroke="none" /><path d="M 85.05521093208273 85.24692304244772 l -10.792137536950637 -10.65369573940131 a36.16481010511495,36.16481010511495 0 0,0 0.4411490306037065,-0.439254596469594 l 10.607152706179617 10.837886186521013" fill="#ffb811" stroke="none" /><path d="M 85.83668400450813 84.49514656593479 l -20.60971238101443 -22.561847090581026 a51.55809530332182,51.55809530332182 0 0,0 0.6604076731939678,-0.5929205296057244 l 20.21829372022449 22.91326662895603" fill="#8dff24" stroke="none" /><line stroke="#e1ed5e" stroke-width="0.3" x1="56.762969772571076" x2="54.21961505331055" y1="26.818313649435495" y2="22.513508569990535" /><path d="M 56.25429882871897 25.957352633546506 a86.0,86.0 0 0,1 42.265352541879196,-11.944610805530505" fill="none" id="id72" stroke="none" /><text fill="#e1ed5e" style="font-size:6.75px; font-family:Arial;" text-anchor="middle"><textPath startOffset="22.20632615414155" xlink:href="#id72">December</textPath></text><path d="M 89.3179101791058 81.91981866633112 l -9.002439629529889 -15.237256349308812 a38.6979631691865,38.6979631691865 0 0,0 0.5764213964884872,-0.3339004782728413 l 8.738821500576082 15.3899609849717" fill="#ffd914" stroke="none" /><path d="M 89.63071344664047 81.73862282372117 l -0.9961592876182007 -1.754338679449016 a23.017433401259858,23.017433401259858 0 0,0 0.3462215591831658,-0.1926719228393044 l 0.9658136393629893 1.771225999848505" fill="#ff0000" stroke="none" /><path d="M 89.94658935756843 81.56283822128135 l -2.4292800656058624 -4.455107939822363 a26.07438551872227,26.07438551872227 0 0,0 0.3959022372083438,-0.21147726415395807 l 2.3522327818692133 4.4962639304780705" fill="#ff2d04" stroke="none" /><path d="M 92.23578459929587 80.48803036053334 l -13.02125655972624 -32.72325013523489 a56.21880494575822,56.21880494575822 0 0,0 0.9022230338247609,-0.3500485202481827 l 12.456050360901802 32.94254135937362" fill="#5bff2a" stroke="none" /><path d="M 99.27714615592234 79.0124445844662 l -1.978564665102012 -57.44624019400548 a78.4803029790324,78.4803029790324 0 0,0 1.3505091027837286,-0.034879665734947676 l 0.9894289271234045 57.47178665188279" fill="#46fff7" stroke="none" /></svg>