<?xml version="1.0" encoding="utf-8" ?>
<svg baseProfile="full" height="200mm" version="1.1" viewBox="0,0,200,200" width="200mm" xmlns="http://www.w3.org/2000/svg" xmlns:ev="http://www.w3.org/2001/xml-events" xmlns:xlink="http://www.w3.org/1999/xlink"><defs /><rect fill="#1a1a1a" height="200" width="200" x="0" y="0" /><text alignment-baseline="middle" fill="#e1ed5e" style="dominant-baseline: central; font-size:9.0px; font-family:Arial;" text-anchor="middle" x="100.0" y="100.0">2021</text><line stroke="#e1ed5e" stroke-width="0.3" x1="100.0" x2="100.0" y1="15.0" y2="10.0" /><path d="M 100.0 14.0 a86.0,86.0 0 0,1 42.46469731375804,11.215312516191453" fill="none" id="id109" stroke="none" /><text fill="#e1ed5e" style="font-size:6.75px; font-family:Arial;" text-anchor="middle"><textPath startOffset="22.20632615414155" xlink:href="#id109">January</textPath></text><path d="M 100.0 79.0 l 0.0 -5.717873416220893 a26.717873416220893,26.717873416220893 0 0,0 0.4599042708399178,0.0039585412560793586 l -0.09842379156738941 5.7170262515733725" fill="#ff0300" stroke="none" /><path d="M 100.36148047927253 79.00311137660856 l 0.8744239285401916 -50.79162745976288 a71.79915390258131,71.79915390258131 0 0,0 1.235538182663683,0.031910306065500056 l -1.7485887463987426 50.76905036155502" fill="#3dffaa" stroke="none" /><path d="M 102.52436894288641 79.15227682838746 l 0.6657618858010078 -5.498253150555696 a26.538413725624057,26.538413725624057 0 0,0 0.45303002140006876,0.05881629882640161 l -0.7603066357089227 5.485978528565157" fill="#ff0000" stroke="none" /><path d="M 108.76106565485865 80.91482961587045 l 9.101922958826794 -19.827696462483893 a42.81702428281214,42.81702428281214 0 0,0 0.667174441554778,0.3132473461425362 l -9.441875611681171 19.668084133701356" fill="#ffed16" stroke="none" /><path d="M 110.05341064243156 81.56283822128135 l 14.817277613497295 -27.173717875127142 a51.95097185925593,51.95097185925593 0 0,0 0.7814314552207399,0.43486575879245637 l -15.28283315779007 26.914636718774506" fill="#9eff22" stroke="none" /><path d="M 110.36928655335952 81.73862282372117 l 28.981487626974115 -51.03937228105289 a79.69364657197885,79.69364657197885 0 0,0 1.1870682404508701,0.6876265448223475 l -29.855752599890312 50.53294157884049" fill="#47fdff" stroke="none" /><line stroke="#e1ed5e" stroke-width="0.3" x1="143.23703022742887" x2="145.7803849466894" y1="26.81831364943548" y2="22.513508569990506" /><path d="M 143.74570117128098 25.957352633546492 a86.0,86.0 0 0,1 28.547481713284135,27.462654790039103" fill="none" id="id110" stroke="none" /><text fill="#e1ed5e" style="font-size:6.75px; font-family:Arial;" text-anchor="middle"><textPath startOffset="19.985693538727396" xlink:href="#id110">February</textPath></text><path d="M 114.94478906791727 85.2469230424477 l 31.65971182490517 -31.253580287021567 a65.48734239751059,65.48734239751059 0 0,0 0.7850240169792349,0.8090362550563459 l -32.193000105587515 30.703979836415105" fill="#34ff5e" stroke="none" /><path d="M 115.68641384162765 86.03803664274999 l 11.715309419634352 -10.427413332785596 a36.683731176302665,36.683731176302665 0 0,0 0.41576316639442795,0.4752891711192807 l -11.893064449606626 10.224208605463367" fill="#ff980e" stroke="none" /><line stroke="#e1ed5e" stroke-width="0.3" x1="172.23445277983987" x2="176.4835382374775" y1="55.19839476539836" y2="52.563006222186495" /><path d="M 173.08426987136738 54.67131705675599 a86.0,86.0 0 0,1 12.851231095245387,41.99856678651699" fill="none" id="id111" stroke="none" /><text fill="#e1ed5e" style="font-size:6.75px; font-family:Arial;" text-anchor="middle"><textPath startOffset="22.20632615414155" xlink:href="#id111">March</textPath></text><path d="M 118.03404312379186 89.2402003453031 l 17.609013897801866 -10.506210967587135 a41.50506862579171,41.50506862579171 0 0,0 0.3607785113373059,0.6166874239481634 l -17.7872520836095 10.201544131285075" fill="#ffdb14" stroke="none" /><path d="M 118.89224826269711 90.83032412892265 l 22.223968683605488 -10.786783370829076 a45.703430521671926,45.703430521671926 0 0,0 0.3374258293194201,0.7107048508617897 l -22.406352706766665 10.402636104326746" fill="#ecff1a" stroke="none" /><path d="M 120.28053869075195 94.5502522615342 l 8.712982681822924 -2.3413361148640948 a30.022079694644304,30.022079694644304 0 0,0 0.12981499815027647,0.5002301427434914 l -8.751994011843502 2.191009546571753" fill="#ff3605" stroke="none" /><path d="M 120.45610955862082 95.25157060432595 l 49.460333410667815 -11.481112789996661 a71.77539297721927,71.77539297721927 0 0,0 0.2690060144019852,1.205901215785389 l -49.65063381207184 10.62803340466131" fill="#3dffaa" stroke="none" /><path d="M 120.53481517161879 95.60439243477599 l 18.74796822563888 -4.013121631554541 a40.17267476955722,40.17267476955722 0 0,0 0.13892228222586117,0.6774343853776243 l -18.814269803779734 3.689811590013505" fill="#ffc912" stroke="none" /><path d="M 120.87857604477298 97.74499172005257 l 16.476789021096508 -1.7795895462335163 a37.57261341487184,37.57261341487184 0 0,0 0.06391436889569883,0.6436089724148667 l -16.504980515674436 1.4957050431142147" fill="#ffa50f" stroke="none" /><line stroke="#e1ed5e" stroke-width="0.3" x1="184.98032266829074" x2="189.97916517819016" y1="98.17113171792111" y2="98.06355123074" /><path d="M 185.9800911702706 98.14961562048488 a86.0,86.0 0 0,1 -9.607161424134198,41.387399972396054" fill="none" id="id112" stroke="none" /><text fill="#e1ed5e" style="font-size:6.75px; font-family:Arial;" text-anchor="middle"><textPath startOffset="21.466115282336823" xlink:href="#id112">April</textPath></text><path d="M 120.9904718944345 100.63252640178507 l 19.807584221154787 0.5968812915913393 a40.816575384117,40.816575384117 0 0,0 -0.027206904747415224,0.7020893203671948 l -19.79437518355617 -0.9377478589725403" fill="#ffd213" stroke="none" /><path d="M 120.9764740272857 100.99374915477107 l 41.6347713973836 1.9724248618436744 a62.68146649469055,62.68146649469055 0 0,0 -0.06033434140851254,1.0773101961670157 l -41.59465070508756 -2.6888067743461135" fill="#30ff3a" stroke="none" /><path d="M 120.95626037817324 101.35467743843564 l 8.612866655541765 0.5567623196106775 a29.630843313760334,29.630843313760334 0 0,0 -0.03728327857273087,0.5087007144221742 l -8.602006818304696 -0.704936170529622" fill="#ff3004" stroke="none" /><path d="M 120.5718875245553 104.21870165774334 l 22.30852037627785 4.574835040336866 a43.772773151838535,43.772773151838535 0 0,0 -0.15771947420146437,0.7368128759526602 l -22.22646686335194 -4.958161735705694" fill="#fff917" stroke="none" /><path d="M 120.32669344350535 105.2749913415812 l 25.306930488298892 6.567415383067489 a47.145203681618995,47.145203681618995 0 0,0 -0.21060867850625736,0.7837532410732722 l -25.190133733450857 -7.00205955731631" fill="#d9ff1c" stroke="none" /><path d="M 118.64920377521936 109.65438752849418 l 22.323070486248753 11.55628818783721 a46.13697023537992,46.13697023537992 0 0,0 -0.37117739997000965,0.7021277588878744 l -22.12084057805385 -11.938830961811219" fill="#e6ff1a" stroke="none" /><line stroke="#e1ed5e" stroke-width="0.3" x1="174.80103733775053" x2="179.2010983576182" y1="140.37084112569926" y2="142.7455964860345" /><path d="M 175.68104954172406 140.8457921977663 a86.0,86.0 0 0,1 -30.038265399797805,32.042727171017184" fill="none" id="id113" stroke="none" /><text fill="#e1ed5e" style="font-size:6.75px; font-family:Arial;" text-anchor="middle"><textPath startOffset="22.206326154141568" xlink:href="#id113">May</textPath></text><path d="M 118.48025628344425 109.97397251340804 l 55.44076885033275 29.921917540224147 a84.0,84.0 0 0,0 -0.6976943621939617,1.2665179264087798 l -54.91749807868728 -30.871805985030733" fill="#4dd2ff" stroke="none" /><path d="M 116.71984013943494 112.70617746262583 l 10.890669155521566 8.276321652766653 a34.67860280712482,34.67860280712482 0 0,0 -0.3652700252065888,0.4721607464744245 l -10.746592313096908 -8.46256039335433" fill="#ff7b0b" stroke="none" /><path d="M 116.0416608686014 113.55231037782055 l 11.185313757602835 9.449572893854356 a35.64259784779621,35.64259784779621 0 0,0 -0.39997357910426745,0.46525963406937987 l -11.020997668927787 -9.640709627085263" fill="#ff890c" stroke="none" /><path d="M 111.1453310114006 117.79835938074945 l 7.114792279248756 11.361854553796466 a34.40567074332662,34.40567074332662 0 0,0 -0.5046505823440487,0.3099976052925164 l -6.918162496972399 -11.48264062591736" fill="#ff770b" stroke="none" /><line stroke="#e1ed5e" stroke-width="0.3" x1="143.8653032363475" x2="146.44561519142675" y1="172.8068346515853" y2="177.08958963109032" /><path d="M 144.38136562736335 173.6633856474863 a86.0,86.0 0 0,1 -40.68145358897372,12.25698825130547" fill="none" id="id114" stroke="none" /><text fill="#e1ed5e" style="font-size:6.75px; font-family:Arial;" text-anchor="middle"><textPath startOffset="21.466115282336833" xlink:href="#id114">June</textPath></text><path d="M 104.83641907484287 120.43548508189849 l 4.075104603477717 17.21867729881336 a38.69433031934116,38.69433031934116 0 0,0 -0.649474846204982,0.14781836048769476 l -3.778109607879873 -17.28627239287874" fill="#ffb510" stroke="none" /><line stroke="#e1ed5e" stroke-width="0.3" x1="102.19456741930631" x2="102.32365962044197" y1="184.97166512339345" y2="189.96999836594603" /><path d="M 102.22038585953345 185.97133177190398 a86.0,86.0 0 0,1 -42.740103519485714,-10.115201625700543" fill="none" id="id115" stroke="none" /><text fill="#e1ed5e" style="font-size:6.75px; font-family:Arial;" text-anchor="middle"><textPath startOffset="22.20632615414155" xlink:href="#id115">July</textPath></text><line stroke="#e1ed5e" stroke-width="0.3" x1="58.666819895761336" x2="56.23545636021788" y1="174.27360380694188" y2="178.64263932499728" /><path d="M 58.180547188652646 175.14741091055294 a86.0,86.0 0 0,1 -31.652253787137756,-30.449443065178592" fill="none" id="id116" stroke="none" /><text fill="#e1ed5e" style="font-size:6.75px; font-family:Arial;" text-anchor="middle"><textPath startOffset="22.20632615414155" xlink:href="#id116">August</textPath></text><line stroke="#e1ed5e" stroke-width="0.3" x1="26.63291911575756" x2="22.317208475507996" y1="142.92168965132927" y2="145.44649492493687" /><path d="M 25.769776987707644 143.4266507060508 a86.0,86.0 0 0,1 -11.730757126820373,-40.83630448921669" fill="none" id="id117" stroke="none" /><text fill="#e1ed5e" style="font-size:6.75px; font-family:Arial;" text-anchor="middle"><textPath startOffset="21.46611528233685" xlink:href="#id117">September</textPath></text><line stroke="#e1ed5e" stroke-width="0.3" x1="15.007084014347285" x2="10.007500721073583" y1="101.09737516637583" y2="101.16192664675087" /><path d="M 14.007167355692545 101.11028546245083 a86.0,86.0 0 0,1 10.666146001902534,-42.60595125391555" fill="none" id="id118" stroke="none" /><text fill="#e1ed5e" style="font-size:6.75px; font-family:Arial;" text-anchor="middle"><textPath startOffset="22.20632615414155" xlink:href="#id118">October</textPath></text><line stroke="#e1ed5e" stroke-width="0.3" x1="26.266209847984243" x2="21.928928074336255" y1="57.711370442889674" y2="55.22380399835377" /><path d="M 25.398753493254645 57.213857153982495 a86.0,86.0 0 0,1 29.58750427330803,-30.492523968695096" fill="none" id="id119" stroke="none" /><text fill="#e1ed5e" style="font-size:6.75px; font-family:Arial;" text-anchor="middle"><textPath startOffset="21.46611528233685" xlink:href="#id119">November</textPath></text><line stroke="#e1ed5e" stroke-width="0.3" x1="56.762969772571076" x2="54.21961505331055" y1="26.818313649435495" y2="22.513508569990535" /><path d="M 56.25429882871897 25.957352633546506 a86.0,86.0 0 0,1 42.265352541879196,-11.944610805530505" fill="none" id="id120" stroke="none" /><text fill="#e1ed5e" style="font-size:6.75px; font-family:Arial;" text-anchor="middle"><textPath startOffset="22.20632615414155" xlink:href="#id120">December</textPath></text></svg>