<?xml version="1.0" encoding="utf-8" ?>
<svg baseProfile="full" height="200mm" version="1.1" viewBox="0,0,200,200" width="200mm" xmlns="http://www.w3.org/2000/svg" xmlns:ev="http://www.w3.org/2001/xml-events" xmlns:xlink="http://www.w3.org/1999/xlink"><defs /><rect fill="#1a1a1a" height="200" width="200" x="0" y="0" /><text alignment-baseline="middle" fill="#e1ed5e" style="dominant-baseline: central; font-size:9.0px; font-family:Arial;" text-anchor="middle" x="100.0" y="100.0">2021</text><line stroke="#e1ed5e" stroke-width="0.3" x1="100.0" x2="100.0" y1="15.0" y2="10.0" /><path d="M 100.0 14.0 a86.0,86.0 0 0,1 42.46469731375804,11.215312516191453" fill="none" id="id109" stroke="none" /><text fill="#e1ed5e" style="font-size:6.75px; font-family:Arial;" text-anchor="middle"><textPath startOffset="22.20632615414155" xlink:href="#id109">January</textPath></text><path d="M 100.0 79.0 l 0.0 -1.297218254483404 a22.297218254483404,22.297218254483404 0 0,0 0.3838099590988014,0.003303573491091975 l -0.02232947982627303 1.297026057600871" fill="#ff0100" stroke="none" /><path d="M 100.36148047927253 79.00311137660856 l 0.19838121617759277 -11.52313482995433 a32.524842359713155,32.524842359713155 0 0,0 0.5596957963469542,0.014455291156199465 l -0.3967036477194148 11.51801274665577" fill="#ff900d" stroke="none" /><path d="M 102.52436894288641 79.15227682838746 l 0.1510419011638711 -1.2473928391695248 a22.25650409912527,22.25650409912527 0 0,0 0.37993471021148373,0.04932642958464548 l -0.17249133988320092 1.2446080864207427" fill="#ff0000" stroke="none" /><path d="M 108.76106565485865 80.91482961587045 l 2.064960126538691 -4.498324450926682 a25.949644753919166,25.949644753919166 0 0,0 0.4043471034532111,0.1898463867740061 l -2.1420854412915005 4.4621130815126735" fill="#ff3505" stroke="none" /><path d="M 110.05341064243156 81.56283822128135 l 3.3616069476894515 -6.1649218693433046 a28.02187032961029,28.02187032961029 0 0,0 0.4214968483938554,0.2345625397862255 l -3.4672278851553417 6.106143931996899" fill="#ff5207" stroke="none" /><path d="M 110.36928655335952 81.73862282372117 l 6.575051956404373 -11.57934088441497 a34.315871865818664,34.315871865818664 0 0,0 0.5111484213299614,0.29609015798200505 l -6.773397110199663 11.464446569042915" fill="#ffa70f" stroke="none" /><line stroke="#e1ed5e" stroke-width="0.3" x1="143.23703022742887" x2="145.7803849466894" y1="26.81831364943548" y2="22.513508569990506" /><path d="M 143.74570117128098 25.957352633546492 a86.0,86.0 0 0,1 28.547481713284135,27.462654790039103" fill="none" id="id110" stroke="none" /><text fill="#e1ed5e" style="font-size:6.75px; font-family:Arial;" text-anchor="middle"><textPath startOffset="19.985693538727396" xlink:href="#id110">February</textPath></text><path d="M 114.94478906791727 85.2469230424477 l 7.18266270016434 -7.090523331851386 a31.092876923051275,31.092876923051275 0 0,0 0.3727232507529963,0.3841240731996711 l -7.303650214620446 6.965835063101601" fill="#ff7d0b" stroke="none" /><path d="M 115.68641384162765 86.03803664274999 l 2.657861083975413 -2.3656751273925978 a24.558179920981363,24.558179920981363 0 0,0 0.2783355541386991,0.3181856535461024 l -2.69818850169196 2.3195739176435475" fill="#ff2103" stroke="none" /><line stroke="#e1ed5e" stroke-width="0.3" x1="172.23445277983987" x2="176.4835382374775" y1="55.19839476539836" y2="52.563006222186495" /><path d="M 173.08426987136738 54.67131705675599 a86.0,86.0 0 0,1 12.851231095245387,41.99856678651699" fill="none" id="id111" stroke="none" /><text fill="#e1ed5e" style="font-size:6.75px; font-family:Arial;" text-anchor="middle"><textPath startOffset="22.20632615414155" xlink:href="#id111">March</textPath></text><path d="M 118.03404312379186 89.2402003453031 l 3.9949702640982823 -2.3835520062309232 a25.652000384505246,25.652000384505246 0 0,0 0.22297735717499415,0.38114058258435385 l -4.035407295743604 2.3144320112926744" fill="#ff3104" stroke="none" /><path d="M 118.89224826269711 90.83032412892265 l 5.041968537053534 -2.447205678968276 a26.604485914320094,26.604485914320094 0 0,0 0.19641940705084496,0.4137093644431257 l -5.083346137946135 2.36005389888461" fill="#ff3f05" stroke="none" /><path d="M 120.28053869075195 94.5502522615342 l 1.9767209525475453 -0.5311806902661972 a23.04684602497407,23.04684602497407 0 0,0 0.09965419799466567,0.3840082763792236 l -1.9855714824125137 0.4970759883381232" fill="#ff0c01" stroke="none" /><path d="M 120.45610955862082 95.25157060432595 l 11.221103144945003 -2.6047287179732814 a32.51945170065526,32.51945170065526 0 0,0 0.12187920859322399,0.5463605940122251 l -11.264276740540264 2.411189954411092" fill="#ff900d" stroke="none" /><path d="M 120.53481517161879 95.60439243477599 l 4.253365691478968 -0.9104599313350134 a25.3497191854207,25.3497191854207 0 0,0 0.08766259312392202,0.4274739368085179 l -4.268407580517886 0.8371103383630836" fill="#ff2d04" stroke="none" /><path d="M 120.87857604477298 97.74499172005257 l 5.553778358707651 -0.5998405330431512 a26.58607757936917,26.58607757936917 0 0,0 0.04522529085572967,0.45541250704234737 l -5.563280775245609 0.5041524952963689" fill="#ff3e05" stroke="none" /><line stroke="#e1ed5e" stroke-width="0.3" x1="184.98032266829074" x2="189.97916517819016" y1="98.17113171792111" y2="98.06355123074" /><path d="M 185.9800911702706 98.14961562048488 a86.0,86.0 0 0,1 -9.607161424134198,41.387399972396054" fill="none" id="id112" stroke="none" /><text fill="#e1ed5e" style="font-size:6.75px; font-family:Arial;" text-anchor="middle"><textPath startOffset="21.466115282336823" xlink:href="#id112">April</textPath></text><path d="M 120.9904718944345 100.63252640178507 l 4.493761571567255 0.13541490880427087 a25.495801403489825,25.495801403489825 0 0,0 -0.016994611471340845,0.43855540821679806 l -4.490764827244711 -0.21274756403507514" fill="#ff2f04" stroke="none" /><path d="M 120.9764740272857 100.99374915477107 l 9.445711988780937 0.4474855160525075 a30.45630574072543,30.45630574072543 0 0,0 -0.02931586083357861,0.5234543884649344 l -9.43660977705983 -0.6100116208528653" fill="#ff740a" stroke="none" /><path d="M 120.95626037817324 101.35467743843564 l 1.9540075541554396 0.12631308737241062 a22.958085932163875,22.958085932163875 0 0,0 -0.028887220800363173,0.3941431768171745 l -1.9515437746907387 -0.15992940068635536" fill="#ff0a01" stroke="none" /><path d="M 120.5718875245553 104.21870165774334 l 5.06115084334085 1.0378962760420152 a26.166476220681915,26.166476220681915 0 0,0 -0.09428150363961423,0.44045179707554694 l -5.042535300976793 -1.1248618925337313" fill="#ff3805" stroke="none" /><path d="M 120.32669344350535 105.2749913415812 l 5.741402406921646 1.4899544812450503 a26.93158207853418,26.93158207853418 0 0,0 -0.12030969152126711,0.4477171184544379 l -5.714904639058601 -1.5885625328750366" fill="#ff4306" stroke="none" /><path d="M 118.64920377521936 109.65438752849418 l 5.0644518377639605 2.621783817180298 a26.702843396154172,26.702843396154172 0 0,0 -0.21482754357351072,0.406372752567488 l -5.018571785965556 -2.70857158483392" fill="#ff4006" stroke="none" /><line stroke="#e1ed5e" stroke-width="0.3" x1="174.80103733775053" x2="179.2010983576182" y1="140.37084112569926" y2="142.7455964860345" /><path d="M 175.68104954172406 140.8457921977663 a86.0,86.0 0 0,1 -30.038265399797805,32.042727171017184" fill="none" id="id113" stroke="none" /><text fill="#e1ed5e" style="font-size:6.75px; font-family:Arial;" text-anchor="middle"><textPath startOffset="22.206326154141568" xlink:href="#id113">May</textPath></text><path d="M 118.48025628344425 109.97397251340804 l 12.577889043717184 6.788408000116244 a35.2928575159799,35.2928575159799 0 0,0 -0.29313842517397576,0.5321313895021355 l -12.4591742090917 -7.003909908016185" fill="#ffb410" stroke="none" /><path d="M 116.71984013943494 112.70617746262583 l 2.4707743252943954 1.877655335546239 a24.10327493555425,24.10327493555425 0 0,0 -0.25388000468872385,0.32817412942921104 l -2.438087503387603 -1.9199074590887029" fill="#ff1b02" stroke="none" /><path d="M 116.0416608686014 113.55231037782055 l 2.537620568395983 2.1438317295035887 a24.32197721749754,24.32197721749754 0 0,0 -0.27293600539772206,0.31748623566607875 l -2.5003420534274823 -2.187195064331195" fill="#ff1e03" stroke="none" /><path d="M 111.1453310114006 117.79835938074945 l 1.6141382905253396 2.5776725119793706 a24.041354632389012,24.041354632389012 0 0,0 -0.3526303470752171,0.2166143604531904 l -1.5695287435178138 -2.605075339260939" fill="#ff1a02" stroke="none" /><line stroke="#e1ed5e" stroke-width="0.3" x1="143.8653032363475" x2="146.44561519142675" y1="172.8068346515853" y2="177.08958963109032" /><path d="M 144.38136562736335 173.6633856474863 a86.0,86.0 0 0,1 -40.68145358897372,12.25698825130547" fill="none" id="id114" stroke="none" /><text fill="#e1ed5e" style="font-size:6.75px; font-family:Arial;" text-anchor="middle"><textPath startOffset="21.466115282336833" xlink:href="#id114">June</textPath></text><path d="M 104.83641907484287 120.43548508189849 l 0.9245220549241392 3.9064143054853497 a25.014326065000418,25.014326065000418 0 0,0 -0.41985932925855163,0.09555861639462865 l -0.8571425762727255 -3.9217496554576625" fill="#ff2803" stroke="none" /><line stroke="#e1ed5e" stroke-width="0.3" x1="102.19456741930631" x2="102.32365962044197" y1="184.97166512339345" y2="189.96999836594603" /><path d="M 102.22038585953345 185.97133177190398 a86.0,86.0 0 0,1 -42.740103519485714,-10.115201625700543" fill="none" id="id115" stroke="none" /><text fill="#e1ed5e" style="font-size:6.75px; font-family:Arial;" text-anchor="middle"><textPath startOffset="22.20632615414155" xlink:href="#id115">July</textPath></text><path d="M 95.86986931433489 120.58985236759428 l -4.787149270490122 23.865273097322206 a45.34066675643305,45.34066675643305 0 0,0 -0.7639007163290841,-0.16008282237430693 l 5.197241448248593 -23.779334294221357" fill="#ceff1d" stroke="none" /><path d="M 94.46302465271185 120.25689768951611 l -5.542535510158445 20.277239418228298 a42.02108794295668,42.02108794295668 0 0,0 -0.6960869894137921,-0.19672113623334203 l 5.890753667676852 -20.178829488656437" fill="#f5ff19" stroke="none" /><path d="M 93.42475214034765 119.94407469862007 l -7.94722671292211 24.105567819274214 a46.38182050831286,46.38182050831286 0 0,0 -0.7560905238794476,-0.2565069569553732 l 8.360986969738784 -23.965197875420717" fill="#c2ff1e" stroke="none" /><path d="M 92.40401165467489 119.57807347666478 l -2.6009680174945347 6.703794245327218 a28.1906809073767,28.1906809073767 0 0,0 -0.45088836041985814,-0.17941778388631172 l 2.715977453956251 -6.65802961703484" fill="#ff5507" stroke="none" /><path d="M 92.06813273071674 119.44442032107085 l -12.158436457555574 29.80556039348666 a53.19004516092199,53.19004516092199 0 0,0 -0.8447808634183991,-0.3531184694226487 l 12.669688780471436 -29.591856881044038" fill="#77ff27" stroke="none" /><path d="M 91.07499286063937 119.00905698771935 l -12.613393602401022 26.864820840216396 a50.6785494414066,50.6785494414066 0 0,0 -0.7864522508132296,-0.37754487301493117 l 13.073958521214493 -26.643721690701902" fill="#92ff23" stroke="none" /><path d="M 90.42595943632237 118.69057910512821 l -13.015476016269542 25.408998682948965 a49.548552152433054,49.548552152433054 0 0,0 -0.7557548581459378,-0.3953752226014862 l 13.450921776941975 -25.18119404140276" fill="#9eff22" stroke="none" /><line stroke="#e1ed5e" stroke-width="0.3" x1="58.666819895761336" x2="56.23545636021788" y1="174.27360380694188" y2="178.64263932499728" /><path d="M 58.180547188652646 175.14741091055294 a86.0,86.0 0 0,1 -31.652253787137756,-30.449443065178592" fill="none" id="id116" stroke="none" /><text fill="#e1ed5e" style="font-size:6.75px; font-family:Arial;" text-anchor="middle"><textPath startOffset="22.20632615414155" xlink:href="#id116">August</textPath></text><path d="M 89.7882731507175 118.34994917583269 l -20.189032090417747 36.27865475019547 a62.517921518686336,62.517921518686336 0 0,0 -0.9358374151867734,-0.5313929081992902 l 20.810518272525727 -35.925758676201546" fill="#32ff4b" stroke="none" /><path d="M 87.95078237400918 117.19931262002967 l -22.487172513924886 32.09867412248094 a60.19180792068983,60.19180792068983 0 0,0 -0.8434668646870443,-0.6017912125199716 l 23.036366706460814 -31.70683864811675" fill="#30ff2f" stroke="none" /><path d="M 86.51685102203217 116.09983520530335 l -19.51530550498959 23.302657496767967 a51.39508176275815,51.39508176275815 0 0,0 -0.6733600631942702,-0.573852054088761 l 19.913531044760916 -22.963281052456257" fill="#8aff24" stroke="none" /><path d="M 85.70375840098266 115.38237550388516 l -2.7270671756861526 2.934251707358341 a25.005836799326726,25.005836799326726 0 0,0 -0.3127684408692647,-0.29574208286365494 l 2.777171450946234 -2.8868749877487554" fill="#ff2803" stroke="none" /><path d="M 85.18274418774928 114.88116024355367 l -21.64917717235976 21.74254657712041 a51.68265314307864,51.68265314307864 0 0,0 -0.6250140136994252,-0.6331358960646218 l 22.02023181111472 -21.366670187075123" fill="#87ff25" stroke="none" /><path d="M 84.9287848128048 114.62390073753433 l -21.592908520428548 20.952029873854695 a51.08722742637639,51.08722742637639 0 0,0 -0.6069489786235309,-0.6363835775367324 l 21.950364050431038 -20.577239179735464" fill="#8dff24" stroke="none" /><path d="M 84.67929136418377 114.36230785411682 l -37.072451426918775 34.753350706994446 a71.81497850205787,71.81497850205787 0 0,0 -0.8376827116089799,-0.909139139106692 l 37.66518054652349 -34.11006031308641" fill="#3effb4" stroke="none" /><path d="M 83.50135304334701 112.99209946851258 l -23.877836144972377 18.802949302653595 a51.392465537437246,51.392465537437246 0 0,0 -0.5413172868207845,-0.6997255635204567 l 24.19796024901123 -18.389145745019885" fill="#8aff24" stroke="none" /><path d="M 83.06392112726016 112.41649034213515 l -24.43494322352791 17.91419600872896 a51.29826511495655,51.29826511495655 0 0,0 -0.5159633432548693,-0.716627956351736 l 24.739686359158384 -17.490934446926087" fill="#8bff24" stroke="none" /><line stroke="#e1ed5e" stroke-width="0.3" x1="26.63291911575756" x2="22.317208475507996" y1="142.92168965132927" y2="145.44649492493687" /><path d="M 25.769776987707644 143.4266507060508 a86.0,86.0 0 0,1 -11.730757126820373,-40.83630448921669" fill="none" id="id117" stroke="none" /><text fill="#e1ed5e" style="font-size:6.75px; font-family:Arial;" text-anchor="middle"><textPath startOffset="21.46611528233685" xlink:href="#id117">September</textPath></text><path d="M 81.69416730710424 110.29060199501025 l -30.10905932931386 16.92577175811095 a55.540370630666494,55.540370630666494 0 0,0 -0.4613119459902089,-0.8374151790847969 l 30.395947684755587 -16.40498606062833" fill="#5eff2a" stroke="none" /><path d="M 81.51974371655577 109.97397251340807 l -35.6400071456408 19.235255517897922 a61.49944646757718,61.49944646757718 0 0,0 -0.4947703441073836,-0.9359190319786783 l 35.96582999797307 -18.618921470833115" fill="#31ff3f" stroke="none" /><path d="M 81.18737489456691 109.33194174019688 l -56.437875316299255 27.995825220590643 a84.0,84.0 0 0,0 -0.6313869735411242,-1.300844176138861 l 56.9114155464551 -27.020192088486496" fill="#4dd2ff" stroke="none" /><line stroke="#e1ed5e" stroke-width="0.3" x1="15.007084014347285" x2="10.007500721073583" y1="101.09737516637583" y2="101.16192664675087" /><path d="M 14.007167355692545 101.11028546245083 a86.0,86.0 0 0,1 10.666146001902534,-42.60595125391555" fill="none" id="id118" stroke="none" /><text fill="#e1ed5e" style="font-size:6.75px; font-family:Arial;" text-anchor="middle"><textPath startOffset="22.20632615414155" xlink:href="#id118">October</textPath></text><line stroke="#e1ed5e" stroke-width="0.3" x1="26.266209847984243" x2="21.928928074336255" y1="57.711370442889674" y2="55.22380399835377" /><path d="M 25.398753493254645 57.213857153982495 a86.0,86.0 0 0,1 29.58750427330803,-30.492523968695096" fill="none" id="id119" stroke="none" /><text fill="#e1ed5e" style="font-size:6.75px; font-family:Arial;" text-anchor="middle"><textPath startOffset="21.46611528233685" xlink:href="#id119">November</textPath></text><line stroke="#e1ed5e" stroke-width="0.3" x1="56.762969772571076" x2="54.21961505331055" y1="26.818313649435495" y2="22.513508569990535" /><path d="M 56.25429882871897 25.957352633546506 a86.0,86.0 0 0,1 42.265352541879196,-11.944610805530505" fill="none" id="id120" stroke="none" /><text fill="#e1ed5e" style="font-size:6.75px; font-family:Arial;" text-anchor="middle"><textPath startOffset="22.20632615414155" xlink:href="#id120">December</textPath></text></svg>