<?xml version="1.0" encoding="utf-8" ?>
<svg baseProfile="full" height="200mm" version="1.1" viewBox="0,0,200,200" width="200mm" xmlns="http://www.w3.org/2000/svg" xmlns:ev="http://www.w3.org/2001/xml-events" xmlns:xlink="http://www.w3.org/1999/xlink"><defs /><rect fill="#1a1a1a" height="200" width="200" x="0" y="0" /><text alignment-baseline="middle" fill="#e1ed5e" style="dominant-baseline: central; font-size:9.0px; font-family:Arial;" text-anchor="middle" x="100.0" y="100.0">2017</text><line stroke="#e1ed5e" stroke-width="0.3" x1="100.0" x2="100.0" y1="15.0" y2="10.0" /><path d="M 100.0 14.0 a86.0,86.0 0 0,1 42.46469731375804,11.215312516191453" fill="none" id="id61" stroke="none" /><text fill="#e1ed5e" style="font-size:6.75px; font-family:Arial;" text-anchor="middle"><textPath startOffset="22.20632615414155" xlink:href="#id61">January</textPath></text><path d="M 100.0 79.0 l 0.0 -53.382863365366035 a74.38286336536603,74.38286336536603 0 0,0 1.2803787189988336,0.011020623864410967 l -0.9188982397263052 53.37495411811018" fill="#41ffce" stroke="none" /><path d="M 101.08401301168833 79.027996857942 l 0.3912772561361321 -7.569897922463417 a28.580003459609063,28.580003459609063 0 0,0 0.4910833282153399,0.02962348744834704 l -0.5215226331910839 7.562041165634765" fill="#ff5507" stroke="none" /><path d="M 101.44485096284872 79.0497635885617 l 0.6314089515902915 -9.155384983122346 a30.177131984085797,30.177131984085797 0 0,0 0.5179111630462857,0.04019987405518579 l -0.7889103039989184 9.143159846878696" fill="#ff6b09" stroke="none" /><path d="M 102.52436894288641 79.15227682838746 l 2.6063166863474594 -21.52449582603322 a42.68171596609583,42.68171596609583 0 0,0 0.7286079302788983,0.09459422053781615 l -2.976439345134204 21.47644328233127" fill="#f1ff19" stroke="none" /><path d="M 105.36241919743992 79.69619591428918 l 3.10496532207183 -11.756374365952151 a33.159487977858504,33.159487977858504 0 0,0 0.550608735720964,0.1505021668380297 l -3.3068719470165053 11.701185658287828" fill="#ff930d" stroke="none" /><path d="M 106.0581310904928 79.89281104454417 l 2.057801433090759 -6.82992850928849 a28.133194948970768,28.133194948970768 0 0,0 0.46247573375074513,0.1436934616928742 l -2.175062539552222 6.793494912713096" fill="#ff4e07" stroke="none" /><path d="M 107.4271985657038 80.35727306442388 l 2.5566727461945287 -6.761637537069101 a28.228853139595227,28.228853139595227 0 0,0 0.45302851146645695,0.17576802422877716 l -2.6726844226606525 6.716626808949777" fill="#ff5007" stroke="none" /><path d="M 108.43124777332544 80.76684994638697 l 2.3111429345781644 -5.272121049119318 a26.756443521882026,26.756443521882026 0 0,0 0.42022635808335107,0.18854331756767623 l -2.4015514111282954 5.2315574010351105" fill="#ff3b05" stroke="none" /><path d="M 109.08828744355905 81.06846463323043 l 4.0381907997501045 -8.411832528185794 a30.33091160698841,30.33091160698841 0 0,0 0.46872630067783505,0.23000196008663976 l -4.182388367438372 8.341075407964324" fill="#ff6d0a" stroke="none" /><path d="M 110.05341064243156 81.56283822128135 l 5.857098606419215 -10.741456646034322 a33.234561494551116,33.234561494551116 0 0,0 0.4999046374468,0.27819638950387715 l -6.04112733293805 10.639044858970266" fill="#ff940d" stroke="none" /><line stroke="#e1ed5e" stroke-width="0.3" x1="143.23703022742887" x2="145.7803849466894" y1="26.81831364943548" y2="22.513508569990506" /><path d="M 143.74570117128098 25.957352633546492 a86.0,86.0 0 0,1 28.547481713284135,27.462654790039103" fill="none" id="id62" stroke="none" /><text fill="#e1ed5e" style="font-size:6.75px; font-family:Arial;" text-anchor="middle"><textPath startOffset="19.985693538727396" xlink:href="#id62">February</textPath></text><path d="M 112.19680574252982 82.90503203632743 l 1.1214625534591907 -1.5718350220987325 a22.930891917096172,22.930891917096172 0 0,0 0.31934508292094405,0.23201778385146288 l -1.1483529527339236 1.5522980034305949" fill="#ff0300" stroke="none" /><path d="M 113.06298171725822 83.55741782278167 l 4.546396681391375 -5.722621577679167 a28.308770108977686,28.308770108977686 0 0,0 0.37892852706917846,0.3064005161772423 l -4.6442286070250445 5.643514964237795" fill="#ff5107" stroke="none" /><path d="M 113.89432698308785 84.25364557470407 l 18.982927158064165 -21.513233381097862 a49.690952127769364,49.690952127769364 0 0,0 0.6364914351554104,0.5714482949549377 l -19.350429580815568 21.183286077373626" fill="#9fff22" stroke="none" /><path d="M 114.68862486808459 84.99185889309783 l 8.282307708297251 -8.462469692924893 a32.841030963501126,32.841030963501126 0 0,0 0.40060459135454524,0.39888426792754894 l -8.426748099819118 8.318649574347226" fill="#ff8f0d" stroke="none" /><path d="M 115.68641384162765 86.03803664274999 l 12.809259806557744 -11.401102754158725 a38.148244248399934,38.148244248399934 0 0,0 0.43236154863517806,0.494263991340952 l -13.00361321877077 11.178923206614826" fill="#ffd413" stroke="none" /><path d="M 116.82858285166822 87.43820079747576 l 20.77397971927375 -15.506864967239895 a46.923369659228506,46.923369659228506 0 0,0 0.4775846877628986,0.6514249773881264 l -21.037827019550274 15.146977546180276" fill="#bfff1e" stroke="none" /><line stroke="#e1ed5e" stroke-width="0.3" x1="172.23445277983987" x2="176.4835382374775" y1="55.19839476539836" y2="52.563006222186495" /><path d="M 173.08426987136738 54.67131705675599 a86.0,86.0 0 0,1 12.851231095245387,41.99856678651699" fill="none" id="id63" stroke="none" /><text fill="#e1ed5e" style="font-size:6.75px; font-family:Arial;" text-anchor="middle"><textPath startOffset="22.20632615414155" xlink:href="#id63">March</textPath></text><path d="M 117.84615892207809 88.93136811851018 l 6.393252919499 -3.9652545626302396 a28.523092890503374,28.523092890503374 0 0,0 0.25519231134000514,0.4194690615426391 l -6.460561029125229 3.854617727880519" fill="#ff5407" stroke="none" /><path d="M 118.56541770881063 90.18545643968196 l 18.056937433674552 -9.54573722974369 a41.42483999308078,41.42483999308078 0 0,0 0.3278294114143608,0.6332620768466437 l -18.21857627824903 9.233502430636701" fill="#fffd18" stroke="none" /><path d="M 119.85752413597 93.16781622104841 l 6.869927049289046 -2.3636684929775407 a28.26517903476907,28.26517903476907 0 0,0 0.15433152000724046,0.4614316011350068 l -6.909595863068057 2.2450637889202194" fill="#ff5007" stroke="none" /><path d="M 119.97218684219823 93.5106431181261 l 4.499298506167819 -1.461910703885217 a25.730842414807128,25.730842414807128 0 0,0 0.13324228622070108,0.42241445905775205 l -4.523796276156726 1.384246078401046" fill="#ff2c04" stroke="none" /><path d="M 120.37134235888165 94.90015583598534 l 61.11402707664495 -15.299532492043943 a84.0,84.0 0 0,0 0.33906879895672226,1.4056590733623755 l -61.36832867586249 14.245288187022162" fill="#4dd2ff" stroke="none" /><path d="M 120.6074358757038 95.95851677861258 l 14.818390844071304 -2.9061489418430595 a36.100675775601296,36.100675775601296 0 0,0 0.11434334836090472,0.6108267391184448 l -14.866219916342068 2.650644125262052" fill="#ffba11" stroke="none" /><path d="M 120.83666639777658 97.38593545837742 l 25.899438735066152 -3.2492147809443783 a47.102458188533745,47.102458188533745 0 0,0 0.09400225692117439,0.8053539310897551 l -25.951531344990915 2.80291711152977" fill="#bdff1f" stroke="none" /><path d="M 120.91429891909075 98.10471618934814 l 40.54828273707613 -3.6745436277170653 a61.71443851753162,61.71443851753162 0 0,0 0.08676907871524649,1.058802538343022 l -40.60552629961087 2.9760271721662748" fill="#31ff3f" stroke="none" /><line stroke="#e1ed5e" stroke-width="0.3" x1="184.98032266829074" x2="189.97916517819016" y1="98.17113171792111" y2="98.06355123074" /><path d="M 185.9800911702706 98.14961562048488 a86.0,86.0 0 0,1 -9.607161424134198,41.387399972396054" fill="none" id="id64" stroke="none" /><text fill="#e1ed5e" style="font-size:6.75px; font-family:Arial;" text-anchor="middle"><textPath startOffset="21.466115282336823" xlink:href="#id64">April</textPath></text><path d="M 120.9904718944345 100.63252640178507 l 2.6141668501842648 0.07877524429792773 a23.61535348657051,23.61535348657051 0 0,0 -0.015741170513185212,0.4062096666264946 l -2.612423546819876 -0.12376215793842853" fill="#ff0d01" stroke="none" /><path d="M 120.23288151984713 105.62410040840565 l 29.355005360904226 8.15976199322197 a51.467984106677385,51.467984106677385 0 0,0 -0.24461351326074354,0.8515317299387639 l -29.210199210757384 -8.663851198665316" fill="#8cff24" stroke="none" /><path d="M 119.79798401119884 107.00284435728193 l 39.96417627890137 14.135929506247637 a63.390563674675356,63.390563674675356 0 0,0 -0.37272365214408426,1.0255754122616225 l -39.71492836575206 -14.821752715515391" fill="#33ff54" stroke="none" /><line stroke="#e1ed5e" stroke-width="0.3" x1="174.80103733775053" x2="179.2010983576182" y1="140.37084112569926" y2="142.7455964860345" /><path d="M 175.68104954172406 140.8457921977663 a86.0,86.0 0 0,1 -30.038265399797805,32.042727171017184" fill="none" id="id65" stroke="none" /><text fill="#e1ed5e" style="font-size:6.75px; font-family:Arial;" text-anchor="middle"><textPath startOffset="22.206326154141568" xlink:href="#id65">May</textPath></text><path d="M 118.30583269289576 110.29060199501025 l 7.367507134475967 4.141635340396931 a29.45182256494888,29.45182256494888 0 0,0 -0.25223102371335054,0.4397860504604868 l -7.295124114610237 -4.267841236715733" fill="#ff6108" stroke="none" /><line stroke="#e1ed5e" stroke-width="0.3" x1="143.8653032363475" x2="146.44561519142675" y1="172.8068346515853" y2="177.08958963109032" /><path d="M 144.38136562736335 173.6633856474863 a86.0,86.0 0 0,1 -40.68145358897372,12.25698825130547" fill="none" id="id66" stroke="none" /><text fill="#e1ed5e" style="font-size:6.75px; font-family:Arial;" text-anchor="middle"><textPath startOffset="21.466115282336833" xlink:href="#id66">June</textPath></text><path d="M 109.57404056367764 118.69057910512821 l 3.7295864641760996 7.280952109453161 a29.180591593149973,29.180591593149973 0 0,0 -0.44902829261103355,0.22515210758961707 l -3.6037042638823054 -7.34407205795208" fill="#ff5d08" stroke="none" /><path d="M 103.41894727170886 120.7198165907248 l 1.7371503183168653 10.527637054798564 a31.669996869071525,31.669996869071525 0 0,0 -0.538637480060138,0.08412409674612717 l -1.5556769746482102 -10.555979458891796" fill="#ff7f0b" stroke="none" /><path d="M 103.06178313531738 120.77559828337769 l 0.6283638606228555 4.263736054166868 a25.30978958662013,25.30978958662013 0 0,0 -0.4315577149545694,0.05980996692984889 l -0.5548775544814557 -4.27392058658932" fill="#ff2603" stroke="none" /><line stroke="#e1ed5e" stroke-width="0.3" x1="102.19456741930631" x2="102.32365962044197" y1="184.97166512339345" y2="189.96999836594603" /><path d="M 102.22038585953345 185.97133177190398 a86.0,86.0 0 0,1 -42.740103519485714,-10.115201625700543" fill="none" id="id67" stroke="none" /><text fill="#e1ed5e" style="font-size:6.75px; font-family:Arial;" text-anchor="middle"><textPath startOffset="22.20632615414155" xlink:href="#id67">July</textPath></text><path d="M 97.2962882734958 120.8252237178851 l -2.9269205724454483 22.544480289127527 a43.733685480895176,43.733685480895176 0 0,0 -0.7457039225112461,-0.10334776879043711 l 3.3145530861435257 -22.490757954844486" fill="#e5ff1a" stroke="none" /><line stroke="#e1ed5e" stroke-width="0.3" x1="58.666819895761336" x2="56.23545636021788" y1="174.27360380694188" y2="178.64263932499728" /><path d="M 58.180547188652646 175.14741091055294 a86.0,86.0 0 0,1 -31.652253787137756,-30.449443065178592" fill="none" id="id68" stroke="none" /><text fill="#e1ed5e" style="font-size:6.75px; font-family:Arial;" text-anchor="middle"><textPath startOffset="22.20632615414155" xlink:href="#id68">August</textPath></text><path d="M 86.51685102203217 116.09983520530335 l -14.284841912319056 17.057113371509296 a43.24863647571393,43.24863647571393 0 0,0 -0.5666282374017942,-0.48289287665090125 l 14.576335626297906 -16.808696104635445" fill="#eaff1a" stroke="none" /><path d="M 84.67929136418377 114.36230785411682 l -25.065073400701785 23.497105070279588 a55.35654015273259,55.35654015273259 0 0,0 -0.6457039691114527,-0.7007841303877604 l 25.465823777808964 -23.062169685090485" fill="#62ff29" stroke="none" /><line stroke="#e1ed5e" stroke-width="0.3" x1="26.63291911575756" x2="22.317208475507996" y1="142.92168965132927" y2="145.44649492493687" /><path d="M 25.769776987707644 143.4266507060508 a86.0,86.0 0 0,1 -11.730757126820373,-40.83630448921669" fill="none" id="id69" stroke="none" /><text fill="#e1ed5e" style="font-size:6.75px; font-family:Arial;" text-anchor="middle"><textPath startOffset="21.46611528233685" xlink:href="#id69">September</textPath></text><line stroke="#e1ed5e" stroke-width="0.3" x1="15.007084014347285" x2="10.007500721073583" y1="101.09737516637583" y2="101.16192664675087" /><path d="M 14.007167355692545 101.11028546245083 a86.0,86.0 0 0,1 10.666146001902534,-42.60595125391555" fill="none" id="id70" stroke="none" /><text fill="#e1ed5e" style="font-size:6.75px; font-family:Arial;" text-anchor="middle"><textPath startOffset="22.20632615414155" xlink:href="#id70">October</textPath></text><path d="M 79.03285615573316 98.82574320788736 l -25.42338617963857 -1.4238269228122047 a46.46322540341585,46.46322540341585 0 0,0 0.051594997925542556,-0.7981517814214985 l 25.39511059070861 1.861237768486715" fill="#c4ff1e" stroke="none" /><path d="M 80.14247586403 93.16781622104843 l -27.582369183557667 -9.4899955316988 a50.16928358684414,50.16928358684414 0 0,0 0.287988217827288,-0.8141814727082355 l 27.41492788492057 9.963374630833645" fill="#9aff22" stroke="none" /><line stroke="#e1ed5e" stroke-width="0.3" x1="26.266209847984243" x2="21.928928074336255" y1="57.711370442889674" y2="55.22380399835377" /><path d="M 25.398753493254645 57.213857153982495 a86.0,86.0 0 0,1 29.58750427330803,-30.492523968695096" fill="none" id="id71" stroke="none" /><text fill="#e1ed5e" style="font-size:6.75px; font-family:Arial;" text-anchor="middle"><textPath startOffset="21.46611528233685" xlink:href="#id71">November</textPath></text><path d="M 82.54541684631803 88.32363383020206 l -6.1493111381535375 -4.113624937869192 a28.398373983739837,28.398373983739837 0 0,0 0.2752959122799419,-0.40396278153946485 l 6.077590760204855 4.218865742679072" fill="#ff5207" stroke="none" /><path d="M 83.84228863543731 86.58626213691792 l -9.350100401011998 -7.762225289390053 a33.15222279882373,33.15222279882373 0 0,0 0.3682886532512267,-0.43593760122841696 l 9.215101134273649 7.922021840247586" fill="#ff930d" stroke="none" /><path d="M 85.05521093208273 85.24692304244772 l -9.144685770718633 -9.027377523692738 a33.84985691750911,33.84985691750911 0 0,0 0.41291054817736467,-0.41113737906095105 l 8.987939422373955 9.183450753403799" fill="#ff9c0e" stroke="none" /><path d="M 85.83668400450813 84.49514656593479 l -17.463578730717238 -19.117714293758223 a46.893311528302576,46.893311528302576 0 0,0 0.6006564550644076,-0.5392752960083846 l 17.13191128805686 19.415488598535887" fill="#bfff1e" stroke="none" /><line stroke="#e1ed5e" stroke-width="0.3" x1="56.762969772571076" x2="54.21961505331055" y1="26.818313649435495" y2="22.513508569990535" /><path d="M 56.25429882871897 25.957352633546506 a86.0,86.0 0 0,1 42.265352541879196,-11.944610805530505" fill="none" id="id72" stroke="none" /><text fill="#e1ed5e" style="font-size:6.75px; font-family:Arial;" text-anchor="middle"><textPath startOffset="22.20632615414155" xlink:href="#id72">December</textPath></text><path d="M 89.3179101791058 81.91981866633112 l -7.628190550764291 -12.911244027908065 a35.996316661999415,35.996316661999415 0 0,0 0.5361793081469741,-0.3105896632583651 l 7.404814510151997 13.040637848556479" fill="#ffb911" stroke="none" /><path d="M 89.63071344664047 81.73862282372117 l -0.8440926212867099 -1.4865336828825941 a22.709466216002866,22.709466216002866 0 0,0 0.3415892060794053,-0.19009402335240397 l 0.8183793261352591 1.5008431037951826" fill="#ff0000" stroke="none" /><path d="M 89.94658935756843 81.56283822128135 l -2.058443266959447 -3.7750225147538807 a25.299765536653062,25.299765536653062 0 0,0 0.3841407410968713,-0.20519468025761428 l 1.9931574793342706 3.809895921513245" fill="#ff2603" stroke="none" /><path d="M 92.23578459929587 80.48803036053334 l -11.033523171003843 -27.727949060951428 a50.84255003668078,50.84255003668078 0 0,0 0.8159426331765592,-0.3165730652431296 l 10.554597372827606 27.91376483008511" fill="#93ff23" stroke="none" /><path d="M 99.27714615592234 79.0124445844662 l -1.67653090756638 -48.676901446517356 a69.70576444650047,69.70576444650047 0 0,0 1.1995146021116687,-0.03097992325975743 l 0.838389670259832 48.698548161919476" fill="#3bff9c" stroke="none" /></svg>