<?xml version="1.0" encoding="utf-8" ?>
<svg baseProfile="full" height="200mm" version="1.1" viewBox="0,0,200,200" width="200mm" xmlns="http://www.w3.org/2000/svg" xmlns:ev="http://www.w3.org/2001/xml-events" xmlns:xlink="http://www.w3.org/1999/xlink"><defs /><rect fill="#1a1a1a" height="200" width="200" x="0" y="0" /><text alignment-baseline="middle" fill="#e1ed5e" style="dominant-baseline: central; font-size:9.0px; font-family:Arial;" text-anchor="middle" x="100.0" y="100.0">2015</text><line stroke="#e1ed5e" stroke-width="0.3" x1="100.0" x2="100.0" y1="15.0" y2="10.0" /><path d="M 100.0 14.0 a86.0,86.0 0 0,1 42.46469731375804,11.215312516191453" fill="none" id="id13" stroke="none" /><text fill="#e1ed5e" style="font-size:6.75px; font-family:Arial;" text-anchor="middle"><textPath startOffset="22.20632615414155" xlink:href="#id13">January</textPath></text><path d="M 102.16513564639614 79.11191278185805 l 4.332006282928083 -41.79291270639641 a63.01682794928478,63.01682794928478 0 0,0 1.0779877542181928,0.12112448454667017 l -5.050760740656002 41.712152268379135" fill="#32ff4c" stroke="none" /><path d="M 103.95276090670814 79.375362276772 l 4.411935137069758 -23.020507945729666 a44.43947434848131,44.43947434848131 0 0,0 0.7500401168917054,0.15045099143740007 l -4.807541663428588 22.94115299821506" fill="#e1ff1b" stroke="none" /><line stroke="#e1ed5e" stroke-width="0.3" x1="143.23703022742887" x2="145.7803849466894" y1="26.818313649435467" y2="22.513508569990506" /><path d="M 143.74570117128098 25.957352633546478 a86.0,86.0 0 0,1 28.547481713284135,27.462654790039114" fill="none" id="id14" stroke="none" /><text fill="#e1ed5e" style="font-size:6.75px; font-family:Arial;" text-anchor="middle"><textPath startOffset="19.985693538727396" xlink:href="#id14">February</textPath></text><line stroke="#e1ed5e" stroke-width="0.3" x1="172.23445277983987" x2="176.4835382374775" y1="55.19839476539836" y2="52.563006222186495" /><path d="M 173.08426987136738 54.67131705675599 a86.0,86.0 0 0,1 12.851231095245387,41.99856678651699" fill="none" id="id15" stroke="none" /><text fill="#e1ed5e" style="font-size:6.75px; font-family:Arial;" text-anchor="middle"><textPath startOffset="22.20632615414155" xlink:href="#id15">March</textPath></text><line stroke="#e1ed5e" stroke-width="0.3" x1="184.98032266829074" x2="189.97916517819016" y1="98.17113171792111" y2="98.06355123074" /><path d="M 185.9800911702706 98.14961562048488 a86.0,86.0 0 0,1 -9.607161424134198,41.387399972396054" fill="none" id="id16" stroke="none" /><text fill="#e1ed5e" style="font-size:6.75px; font-family:Arial;" text-anchor="middle"><textPath startOffset="21.466115282336823" xlink:href="#id16">April</textPath></text><line stroke="#e1ed5e" stroke-width="0.3" x1="174.80103733775053" x2="179.2010983576182" y1="140.37084112569926" y2="142.7455964860345" /><path d="M 175.68104954172406 140.8457921977663 a86.0,86.0 0 0,1 -30.038265399797805,32.042727171017184" fill="none" id="id17" stroke="none" /><text fill="#e1ed5e" style="font-size:6.75px; font-family:Arial;" text-anchor="middle"><textPath startOffset="22.206326154141568" xlink:href="#id17">May</textPath></text><line stroke="#e1ed5e" stroke-width="0.3" x1="143.8653032363475" x2="146.44561519142675" y1="172.8068346515853" y2="177.08958963109032" /><path d="M 144.38136562736335 173.6633856474863 a86.0,86.0 0 0,1 -40.68145358897372,12.25698825130547" fill="none" id="id18" stroke="none" /><text fill="#e1ed5e" style="font-size:6.75px; font-family:Arial;" text-anchor="middle"><textPath startOffset="21.466115282336833" xlink:href="#id18">June</textPath></text><path d="M 107.2578585660854 119.70592522655815 l 16.996517265115475 46.14750966674168 a70.17798539575799,70.17798539575799 0 0,0 -1.13715217640898,0.4077423125237237 l -16.19964552807676 -46.43323952030537" fill="#3bff9f" stroke="none" /><path d="M 106.57524785965236 119.94407469862006 l 13.310840094902417 40.37450675937809 a63.5121072177695,63.5121072177695 0 0,0 -1.0412315639701744,0.3333694657742017 l -12.613887185841302 -40.597649071812" fill="#33ff52" stroke="none" /><path d="M 105.18746579009965 120.34920634021253 l 1.744424078207528 6.84296474398496 a28.061811513489392,28.061811513489392 0 0,0 -0.46909555980788603,0.11529227556251102 l -1.6263752336564314 -6.871978277861501" fill="#ff4506" stroke="none" /><path d="M 104.83641907484287 120.43548508189849 l 2.915235549535389 12.317843359073713 a33.658114524997444,33.658114524997444 0 0,0 -0.5649431990232866,0.1285792328005562 l -2.70277220111924 -12.366199325451953" fill="#ff930d" stroke="none" /><path d="M 103.7750983002368 120.6578951692458 l 5.4626066237676465 29.892189821266648 a51.38721908034145,51.38721908034145 0 0,0 -0.8715052823168908,0.15152236434796268 l -4.947252369978705 -29.981790764135617" fill="#91ff24" stroke="none" /><path d="M 103.06178313531737 120.77559828337769 l 1.2336257129683457 8.370714420967333 a29.461128312293056,29.461128312293056 0 0,0 -0.5023422723813482,0.06962006159884433 l -1.0893548494001664 -8.39070904805878" fill="#ff5908" stroke="none" /><path d="M 102.70371172650421 120.8252237178851 l 1.5019704240210991 11.568862830775402 a32.66595484098626,32.66595484098626 0 0,0 -0.5582340662986656,0.06759437125222006 l -1.3026089346710532 -11.593002730752973" fill="#ff850c" stroke="none" /><line stroke="#e1ed5e" stroke-width="0.3" x1="102.19456741930631" x2="102.32365962044197" y1="184.97166512339345" y2="189.96999836594603" /><path d="M 102.22038585953345 185.97133177190398 a86.0,86.0 0 0,1 -42.740103519485714,-10.115201625700543" fill="none" id="id19" stroke="none" /><text fill="#e1ed5e" style="font-size:6.75px; font-family:Arial;" text-anchor="middle"><textPath startOffset="22.20632615414155" xlink:href="#id19">July</textPath></text><path d="M 97.65516085044442 120.86867818915974 l -1.2768684888772792 11.36391704706438 a32.435427573573634,32.435427573573634 0 0,0 -0.5542945465599238,-0.06711735027509008 l 1.472290458488592 -11.340254168063941" fill="#ff820c" stroke="none" /><path d="M 97.2962882734958 120.8252237178851 l -0.5364222410993842 4.131769326084121 a25.16644531761977,25.16644531761977 0 0,0 -0.42911354903331933,-0.059471227804451424 l 0.607464381319534 -4.121923532787065" fill="#ff1b02" stroke="none" /><path d="M 96.93821686468263 120.77559828337769 l -2.711197724009667 18.39671599569194 a39.59542289179848,39.59542289179848 0 0,0 -0.6734316677240348,-0.10517617667674645 l 3.02746525534222 -18.34732151166809" fill="#ffe115" stroke="none" /><path d="M 94.11515582081647 120.15858648285463 l -11.510341888707487 39.428779309314926 a62.07452505163748,62.07452505163748 0 0,0 -1.0231212652432202,-0.3082580444260669 l 12.187338128390952 -39.22480589578313" fill="#31ff41" stroke="none" /><path d="M 92.7421414339146 119.70592522655815 l -7.105663791785361 19.292698816189137 a41.55963729091725,41.55963729091725 0 0,0 -0.669169094402884,-0.2530224929798758 l 7.436703106948528 -19.16752807310263" fill="#fff917" stroke="none" /><path d="M 92.06813273071674 119.44442032107085 l -16.156946450207556 39.6076292274187 a63.776292635191595,63.776292635191595 0 0,0 -1.0129149429180129,-0.4233985282895637 l 16.83633285262303 -39.323645656109164" fill="#33ff56" stroke="none" /><path d="M 91.7346041902142 119.30500536409082 l -4.546816282639124 10.619734946263701 a32.5521560168207,32.5521560168207 0 0,0 -0.5132069453564211,-0.22497484308237894 l 4.72894390265329 -10.53989554988687" fill="#ff840c" stroke="none" /><path d="M 91.40352486487194 119.15986991738527 l -6.391287244499168 14.244935311782731 a36.613030925434444,36.613030925434444 0 0,0 -0.572788210998211,-0.2629389741816145 l 6.635543451264798 -14.132809267267042" fill="#ffba11" stroke="none" /><path d="M 90.7491055286396 118.85261126421891 l -5.617703671859404 11.448447915065902 a33.75247247434,33.75247247434 0 0,0 -0.519379980291819,-0.260427904269841 l 5.813937559833983 -11.350052169886759" fill="#ff940d" stroke="none" /><line stroke="#e1ed5e" stroke-width="0.3" x1="58.666819895761336" x2="56.23545636021788" y1="174.27360380694188" y2="178.64263932499728" /><path d="M 58.180547188652646 175.14741091055294 a86.0,86.0 0 0,1 -31.652253787137756,-30.449443065178592" fill="none" id="id20" stroke="none" /><text fill="#e1ed5e" style="font-size:6.75px; font-family:Arial;" text-anchor="middle"><textPath startOffset="22.20632615414155" xlink:href="#id20">August</textPath></text><path d="M 89.4739219176387 118.17145234162733 l -11.500604706708115 19.853803923233006 a43.9442245203916,43.9442245203916 0 0,0 -0.6512787882613453,-0.3847869878216013 l 11.840651365997843 -19.652898363117654" fill="#e7ff1a" stroke="none" /><path d="M 88.8546689885994 117.79835938074946 l -11.227383600633097 17.92939196020243 a42.15460324795378,42.15460324795378 0 0,0 -0.6116797493877801,-0.39040295668496705 l 11.5343451520678 -17.733474574693663" fill="#fdff18" stroke="none" /><path d="M 88.24862548938628 117.40417183066458 l -17.40491067140551 25.777244674562695 a52.10301044098266,52.10301044098266 0 0,0 -0.7389772833461119,-0.5082753138400705 l 17.846044839374514 -25.47382857135752" fill="#89ff24" stroke="none" /><path d="M 87.07902340077011 116.55440617244103 l -8.271245495293469 10.597152345993905 a34.44295874752343,34.44295874752343 0 0,0 -0.46422959057769686,-0.3688120630303933 l 8.452432578588525 -10.453206368958378" fill="#ff9d0e" stroke="none" /><path d="M 86.79598089348748 116.32954008644617 l -24.79675251517692 30.66638732827573 a60.43737119873437,60.43737119873437 0 0,0 -0.8033274120856977,-0.6610837698947624 l 25.32095005580731 -30.235008439523792" fill="#31ff2f" stroke="none" /><path d="M 86.24171649860922 115.8653595955263 l -7.2177026435612985 8.323091167739433 a32.016763501018524,32.016763501018524 0 0,0 -0.4132565991491582,-0.3646509002282507 l 7.359901595617044 -8.197617125738894" fill="#ff7c0b" stroke="none" /><path d="M 85.70375840098266 115.38237550388516 l -14.377782728739135 15.470111589464318 a42.11977719544663,42.11977719544663 0 0,0 -0.5268264825088897,-0.49814732206321727 l 14.641945045638842 -15.22032963065517" fill="#feff18" stroke="none" /><path d="M 85.18274418774928 114.88116024355367 l -14.46414275746161 14.52652426918768 a41.49954470351788,41.49954470351788 0 0,0 -0.5018665920659693,-0.508388208116873 l 14.712049974583113 -14.275395567090143" fill="#fff917" stroke="none" /><path d="M 83.95833913139862 113.55231037782056 l -7.524538112488482 6.356877681523686 a30.850307998440744,30.850307998440744 0 0,0 -0.33921235815983186,-0.40860313734950077 l 7.632846470541849 -6.226413287060422" fill="#ff6c0a" stroke="none" /><path d="M 83.50135304334701 112.99209946851258 l -7.928266695308013 6.243228901676759 a31.091348765683517,31.091348765683517 0 0,0 -0.32748544716498174,-0.42331908594327033 l 8.034558959691063 -6.105831821620236" fill="#ff6f0a" stroke="none" /><path d="M 83.28015986056508 112.70617746262583 l -7.977767381414564 6.062673282666156 a31.020018948301257,31.020018948301257 0 0,0 -0.31941569545119636,-0.42790952222381407 l 8.080944343560846 -5.924450880933033" fill="#ff6f0a" stroke="none" /><path d="M 83.06392112726016 112.41649034213515 l -15.391694620565245 11.284242890067791 a40.08503080675487,40.08503080675487 0 0,0 -0.4031794537920445,-0.5599809982456062 l 15.583653866732897 -11.017628286371046" fill="#ffe715" stroke="none" /><path d="M 82.85270091963577 112.12312394758628 l -8.156814483239938 5.766859989689073 a30.989509330025648,30.989509330025648 0 0,0 -0.3041975876562893,-0.4382193131470578 l 8.25487297805836 -5.625599414355003" fill="#ff6e0a" stroke="none" /><path d="M 82.44556493220864 111.52570212397912 l -15.431125895031995 10.131602630157236 a39.4599300714747,39.4599300714747 0 0,0 -0.36790773330841015,-0.5710009722538697 l 15.60323849171745 -9.864480057981917" fill="#ffdf14" stroke="none" /><path d="M 82.24976979558568 111.22182372390057 l -18.793970276500904 11.881683735159127 a43.23483139437636,43.23483139437636 0 0,0 -0.3922744846963177,-0.6324713722455556 l 18.995709400865177 -11.556416031548308" fill="#f0ff19" stroke="none" /><line stroke="#e1ed5e" stroke-width="0.3" x1="26.63291911575756" x2="22.317208475507996" y1="142.92168965132927" y2="145.44649492493687" /><path d="M 25.769776987707644 143.4266507060508 a86.0,86.0 0 0,1 -11.730757126820373,-40.83630448921669" fill="none" id="id21" stroke="none" /><text fill="#e1ed5e" style="font-size:6.75px; font-family:Arial;" text-anchor="middle"><textPath startOffset="21.46611528233685" xlink:href="#id21">September</textPath></text><path d="M 81.51974371655577 109.97397251340807 l -55.44076885033272 29.92191754022421 a84.0,84.0 0 0,0 -0.6757899671004557,-1.2783399396554953 l 55.94761132565806 -28.96316258548259" fill="#4dd2ff" stroke="none" /><path d="M 80.73074385275274 108.34839909993369 l -11.269809057020487 4.882641191185524 a33.28205117981368,33.28205117981368 0 0,0 -0.2232259167897197,-0.5276401274210766 l 11.352185955002515 -4.687926538098287" fill="#ff8e0d" stroke="none" /><path d="M 80.45479744820244 107.68017299344265 l -15.245136795525587 5.990487312067594 a37.37986978429105,37.37986978429105 0 0,0 -0.2301633805313608,-0.600883957810571 l 15.345994455650457 -5.727179787423865" fill="#ffc412" stroke="none" /><path d="M 79.97269907076064 106.31721596034903 l -10.674225416778176 3.366973283393681 a32.192658189155964,32.192658189155964 0 0,0 -0.16214863610828473,-0.5299111246591739 l 10.730600825392592 -3.1827351861824593" fill="#ff7f0b" stroke="none" /><path d="M 79.86692584326677 105.97154293290107 l -2.2629901591375297 0.6712111020314789 a23.360434028699725,23.360434028699725 0 0,0 -0.11102587245717353,-0.38649562724951303 l 2.2742086684808074 -0.6321579992773699" fill="#ff0000" stroke="none" /><path d="M 79.4281124754447 104.21870165774334 l -6.944999043670855 1.4242192868101207 a28.089528354799846,28.089528354799846 0 0,0 -0.09305668430120681,-0.4744940284286055 l 6.968485660947728 -1.304461531313561" fill="#ff4506" stroke="none" /><path d="M 79.23777060512086 103.15116336523772 l -41.64761827782384 6.321019119404033 a63.12456991974159,63.12456991974159 0 0,0 -0.15380135829107747,-1.0756863416699698 l 41.75025368713152 -5.603187305753663" fill="#32ff4e" stroke="none" /><path d="M 79.07016306316243 101.71520430193888 l -15.995511296906118 1.3108353338327898 a37.04913302711009,37.04913302711009 0 0,0 -0.04661740919424187,-0.636057510751346 l 16.015705264764694 -1.0353046865846829" fill="#ffc011" stroke="none" /><path d="M 79.04373962182676 101.35467743843564 l -19.367138929097848 1.2519517166155998 a40.40756175823522,40.40756175823522 0 0,0 -0.03889448927958867,-0.6944872339271262 l 19.385819769264966 -0.918392766353036" fill="#ffeb16" stroke="none" /><path d="M 79.0235259727143 100.99374915477108 l -29.961380575385256 1.419404261356521 a50.99498348791394,50.99498348791394 0 0,0 -0.033991476386620235,-0.8771689678085735 l 29.981374184623075 -0.9034580465339506" fill="#95ff23" stroke="none" /><line stroke="#e1ed5e" stroke-width="0.3" x1="15.007084014347285" x2="10.007500721073583" y1="101.09737516637583" y2="101.16192664675087" /><path d="M 14.007167355692545 101.11028546245083 a86.0,86.0 0 0,1 10.666146001902526,-42.60595125391555" fill="none" id="id22" stroke="none" /><text fill="#e1ed5e" style="font-size:6.75px; font-family:Arial;" text-anchor="middle"><textPath startOffset="22.20632615414155" xlink:href="#id22">October</textPath></text><path d="M 79.00175016825051 100.2711162175752 l -18.104555344514516 0.23375465123117706 a39.106064328273035,39.106064328273035 0 0,0 -0.0028970195367792324,-0.6731653142584788 l 18.105896661340797 0.07792014123097717" fill="#ffda14" stroke="none" /><path d="M 79.03285615573316 98.82574320788736 l -11.667983156680798 -0.6534608897498814 a32.6862672431799,32.6862672431799 0 0,0 0.03629640163727448,-0.5614892681609924 l 11.655006164039111 0.8542092221638857" fill="#ff850c" stroke="none" /><path d="M 79.08570108090925 98.10471618934814 l -2.8937101720083445 -0.2622321724932313 a23.905567805416883,23.905567805416883 0 0,0 0.040665504486088945,-0.4094960805720399 l 2.8887675418400267 0.3120037837697018" fill="#ff0801" stroke="none" /><path d="M 79.16333360222342 97.38593545837743 l -3.1696550013986133 -0.39764915318780886 a24.194501162454355,24.194501162454355 0 0,0 0.05539849603289024,-0.4127831423525075 l 3.162340506307889 0.4521506376049763" fill="#ff0c01" stroke="none" /><path d="M 79.21141760316559 97.0276538004421 l -7.49474000215143 -1.0715960105803857 a28.570960686051713,28.570960686051713 0 0,0 0.073800296952176,-0.4862517480478829 l 7.475183811759952 1.20044687102036" fill="#ff4c07" stroke="none" /><path d="M 79.26566170972629 96.67025291283419 l -11.874471397552155 -1.9069326444905355 a33.026614780639974,33.026614780639974 0 0,0 0.09497218032816837,-0.5605311843637429 l 11.839887355703762 2.111049617170107" fill="#ff8a0c" stroke="none" /><path d="M 79.3925641242962 95.95851677861259 l -11.589736686375069 -2.272952668192314 a32.81051693582253,32.81051693582253 0 0,0 0.11346299244154413,-0.5532858467065582 l 11.54889439801853 2.4721141710622745" fill="#ff870c" stroke="none" /><path d="M 79.46518482838121 95.60439243477599 l -27.45353246348328 -5.8766029292240765 a49.07545024948479,49.07545024948479 0 0,0 0.1839292092874623,-0.8245185803420539 l 27.348308867193783 6.3482996791160895" fill="#abff21" stroke="none" /><path d="M 79.62865764111835 94.90015583598534 l -51.93878527236291 -13.002565382824953 a74.54161112726493,74.54161112726493 0 0,0 0.3223167485072747,-1.2420179132750755 l 51.707272191985325 13.894679721648892" fill="#41ffcf" stroke="none" /><path d="M 80.14247586403 93.16781622104843 l -14.404147966658384 -4.955894068846082 a36.23287118920831,36.23287118920831 0 0,0 0.20798861882257494,-0.58801183346005 l 14.316706267026 5.203103528732743" fill="#ffb510" stroke="none" /><path d="M 80.52162464483688 92.15188598940014 l -12.777064882044579 -5.148060866818512 a34.77519211076365,34.77519211076365 0 0,0 0.22848677836435344,-0.5532988572179773 l 12.686556416794025 5.367234294489801" fill="#ffa20e" stroke="none" /><path d="M 81.26839172434947 90.50648371742162 l -16.335854382984273 -8.279305081149243 a39.314121083164494,39.314121083164494 0 0,0 0.3111255270296676,-0.6009954889550404 l 16.190919422794494 8.559273292364619" fill="#ffdd14" stroke="none" /><line stroke="#e1ed5e" stroke-width="0.3" x1="26.266209847984243" x2="21.928928074336255" y1="57.71137044288968" y2="55.22380399835378" /><path d="M 25.398753493254645 57.2138571539825 a86.0,86.0 0 0,1 29.58750427330803,-30.4925239686951" fill="none" id="id23" stroke="none" /><text fill="#e1ed5e" style="font-size:6.75px; font-family:Arial;" text-anchor="middle"><textPath startOffset="21.46611528233685" xlink:href="#id23">November</textPath></text><path d="M 81.78341655067845 89.55222093294921 l -16.327375794613253 -9.364259523274399 a39.8221294427001,39.8221294427001 0 0,0 0.34614973675025396,-0.591682106191939 l 16.163766383392677 9.64392104182023" fill="#ffe415" stroke="none" /><path d="M 81.96595687620814 89.24020034530311 l -21.461527834697844 -12.80476808222779 a45.99118369823946,45.99118369823946 0 0,0 0.4114769921436035,-0.6763599844937995 l 21.23793504426802 13.172295839928664" fill="#cfff1d" stroke="none" /><path d="M 82.34701348167596 88.62581576622439 l -24.476023012700907 -15.770407730590733 a50.11668701118553,50.11668701118553 0 0,0 0.473491396558725,-0.7211598813364399 l 24.20093498078426 16.18938567590484" fill="#9fff22" stroke="none" /><path d="M 84.07557802195018 86.31012108654704 l -26.247602043535302 -22.564492088930677 a55.61347882353367,55.61347882353367 0 0,0 0.6303076407020148,-0.7205505930152647 l 25.855302539255444 23.012958238148883" fill="#63ff29" stroke="none" /><path d="M 85.05521093208273 85.24692304244772 l -13.541182323730148 -13.367475714133874 a40.02769102367549,40.02769102367549 0 0,0 0.48826959248713575,-0.4861728076854261 l 13.3090769310757 13.598584372469412" fill="#ffe615" stroke="none" /><path d="M 85.57189188830299 84.74124197986013 l -14.24924470464909 -15.069597152639194 a41.73966569151493,41.73966569151493 0 0,0 0.5263016384834037,-0.4891400145456809 l 13.98773518237083 15.312641753259518" fill="#fffc17" stroke="none" /><path d="M 86.37877921826538 84.01681056812373 l -11.526532706861884 -13.52527491467837 a38.77059418702663,38.77059418702663 0 0,0 0.5116656174548266,-0.4285052399030032 l 11.292009552447947 13.721681311975185" fill="#ffd614" stroke="none" /><line stroke="#e1ed5e" stroke-width="0.3" x1="56.76296977257108" x2="54.21961505331056" y1="26.818313649435495" y2="22.513508569990535" /><path d="M 56.25429882871898 25.957352633546506 a86.0,86.0 0 0,1 42.26535254187918,-11.944610805530505" fill="none" id="id24" stroke="none" /><text fill="#e1ed5e" style="font-size:6.75px; font-family:Arial;" text-anchor="middle"><textPath startOffset="22.20632615414155" xlink:href="#id24">December</textPath></text><path d="M 90.58718382345135 81.22770947309562 l -4.778577767592974 -9.530075641140721 a31.66101060907443,31.66101060907443 0 0,0 0.4892813170539249,-0.2400882173529294 l 4.613825183528625 9.61091901862848" fill="#ff770b" stroke="none" /><path d="M 96.40284397218896 79.31037775812273 l -6.852418702086222 -39.4127897965027 a61.004045315592876,61.004045315592876 0 0,0 1.0361124414977096,-0.1709674306010944 l 6.172977054449627 39.52490349004342" fill="#30ff34" stroke="none" /></svg>