<?xml version="1.0" encoding="utf-8" ?>
<svg baseProfile="full" height="200mm" version="1.1" viewBox="0,0,200,200" width="200mm" xmlns="http://www.w3.org/2000/svg" xmlns:ev="http://www.w3.org/2001/xml-events" xmlns:xlink="http://www.w3.org/1999/xlink"><defs /><rect fill="#1a1a1a" height="200" width="200" x="0" y="0" /><text alignment-baseline="middle" fill="#e1ed5e" style="dominant-baseline: central; font-size:9.0px; font-family:Arial;" text-anchor="middle" x="100.0" y="100.0">2016</text><line stroke="#e1ed5e" stroke-width="0.3" x1="100.0" x2="100.0" y1="15.0" y2="10.0" /><path d="M 100.0 14.0 a86.0,86.0 0 0,1 42.35913384403234,11.155469271406648" fill="none" id="id25" stroke="none" /><text fill="#e1ed5e" style="font-size:6.75px; font-family:Arial;" text-anchor="middle"><textPath startOffset="22.145653131862478" xlink:href="#id25">January</textPath></text><path d="M 100.72087961077811 79.0123766808444 l 0.9443135046744981 -27.492657352186246 a48.50887013819054,48.50887013819054 0 0,0 0.831983114577885,0.03572893474298647 l -1.4161223798532194 27.472395849017428" fill="#a4ff21" stroke="none" /><path d="M 106.38641147887787 79.99465700312896 l 1.3726365218186645 -4.299764354338048 a25.513546778739148,25.513546778739148 0 0,0 0.4160861739847069,0.13677578991032735 l -1.4462454334511137 4.275567643025699" fill="#ff3b05" stroke="none" /><line stroke="#e1ed5e" stroke-width="0.3" x1="143.13028292997686" x2="145.6673583964461" y1="26.7553504044142" y2="22.446841604673864" /><path d="M 143.63769802327073 25.89364864446614 a86.0,86.0 0 0,1 29.32050498858742,28.57503671076992" fill="none" id="id26" stroke="none" /><text fill="#e1ed5e" style="font-size:6.75px; font-family:Arial;" text-anchor="middle"><textPath startOffset="20.669276256404974" xlink:href="#id26">February</textPath></text><path d="M 117.01052211995028 87.68569379921539 l 5.098409864990934 -3.690855564096159 a27.29413996876908,27.29413996876908 0 0,0 0.27149208276599013,0.38188761429536683 l -5.161017046286885 3.6027907230912883" fill="#ff5407" stroke="none" /><line stroke="#e1ed5e" stroke-width="0.3" x1="172.87174338648825" x2="177.1583165268699" y1="56.24261187166439" y2="53.66864786411523" /><path d="M 173.72905801456457 55.72781907015455 a86.0,86.0 0 0,1 12.242430191666344,42.057860355516425" fill="none" id="id27" stroke="none" /><text fill="#e1ed5e" style="font-size:6.75px; font-family:Arial;" text-anchor="middle"><textPath startOffset="22.145653131862474" xlink:href="#id27">March</textPath></text><path d="M 118.00360718960297 89.18935116829356 l 1.0147879697530076 -0.6093510186100675 a22.18368208883828,22.18368208883828 0 0,0 0.1932370790558053,0.32815880589736995 l -1.0250987589385807 0.591841044419141" fill="#ff0c01" stroke="none" /><path d="M 120.05942366710727 93.78553927170692 l 2.175047819674194 -0.6738353744274841 a23.277034722989374,23.277034722989374 0 0,0 0.11497046194627641,0.38269927570291673 l -2.186294601624098 0.6363984951338438" fill="#ff1c02" stroke="none" /><line stroke="#e1ed5e" stroke-width="0.3" x1="184.99686870605535" x2="189.99668451229388" y1="99.2704041080226" y2="99.22748670261217" /><path d="M 185.99683186730306 99.26182062694052 a86.0,86.0 0 0,1 -10.086455211305974,41.156179273409016" fill="none" id="id28" stroke="none" /><text fill="#e1ed5e" style="font-size:6.75px; font-family:Arial;" text-anchor="middle"><textPath startOffset="21.40746469413373" xlink:href="#id28">April</textPath></text><path d="M 120.98066250479742 100.90099992219065 l 9.370082934608691 0.4023916781975721 a30.37871916970157,30.37871916970157 0 0,0 -0.026846702006419403,0.5208188467704566 l -9.361794643145698 -0.5631823183447594" fill="#ff7e0b" stroke="none" /><path d="M 120.26092885502905 105.52220625578681 l 5.709567296827818 1.556167956068425 a26.917838915051668,26.917838915051668 0 0,0 -0.12533651805749102,0.4447750861513413 l -5.682012286695747 -1.6539509661227747" fill="#ff4f07" stroke="none" /><path d="M 119.0197475246899 108.90220220490707 l 8.214959364178972 3.845015780050865 a30.070264808921067,30.070264808921067 0 0,0 -0.22283604394791628,0.46564162740251475 l -8.147744062271142 -3.985469909518483" fill="#ff7a0b" stroke="none" /><line stroke="#e1ed5e" stroke-width="0.3" x1="174.33088141563837" x2="178.70328620479359" y1="141.23008692659167" y2="143.65538615756765" /><path d="M 175.20536237346943 141.71514677278685 a86.0,86.0 0 0,1 -30.301960400862466,31.63118572779886" fill="none" id="id29" stroke="none" /><text fill="#e1ed5e" style="font-size:6.75px; font-family:Arial;" text-anchor="middle"><textPath startOffset="22.145653131862474" xlink:href="#id29">May</textPath></text><path d="M 118.00360718960297 110.81064883170644 l 0.49521720482465204 0.29736370275120494 a21.577637647377877,21.577637647377877 0 0,0 -0.19340965031474433,0.31592012848962525 l -0.49003959005450304 -0.30582094736538723" fill="#ff0400" stroke="none" /><path d="M 117.423217284605 111.72311816256415 l 1.9375191862363945 1.3036493772337947 a23.33526921270251,23.33526921270251 0 0,0 -0.2264746361774405,0.3304332624593896 l -1.9148548132436336 -1.336717374763226" fill="#ff1d02" stroke="none" /><path d="M 116.57777611688842 112.89097897827484 l 1.436803399162853 1.117267013616701 a22.820079555283755,22.820079555283755 0 0,0 -0.24312465961653137,0.3071800651694792 l -1.41741230890476 -1.1417670227008607" fill="#ff1502" stroke="none" /><path d="M 115.89218393027572 113.72728997021213 l 2.081602652757467 1.7980387933169844 a23.750638672424955,23.750638672424955 0 0,0 -0.26916139180735654,0.3062562546015698 l -2.050430196991525 -1.8335073257298473" fill="#ff2303" stroke="none" /><path d="M 115.41159269507618 114.26474011684316 l 2.07902539962996 1.9243148718504826 a23.832902105320876,23.832902105320876 0 0,0 -0.28048393906975533,0.2978642234213473 l -2.0456856268239445 -1.9597205552163246" fill="#ff2403" stroke="none" /><path d="M 114.65682725009322 115.03919595460226 l 4.075417838622243 4.181737727142258 a26.839174682946666,26.839174682946666 0 0,0 -0.33271312507800743,0.31873164754935596 l -4.003032227678923 -4.251081504997195" fill="#ff4e07" stroke="none" /><path d="M 113.86319453409587 115.77377054828091 l 2.0856696491602613 2.37310919964762 a24.15937733721068,24.15937733721068 0 0,0 -0.3138654235115855,0.27110947740536295 l -2.0446247458858204 -2.4085628095177007" fill="#ff2803" stroke="none" /><path d="M 113.03279911837588 116.46651593811092 l 11.448106471585437 14.464308546715653 a39.44655424515234,39.44655424515234 0 0,0 -0.5345760503132039,0.4156895700778833 l -11.198120476637003 -14.65869916841433" fill="#fff116" stroke="none" /><path d="M 111.27062007382361 117.71928675628689 l 2.8258276694967495 4.442670453949193 a26.265227704485966,26.265227704485966 0 0,0 -0.38251660940657056,0.23871865507581044 l -2.749146931300464 -4.49052490586655" fill="#ff4606" stroke="none" /><line stroke="#e1ed5e" stroke-width="0.3" x1="143.1302829299769" x2="145.6673583964461" y1="173.24464959558577" y2="177.55315839532614" /><path d="M 143.63769802327073 174.10635135553383 a86.0,86.0 0 0,1 -40.685524379131806,11.842963189579606" fill="none" id="id30" stroke="none" /><text fill="#e1ed5e" style="font-size:6.75px; font-family:Arial;" text-anchor="middle"><textPath startOffset="21.407464694133747" xlink:href="#id30">June</textPath></text><path d="M 110.65571695917076 118.09573695890943 l 3.1483107026157215 5.3465198595033785 a27.204605941417128,27.204605941417128 0 0,0 -0.40445156589524367,0.23351022044378725 l -3.056066668860077 -5.399776977223337" fill="#ff5307" stroke="none" /><path d="M 109.3889696526874 118.78422872680471 l 5.700338157468202 11.404494820085704 a33.74975910403211,33.74975910403211 0 0,0 -0.5204530274149982,0.2545796559424675 l -5.503724880791134 -11.500668226125395" fill="#ffaa0f" stroke="none" /><path d="M 109.06512990194946 118.94263497670748 l 4.712633021820095 9.847590500861829 a31.917140132425402,31.917140132425402 0 0,0 -0.49625268924674204,0.23227131583469568 l -4.542891618701847 -9.927038048267057" fill="#ff920d" stroke="none" /><path d="M 108.73861861582097 119.09545874513695 l 0.7474998431117544 1.6334220594424997 a22.79633617113431,22.79633617113431 0 0,0 -0.35723660466275126,0.1597873893994798 l -0.7193498355933763 -1.6460131997518297" fill="#ff1502" stroke="none" /><path d="M 106.38641147887787 120.00534299687104 l 0.8802967706139474 2.757517096011513 a23.89461965362448,23.89461965362448 0 0,0 -0.39182552865216064,0.12138855036719416 l -0.8328306090901624 -2.7722222341853513" fill="#ff2503" stroke="none" /><path d="M 104.9986988182912 120.39639698878246 l 1.8403339894302282 7.509190692389105 a28.731414750698306,28.731414750698306 0 0,0 -0.48004426731351424,0.11328913999321669 l -1.7111575683768354 -7.539675976028547" fill="#ff6809" stroke="none" /><path d="M 103.58742460773223 120.69131181640829 l 0.3356681514880104 1.9360446974427978 a22.96492803390347,22.96492803390347 0 0,0 -0.38900674011555375,0.06401091105158666 l -0.30238390831938383 -1.9415216069900552" fill="#ff1702" stroke="none" /><path d="M 101.08105385017728 120.97215588758144 l 0.3035330417358525 5.88845992017155 a26.89627785462084,26.89627785462084 0 0,0 -0.4613022104265151,0.019810301776961282 l -0.20240507070850794 -5.892802790374342" fill="#ff4f07" stroke="none" /><path d="M 100.72087961077811 120.9876233191556 l 0.41513597114051093 12.08623084667975 a33.09335825789379,33.09335825789379 0 0,0 -0.5679240813729488,0.01462770977076139 l -0.20759857569681825 -12.091576273800557" fill="#ffa10e" stroke="none" /><line stroke="#e1ed5e" stroke-width="0.3" x1="101.45913802915013" x2="101.54496967792366" y1="184.9874750549273" y2="189.98673829345242" /><path d="M 101.47630435890484 185.9873277026323 a86.0,86.0 0 0,1 -42.54439059252881,-10.42667462771756" fill="none" id="id31" stroke="none" /><text fill="#e1ed5e" style="font-size:6.75px; font-family:Arial;" text-anchor="middle"><textPath startOffset="22.145653131862474" xlink:href="#id31">July</textPath></text><path d="M 99.63950707515114 120.99690560180557 l -0.0841856647944235 4.90339292360566 a25.904115556287692,25.904115556287692 0 0,0 -0.4445475408218575,-0.011449967732880744 l 0.168346519687025 -4.9012252385227315" fill="#ff4106" stroke="none" /><path d="M 98.91894614982273 120.97215588758144 l -0.16283378499681875 3.1589319275429513 a24.16312594823327,24.16312594823327 0 0,0 -0.4140589210765133,-0.024908756492958102 l 0.2170370582057784 -3.1556711932253014" fill="#ff2803" stroke="none" /><path d="M 98.19965949673042 120.92268563240118 l -0.5013970413807012 5.8269936463533485 a26.848525792688925,26.848525792688925 0 0,0 -0.4588546490221302,-0.04345401233177584 l 0.6013512537878466 -5.8175278785163895" fill="#ff4e07" stroke="none" /><path d="M 97.48249496171623 120.84855314841334 l -0.17435622969206263 1.4439197007407103 a22.454408538554272,22.454408538554272 0 0,0 -0.3822832880408519,-0.049494225214945384 l 0.19911733962370792 -1.440713879325368" fill="#ff1001" stroke="none" /><path d="M 96.41257539226777 120.69131181640829 l -0.9790858233051015 5.647106846891212 a26.731354533581275,26.731354533581275 0 0,0 -0.4514610941997028,-0.08227125032349605 l 1.0758816510558615 -5.62946742263635" fill="#ff4c07" stroke="none" /><path d="M 96.05791012581884 120.62667999033965 l -1.6412676481718236 8.58780586892873 a29.74323562163014,29.74323562163014 0 0,0 -0.5006827773298589,-0.10015057790495893 l 1.788446911032641 -8.558365894360909" fill="#ff750a" stroke="none" /><path d="M 95.00130118170881 120.39639698878247 l -14.996096454873564 61.18919096634739 a84.0,84.0 0 0,0 -1.3975788270984852,-0.35525907265894796 l 16.044280575197426 -60.922746661853175" fill="#4dd2ff" stroke="none" /><path d="M 92.59220618246901 119.65005319985036 l -1.2176748115688942 3.2300271061568924 a24.4519280197069,24.4519280197069 0 0,0 -0.39149602074938694,-0.1514390711182695 l 1.2729430948118106 -3.208648146900582" fill="#ff2d04" stroke="none" /><path d="M 92.25597844496254 119.51999308798841 l -1.3818918260572708 3.483270120217933 a24.747371845617533,24.747371845617533 0 0,0 -0.39353687738596477,-0.16004802203836782 l 1.4414831646336765 -3.4590348416002743" fill="#ff3104" stroke="none" /><path d="M 91.92203290615298 119.3841803445677 l -0.7032365707607011 1.68751176554111 a22.82817877498207,22.82817877498207 0 0,0 -0.3604296847391852,-0.15384599994129036 l 0.7321013306703176 -1.6751911159404158" fill="#ff1602" stroke="none" /><path d="M 90.93487009805054 118.94263497670748 l -2.0416847596087937 4.2663358999918 a25.729703866964364,25.729703866964364 0 0,0 -0.3967762327065956,-0.19408313812737393 l 2.1146212415774586 -4.230659011767205" fill="#ff3e05" stroke="none" /><line stroke="#e1ed5e" stroke-width="0.3" x1="58.13341422392154" x2="55.670673884152215" y1="173.97424548756322" y2="178.32567169271397" /><path d="M 57.64086615596767 174.84453072859336 a86.0,86.0 0 0,1 -31.369924170532244,-30.572349798747886" fill="none" id="id32" stroke="none" /><text fill="#e1ed5e" style="font-size:6.75px; font-family:Arial;" text-anchor="middle"><textPath startOffset="22.145653131862474" xlink:href="#id32">August</textPath></text><path d="M 89.65649057296885 118.27599006163327 l -4.28637547766201 7.5736147564632095 a29.70245110384537,29.70245110384537 0 0,0 -0.44158709322041306,-0.25495042714147276 l 4.415755038742824 -7.498917432045564" fill="#ff750a" stroke="none" /><path d="M 88.4268655584334 117.5232005979908 l -1.878903436364612 2.844899278229979 a24.409359181203442,24.409359181203442 0 0,0 -0.34766333029863733,-0.2339234043463807 l 1.927463054760255 -2.812226199826477" fill="#ff2c04" stroke="none" /><path d="M 88.1277618465304 117.32195027204791 l -0.6159164622838476 0.8986405253586128 a22.089453019789772,22.089453019789772 0 0,0 -0.31094051171125464,-0.2170606260315556 l 0.6312520651688676 -0.8879350835219283" fill="#ff0b01" stroke="none" /><path d="M 87.83215693770417 117.11559508785305 l -1.162073393579852 1.6346017585081567 a23.0055765956413,23.0055765956413 0 0,0 -0.3199078682487543,-0.23158862602078245 l 1.1899622722025578 -1.6144123611143089" fill="#ff1802" stroke="none" /><path d="M 86.40962598614128 116.0094264158162 l -0.38679126904501326 0.45563914236221376 a21.59767425397287,21.59767425397287 0 0,0 -0.2805851774229099,-0.24236279347925033 l 0.39455592623078567 -0.44893221641823877" fill="#ff0400" stroke="none" /><path d="M 86.13680546590413 115.77377054828092 l -0.37977575206094544 0.43211509137211074 a21.57528521104317,21.57528521104317 0 0,0 -0.27609684249846705,-0.24688749905974894 l 0.3871376213827834 -0.42553206242898417" fill="#ff0400" stroke="none" /><path d="M 85.86807049272751 115.53346607816431 l -2.9195806111556526 3.2091305269046355 a25.338487027034567,25.338487027034567 0 0,0 -0.31922901463336234,-0.2954736101321755 l 2.9742393971029824 -3.15853917064008" fill="#ff3905" stroke="none" /><path d="M 84.3458050057657 113.99807769240083 l -0.5475908687606938 0.48965913145867174 a21.73458956198067,21.73458956198067 0 0,0 -0.24631389738821238,-0.28026000000928747 l 0.5559158301074988 -0.4801868536380841" fill="#ff0600" stroke="none" /><path d="M 83.4222238831116 112.89097897827486 l -1.0092333489673224 0.7847859564503288 a22.2784525607583,22.2784525607583 0 0,0 -0.2321712043108592,-0.30391955923869923 l 1.022556530632479 -0.7673454839707616" fill="#ff0e01" stroke="none" /><path d="M 82.78059297857968 112.02048342749411 l -3.0549624557393074 2.1326010544468836 a24.725692266331816,24.725692266331816 0 0,0 -0.23996904039163944,-0.3501220014930548 l 3.091121232946269 -2.079844317883778" fill="#ff3004" stroke="none" /><line stroke="#e1ed5e" stroke-width="0.3" x1="26.387840678322732" x2="22.057713659400548" y1="142.50000000000003" y2="145.00000000000006" /><path d="M 25.521815274538298 143.00000000000003 a86.0,86.0 0 0,1 -11.493303480769221,-40.785679425670985" fill="none" id="id33" stroke="none" /><text fill="#e1ed5e" style="font-size:6.75px; font-family:Arial;" text-anchor="middle"><textPath startOffset="21.40746469413373" xlink:href="#id33">September</textPath></text><path d="M 81.81346652052679 110.50000000000001 l -0.41943861388129705 0.24216299663289065 a21.48432599326578,21.48432599326578 0 0,0 -0.18166187959085422,-0.32097913473193357 l 0.4235338584935296 -0.23492709180183555" fill="#ff0200" stroke="none" /><path d="M 81.63589988554817 110.18625677009913 l -0.6211733736071344 0.3445543992287185 a21.710333790626866,21.710333790626866 0 0,0 -0.17797785349808873,-0.32745920437306825 l 0.6269965767205529 -0.33384036138106443" fill="#ff0500" stroke="none" /><path d="M 80.68587082218212 108.24405325689762 l -0.5118715582064196 0.21848753043401042 a21.556551249262654,21.556551249262654 0 0,0 -0.14234935900940315,-0.3415866411579784 l 0.5155467617523083 -0.20966837983475073" fill="#ff0300" stroke="none" /><path d="M 80.28708602549918 107.23885506374661 l -0.310500689674998 0.1140201541313523 a21.3307737502233,21.3307737502233 0 0,0 -0.12327138453134376,-0.344812001978488 l 0.31241224425028497 -0.10867319577194282" fill="#ff0000" stroke="none" /><path d="M 80.05021161711548 106.5578916946017 l -2.1256403591734774 0.6987402066426517 a23.237539901974078,23.237539901974078 0 0,0 -0.12131687103763121,-0.38002337062713337 l 2.137321945988366 -0.6621478023241266" fill="#ff1b02" stroke="none" /><path d="M 79.73907114497094 105.5222062557868 l -7.160537649070687 1.9516363777507744 a28.421737261229268,28.421737261229268 0 0,0 -0.12425783116118744,-0.4718272242313533 l 7.192984961036607 -1.8284286491466166" fill="#ff6309" stroke="none" /><path d="M 79.17382384314188 102.69636545807758 l -2.1605248552679224 0.2797231977289367 a23.178557485488547,23.178557485488547 0 0,0 -0.04770137609682502,-0.39503582304051554 l 2.165008317624409 -0.24259369776502193" fill="#ff1b02" stroke="none" /><path d="M 79.13060592940153 102.33845913500099 l -5.693716068245683 0.6379927614021604 a26.729348778823002,26.729348778823002 0 0,0 -0.047180619512098544,-0.4564296949718184 l 5.703829080239448 -0.5401585441474109" fill="#ff4c07" stroke="none" /><path d="M 79.0935383218832 101.97986365728391 l -2.0266298509174496 0.19192395396099393 a23.035697265492516,23.035697265492516 0 0,0 -0.033902378624187254,-0.3939970293709963 l 2.029625852239378 -0.15710587721433536" fill="#ff1802" stroke="none" /><path d="M 79.03789590574601 101.26102812881392 l -8.056504944298867 0.48465933138239387 a29.0710697299062,29.0710697299062 0 0,0 -0.02569108795162868,-0.4984002428322924 l 8.06363762170707 -0.34628729517337087" fill="#ff6c0a" stroke="none" /><line stroke="#e1ed5e" stroke-width="0.3" x1="15.003131293944662" x2="10.003315487706104" y1="100.72959589197737" y2="100.7725132973878" /><path d="M 14.003168132696942 100.73817937305945 a86.0,86.0 0 0,1 10.791469493833604,-42.453326145846276" fill="none" id="id34" stroke="none" /><text fill="#e1ed5e" style="font-size:6.75px; font-family:Arial;" text-anchor="middle"><textPath startOffset="22.145653131862435" xlink:href="#id34">October</textPath></text><path d="M 79.17382384314186 97.30363454192245 l -1.3688905416365316 -0.17723028675825117 a22.38031586585331,22.38031586585331 0 0,0 0.05259958615268293,-0.38058440294627416 l 1.365646438928641 0.20070299790459234" fill="#ff0f01" stroke="none" /><path d="M 79.56144815229197 95.17655741523228 l -2.7668312188583877 -0.6529646339597627 a23.842836225823007,23.842836225823007 0 0,0 0.09742917863831817,-0.39754429663307195 l 2.755214513703771 0.7003647552009516" fill="#ff2403" stroke="none" /><path d="M 79.73907114497095 94.47779374421319 l -2.46062951908485 -0.6706555173600194 a23.55038751039076,23.55038751039076 0 0,0 0.10965678109494943,-0.38913323119614474 l 2.448754245915319 0.7127966724591772" fill="#ff2003" stroke="none" /><path d="M 79.83685265289637 94.1308016681162 l -2.563246432019809 -0.7461236792071952 a23.669631588054045,23.669631588054045 0 0,0 0.11690958535577867,-0.38915398686744046 l 2.550060526660403 0.7900152696653592" fill="#ff2103" stroke="none" /><path d="M 80.41425534168474 92.42381321644754 l -2.5816854820470247 -0.9986514053766072 a23.768104867535378,23.768104867535378 0 0,0 0.1504649216492426,-0.3792698935177141 l 2.5641618854316506 1.0428223161079042" fill="#ff2303" stroke="none" /><path d="M 81.29705330413844 90.45014215332179 l -2.4532410349772626 -1.252642352493823 a23.754542509920217,23.754542509920217 0 0,0 0.18855669340931114,-0.36158232174429417 l 2.4313762725930137 1.2945709173426039" fill="#ff2303" stroke="none" /><line stroke="#e1ed5e" stroke-width="0.3" x1="26.387840678322718" x2="22.05771365940052" y1="57.5" y2="55.0" /><path d="M 25.521815274538284 57.0 a86.0,86.0 0 0,1 29.574782752854787,-30.346332500585742" fill="none" id="id35" stroke="none" /><text fill="#e1ed5e" style="font-size:6.75px; font-family:Arial;" text-anchor="middle"><textPath startOffset="21.40746469413373" xlink:href="#id35">November</textPath></text><path d="M 82.37810715431573 88.57770195909679 l -1.7140707144837057 -1.1110399283134753 a23.042657126528457,23.042657126528457 0 0,0 0.21800061111287414,-0.33008071048540916 l 1.6947456644501049 1.1403005171379454" fill="#ff1902" stroke="none" /><path d="M 82.98947788004972 87.6856937992154 l -0.5136443912811328 -0.37183892816159897 a21.634109414210933,21.634109414210933 0 0,0 0.22035677675249582,-0.2989562884091 l 0.5071855949448183 0.38060152583956225" fill="#ff0400" stroke="none" /><path d="M 84.10781606972428 86.27271002978789 l -2.646960041645884 -2.286381040557677 a24.49770435066939,24.49770435066939 0 0,0 0.2776277425653699,-0.31588940761761747 l 2.6073212351219217 2.3314827259865947" fill="#ff2d04" stroke="none" /><path d="M 85.34317274990677 84.96080404539775 l -1.6808499857692591 -1.7247001602010077 a23.408287216520883,23.408287216520883 0 0,0 0.29018196291561654,-0.277987756291597 l 1.6509955369883422 1.7533000467981732" fill="#ff1e03" stroke="none" /><path d="M 85.86807049272753 84.46653392183569 l -3.9813601606294413 -4.376212248176466 a26.916287887665458,26.916287887665458 0 0,0 0.34444513826217327,-0.30800496658815624 l 3.905649995543876 4.443912744648023" fill="#ff4f07" stroke="none" /><path d="M 86.13680546590413 84.22622945171909 l -3.9293614232028258 -4.470891996677167 a26.95220601458875,26.95220601458875 0 0,0 0.35014832697328496,-0.30244978525513116 l 3.8520336164666924 4.537685914397009" fill="#ff4f07" stroke="none" /><path d="M 87.25179093698888 83.31218511350988 l -6.218814606290865 -8.140627946265452 a31.244192426293772,31.244192426293772 0 0,0 0.4290080714294818,-0.3219356547405766 l 6.07815354595063 8.246182628270033" fill="#ff890c" stroke="none" /><path d="M 87.54013794807813 83.09580414077388 l -1.160725677381085 -1.5747473051883665 a22.95630089028498,22.95630089028498 0 0,0 0.31922265673962863,-0.23109258573018043 l 1.1335220102674886 1.594440662291624" fill="#ff1702" stroke="none" /><path d="M 87.83215693770416 82.88440491214696 l -1.1227769657445792 -1.579326411531361 a22.93775644211731,22.93775644211731 0 0,0 0.3228815905595458,-0.2253964264585812 l 1.095500284011268 1.598367653795071" fill="#ff1702" stroke="none" /><path d="M 88.12776184653039 82.6780497279521 l -4.106277828444109 -5.991182069299603 a28.263317437085394,28.263317437085394 0 0,0 0.40255538838692034,-0.270857230782896 l 4.0028261519602 6.060788974139608" fill="#ff6109" stroke="none" /><line stroke="#e1ed5e" stroke-width="0.3" x1="56.869717070023135" x2="54.33264160355391" y1="26.7553504044142" y2="22.446841604673864" /><path d="M 56.362301976729285 25.89364864446614 a86.0,86.0 0 0,1 42.16139366436587,-11.88097634709845" fill="none" id="id36" stroke="none" /><text fill="#e1ed5e" style="font-size:6.75px; font-family:Arial;" text-anchor="middle"><textPath startOffset="22.145653131862474" xlink:href="#id36">December</textPath></text><path d="M 89.34428304082924 81.90426304109057 l -0.9387261893147972 -1.594162294603773 a22.850016291831466,22.850016291831466 0 0,0 0.3397117712296363,-0.19613268256631403 l 0.9112219502247613 1.610041874446261" fill="#ff1602" stroke="none" /><path d="M 89.97174638481275 81.54914285379989 l -1.977847602863351 -3.639016819650366 a25.141777945985343,25.141777945985343 0 0,0 0.3809711873058713,-0.20284569895291255 l 1.9150875997709176 3.672432986325854" fill="#ff3605" stroke="none" /><path d="M 90.28995756902619 81.37971332152246 l -13.189636707037739 -25.292867504532875 a49.525351234743674,49.525351234743674 0 0,0 0.7572020055499941,-0.3866327393117248 l 12.753507479774163 25.515558195517436" fill="#99ff23" stroke="none" /><path d="M 99.27912038922189 79.0123766808444 l -0.4426312240587362 -12.886725135441393 a33.894324608793156,33.894324608793156 0 0,0 0.5816696817892092,-0.01498174767848286 l 0.22134822819878303 12.892424600469921" fill="#ffac0f" stroke="none" /></svg>