<?xml version="1.0" encoding="utf-8" ?>
<svg baseProfile="full" height="200mm" version="1.1" viewBox="0,0,200,200" width="200mm" xmlns="http://www.w3.org/2000/svg" xmlns:ev="http://www.w3.org/2001/xml-events" xmlns:xlink="http://www.w3.org/1999/xlink"><defs /><rect fill="#1a1a1a" height="200" width="200" x="0" y="0" /><text alignment-baseline="middle" fill="#e1ed5e" style="dominant-baseline: central; font-size:9.0px; font-family:Arial;" text-anchor="middle" x="100.0" y="100.0">2021</text><line stroke="#e1ed5e" stroke-width="0.3" x1="100.0" x2="100.0" y1="15.0" y2="10.0" /><path d="M 100.0 14.0 a86.0,86.0 0 0,1 42.46469731375804,11.215312516191453" fill="none" id="id109" stroke="none" /><text fill="#e1ed5e" style="font-size:6.75px; font-family:Arial;" text-anchor="middle"><textPath startOffset="22.20632615414155" xlink:href="#id109">January</textPath></text><path d="M 100.0 79.0 l 0.0 -3.2198143551479532 a24.219814355147953,24.219814355147953 0 0,0 0.41690429052335926,0.0035884268499164593 l -0.05542381125083091 3.2193373049065954" fill="#ff0200" stroke="none" /><path d="M 100.36148047927253 79.00311137660856 l 0.49240032310113807 -28.601474588844514 a49.605712833881775,49.605712833881775 0 0,0 0.853627779063666,0.02204668708595412 l -0.9846547373596719 28.5887611096162" fill="#aaff21" stroke="none" /><path d="M 102.52436894288641 79.15227682838746 l 0.3748998134395991 -3.096143117155142 a24.1187580977088,24.1187580977088 0 0,0 0.4117247402243202,0.053453687860282095 l -0.4281392821717654 3.089231106130723" fill="#ff0000" stroke="none" /><path d="M 108.76106565485865 80.91482961587045 l 5.125419901591797 -11.165252717612033 a33.28547098876458,33.28547098876458 0 0,0 0.5186538740323279,0.24351494824735834 l -5.316851986923723 11.075372786724671" fill="#ff850c" stroke="none" /><path d="M 110.05341064243156 81.56283822128135 l 8.3438159069431 -15.301899942182066 a38.42892439967275,38.42892439967275 0 0,0 0.5780367381299298,0.3216768189422084 l -8.605976734145063 15.156007725679677" fill="#ffca12" stroke="none" /><path d="M 110.36928655335952 81.73862282372117 l 16.319880330010626 -28.740983156792204 a54.05121188103215,54.05121188103215 0 0,0 0.8051140805045583,0.46637404194631366 l -16.812191142980513 28.45580495745584" fill="#77ff26" stroke="none" /><line stroke="#e1ed5e" stroke-width="0.3" x1="143.23703022742887" x2="145.7803849466894" y1="26.81831364943548" y2="22.513508569990506" /><path d="M 143.74570117128098 25.957352633546492 a86.0,86.0 0 0,1 28.547481713284135,27.462654790039103" fill="none" id="id110" stroke="none" /><text fill="#e1ed5e" style="font-size:6.75px; font-family:Arial;" text-anchor="middle"><textPath startOffset="19.985693538727396" xlink:href="#id110">February</textPath></text><path d="M 114.94478906791727 85.2469230424477 l 17.828025769946308 -17.599327430447175 a46.05144364818044,46.05144364818044 0 0,0 0.5520378130623564,0.5689234918544891 l -18.128327846711773 17.289839743042574" fill="#d4ff1c" stroke="none" /><path d="M 115.68641384162765 86.03803664274999 l 6.597054306471458 -5.871822038018194 a29.83172800581459,29.83172800581459 0 0,0 0.33810447566268786,0.3865118629508099 l -6.697150645711995 5.757394618864436" fill="#ff5407" stroke="none" /><line stroke="#e1ed5e" stroke-width="0.3" x1="172.23445277983987" x2="176.4835382374775" y1="55.19839476539836" y2="52.563006222186495" /><path d="M 173.08426987136738 54.67131705675599 a86.0,86.0 0 0,1 12.851231095245387,41.99856678651699" fill="none" id="id111" stroke="none" /><text fill="#e1ed5e" style="font-size:6.75px; font-family:Arial;" text-anchor="middle"><textPath startOffset="22.20632615414155" xlink:href="#id111">March</textPath></text><path d="M 118.03404312379186 89.2402003453031 l 9.91588158760174 -5.916194086368535 a32.5466904404215,32.5466904404215 0 0,0 0.2829087365670489,0.48358273700743687 l -10.016249998639116 5.7446319370072025" fill="#ff7b0b" stroke="none" /><path d="M 118.89224826269711 90.83032412892265 l 12.514627062717592 -6.074188324060815 a34.91084664264042,34.91084664264042 0 0,0 0.2577447960946873,0.5428762736935338 l -12.617330052654037 5.857869634726741" fill="#ff9b0e" stroke="none" /><path d="M 120.28053869075195 94.5502522615342 l 4.906402201123011 -1.318439056639394 a26.08045904473768,26.08045904473768 0 0,0 0.11277149275088204,0.4345545639562156 l -4.928370025744195 1.233788067134328" fill="#ff1d03" stroke="none" /><path d="M 120.45610955862082 95.25157060432595 l 27.85180432191643 -6.465174914406657 a49.592332725054035,49.592332725054035 0 0,0 0.18586642605353762,0.8332027432543234 l -27.958965134972004 5.984794001602371" fill="#aaff21" stroke="none" /><path d="M 120.53481517161879 95.60439243477599 l 10.557242671990926 -2.2598448230031436 a31.796400856737407,31.796400856737407 0 0,0 0.10995604845644125,0.5361847423693936 l -10.594578016362364 2.077784424470338" fill="#ff700a" stroke="none" /><path d="M 120.87857604477298 97.74499172005257 l 13.784985851743341 -1.4888590662494767 a34.865155471610024,34.865155471610024 0 0,0 0.05930874128485153,0.5972309309015372 l -13.808571718710422 1.2513526046435046" fill="#ff9b0e" stroke="none" /><line stroke="#e1ed5e" stroke-width="0.3" x1="184.98032266829074" x2="189.97916517819016" y1="98.17113171792111" y2="98.06355123074" /><path d="M 185.9800911702706 98.14961562048488 a86.0,86.0 0 0,1 -9.607161424134198,41.387399972396054" fill="none" id="id112" stroke="none" /><text fill="#e1ed5e" style="font-size:6.75px; font-family:Arial;" text-anchor="middle"><textPath startOffset="21.466115282336823" xlink:href="#id112">April</textPath></text><path d="M 120.9904718944345 100.63252640178507 l 11.15392723370713 0.33611218911090346 a32.15899028310817,32.15899028310817 0 0,0 -0.0214360606486855,0.5531694763482932 l -11.146489040207241 -0.5280589124732028" fill="#ff750a" stroke="none" /><path d="M 120.9764740272857 100.99374915477107 l 23.44512108965167 1.1106999792262686 a44.471415750914616,44.471415750914616 0 0,0 -0.04280617112018051,0.7643329409100683 l -23.422528567643962 -1.5141046364717603" fill="#e7ff1a" stroke="none" /><path d="M 120.95626037817324 101.35467743843564 l 4.8500254688774245 0.3135206358368036 a25.8601483761152,25.8601483761152 0 0,0 -0.03253876731180015,0.44396562779852156 l -4.843910142901287 -0.39695940013209546" fill="#ff1a02" stroke="none" /><path d="M 120.5718875245553 104.21870165774334 l 12.562239301394683 2.576153486280928 a33.823666521334005,33.823666521334005 0 0,0 -0.12187144005717189,0.5693427948555976 l -12.51603382261307 -2.7920101005526945" fill="#ff8c0c" stroke="none" /><path d="M 120.32669344350535 105.2749913415812 l 14.250685900075593 3.69820329821084 a35.72272923942809,35.72272923942809 0 0,0 -0.15958180706059955,0.5938632699618713 l -14.184916016673217 -3.9429575013482596" fill="#ffa60f" stroke="none" /><path d="M 118.64920377521936 109.65438752849418 l 12.570432671471824 6.507507230549629 a35.15497890862653,35.15497890862653 0 0,0 -0.2828259766675828,0.5350001621028894 l -12.456554186579348 -6.722922407738652" fill="#ff9f0e" stroke="none" /><line stroke="#e1ed5e" stroke-width="0.3" x1="174.80103733775053" x2="179.2010983576182" y1="140.37084112569926" y2="142.7455964860345" /><path d="M 175.68104954172406 140.8457921977663 a86.0,86.0 0 0,1 -30.038265399797805,32.042727171017184" fill="none" id="id113" stroke="none" /><text fill="#e1ed5e" style="font-size:6.75px; font-family:Arial;" text-anchor="middle"><textPath startOffset="22.206326154141568" xlink:href="#id113">May</textPath></text><path d="M 118.48025628344425 109.97397251340804 l 31.219471018426734 16.849449544695045 a56.476179622806214,56.476179622806214 0 0,0 -0.4690846681081595,0.8515249274686465 l -30.924809940867064 -17.384344990561495" fill="#5dff2a" stroke="none" /><path d="M 116.71984013943494 112.70617746262583 l 6.132687859902196 4.660512278883655 a28.702612224993356,28.702612224993356 0 0,0 -0.3023248643905647,0.3907956410266465 l -6.051556178293564 -4.765385914023554" fill="#ff4406" stroke="none" /><path d="M 116.0416608686014 113.55231037782055 l 6.298606349240693 5.3211864339869495 a29.245451291951333,29.245451291951333 0 0,0 -0.3281861741872037,0.38175466402285424 l -6.20607766548271 -5.428818197171331" fill="#ff4c07" stroke="none" /><path d="M 111.1453310114006 117.79835938074945 l 4.006438871072759 6.398018936487021 a28.548920369118306,28.548920369118306 0 0,0 -0.41874577586498235,0.25722785683025806 l -3.8957138952754677 -6.466035260145657" fill="#ff4206" stroke="none" /><line stroke="#e1ed5e" stroke-width="0.3" x1="143.8653032363475" x2="146.44561519142675" y1="172.8068346515853" y2="177.08958963109032" /><path d="M 144.38136562736335 173.6633856474863 a86.0,86.0 0 0,1 -40.68145358897372,12.25698825130547" fill="none" id="id114" stroke="none" /><text fill="#e1ed5e" style="font-size:6.75px; font-family:Arial;" text-anchor="middle"><textPath startOffset="21.466115282336833" xlink:href="#id114">June</textPath></text><path d="M 104.83641907484287 120.43548508189849 l 2.294748299915872 9.696077598727593 a30.963924455781157,30.963924455781157 0 0,0 -0.5197218793516404,0.11828700767126595 l -2.1275062711713697 -9.734141339976544" fill="#ff6409" stroke="none" /><line stroke="#e1ed5e" stroke-width="0.3" x1="102.19456741930631" x2="102.32365962044197" y1="184.97166512339345" y2="189.96999836594603" /><path d="M 102.22038585953345 185.97133177190398 a86.0,86.0 0 0,1 -42.740103519485714,-10.115201625700543" fill="none" id="id115" stroke="none" /><text fill="#e1ed5e" style="font-size:6.75px; font-family:Arial;" text-anchor="middle"><textPath startOffset="22.20632615414155" xlink:href="#id115">July</textPath></text><path d="M 95.86986931433489 120.58985236759428 l -11.882142336563414 59.23579061789048 a81.41576116075105,81.41576116075105 0 0,0 -1.3716948320428295,-0.2874519887936212 l 12.90002863003563 -59.02248264837032" fill="#4aebff" stroke="none" /><path d="M 94.46302465271185 120.25689768951611 l -13.757080073339155 50.329962853925174 a73.17626292694555,73.17626292694555 0 0,0 -1.2121781479460094,-0.34257365272979245 l 14.621389389389778 -50.08570040785686" fill="#3fffbf" stroke="none" /><path d="M 93.42475214034765 119.94407469862007 l -19.725743578957054 59.832224095860205 a84.0,84.0 0 0,0 -1.3693210682510968,-0.46454805240750785 l 20.752734380145377 -59.483813056554574" fill="#4dd2ff" stroke="none" /><line stroke="#e1ed5e" stroke-width="0.3" x1="58.666819895761336" x2="56.23545636021788" y1="174.27360380694188" y2="178.64263932499728" /><path d="M 58.180547188652646 175.14741091055294 a86.0,86.0 0 0,1 -31.652253787137756,-30.449443065178592" fill="none" id="id116" stroke="none" /><text fill="#e1ed5e" style="font-size:6.75px; font-family:Arial;" text-anchor="middle"><textPath startOffset="22.20632615414155" xlink:href="#id116">August</textPath></text><line stroke="#e1ed5e" stroke-width="0.3" x1="26.63291911575756" x2="22.317208475507996" y1="142.92168965132927" y2="145.44649492493687" /><path d="M 25.769776987707644 143.4266507060508 a86.0,86.0 0 0,1 -11.730757126820373,-40.83630448921669" fill="none" id="id117" stroke="none" /><text fill="#e1ed5e" style="font-size:6.75px; font-family:Arial;" text-anchor="middle"><textPath startOffset="21.46611528233685" xlink:href="#id117">September</textPath></text><line stroke="#e1ed5e" stroke-width="0.3" x1="15.007084014347285" x2="10.007500721073583" y1="101.09737516637583" y2="101.16192664675087" /><path d="M 14.007167355692545 101.11028546245083 a86.0,86.0 0 0,1 10.666146001902534,-42.60595125391555" fill="none" id="id118" stroke="none" /><text fill="#e1ed5e" style="font-size:6.75px; font-family:Arial;" text-anchor="middle"><textPath startOffset="22.20632615414155" xlink:href="#id118">October</textPath></text><line stroke="#e1ed5e" stroke-width="0.3" x1="26.266209847984243" x2="21.928928074336255" y1="57.711370442889674" y2="55.22380399835377" /><path d="M 25.398753493254645 57.213857153982495 a86.0,86.0 0 0,1 29.58750427330803,-30.492523968695096" fill="none" id="id119" stroke="none" /><text fill="#e1ed5e" style="font-size:6.75px; font-family:Arial;" text-anchor="middle"><textPath startOffset="21.46611528233685" xlink:href="#id119">November</textPath></text><line stroke="#e1ed5e" stroke-width="0.3" x1="56.762969772571076" x2="54.21961505331055" y1="26.818313649435495" y2="22.513508569990535" /><path d="M 56.25429882871897 25.957352633546506 a86.0,86.0 0 0,1 42.265352541879196,-11.944610805530505" fill="none" id="id120" stroke="none" /><text fill="#e1ed5e" style="font-size:6.75px; font-family:Arial;" text-anchor="middle"><textPath startOffset="22.20632615414155" xlink:href="#id120">December</textPath></text></svg>