<?xml version="1.0" encoding="utf-8" ?>
<svg baseProfile="full" height="200mm" version="1.1" viewBox="0,0,200,200" width="200mm" xmlns="http://www.w3.org/2000/svg" xmlns:ev="http://www.w3.org/2001/xml-events" xmlns:xlink="http://www.w3.org/1999/xlink"><defs /><rect fill="#1a1a1a" height="200" width="200" x="0" y="0" /><text alignment-baseline="middle" fill="#e1ed5e" style="dominant-baseline: central; font-size:9.0px; font-family:Arial;" text-anchor="middle" x="100.0" y="100.0">2019</text><line stroke="#e1ed5e" stroke-width="0.3" x1="100.0" x2="100.0" y1="15.0" y2="10.0" /><path d="M 100.0 14.0 a86.0,86.0 0 0,1 42.46469731375804,11.215312516191453" fill="none" id="id61" stroke="none" /><text fill="#e1ed5e" style="font-size:6.75px; font-family:Arial;" text-anchor="middle"><textPath startOffset="22.20632615414155" xlink:href="#id61">January</textPath></text><path d="M 103.95276090670814 79.375362276772 l 10.961268304519031 -57.19348908357839 a79.23439358658295,79.23439358658295 0 0,0 1.3373014577422653,0.268250091744165 l -11.944136171728422 56.99633503575701" fill="#47fffd" stroke="none" /><path d="M 109.08828744355905 81.06846463323043 l 6.351789269251215 -13.23121918621955 a35.676865744250684,35.676865744250684 0 0,0 0.5513413350962192,0.2705407986825856 l -6.578601871357866 13.119923227402131" fill="#ff9d0e" stroke="none" /><line stroke="#e1ed5e" stroke-width="0.3" x1="143.23703022742887" x2="145.7803849466894" y1="26.818313649435467" y2="22.513508569990506" /><path d="M 143.74570117128098 25.957352633546478 a86.0,86.0 0 0,1 28.547481713284135,27.462654790039114" fill="none" id="id62" stroke="none" /><text fill="#e1ed5e" style="font-size:6.75px; font-family:Arial;" text-anchor="middle"><textPath startOffset="19.985693538727396" xlink:href="#id62">February</textPath></text><path d="M 113.34407831869373 83.78471172551755 l 5.839555539957458 -7.096037224437586 a30.189894079631806,30.189894079631806 0 0,0 0.3984238859129771,0.33366854639455845 l -5.9608369628295526 6.9944675206492075" fill="#ff4f07" stroke="none" /><path d="M 114.94478906791727 85.2469230424477 l 11.999914571182583 -11.845979381051368 a37.86194464502758,37.86194464502758 0 0,0 0.45386688156419736,0.46774971747713195 l -12.20204571644989 11.637665468024121" fill="#ffbb11" stroke="none" /><line stroke="#e1ed5e" stroke-width="0.3" x1="172.23445277983987" x2="176.4835382374775" y1="55.19839476539836" y2="52.563006222186495" /><path d="M 173.08426987136738 54.67131705675599 a86.0,86.0 0 0,1 12.851231095245387,41.99856678651699" fill="none" id="id63" stroke="none" /><text fill="#e1ed5e" style="font-size:6.75px; font-family:Arial;" text-anchor="middle"><textPath startOffset="22.20632615414155" xlink:href="#id63">March</textPath></text><line stroke="#e1ed5e" stroke-width="0.3" x1="184.98032266829074" x2="189.97916517819016" y1="98.17113171792111" y2="98.06355123074" /><path d="M 185.9800911702706 98.14961562048488 a86.0,86.0 0 0,1 -9.607161424134198,41.387399972396054" fill="none" id="id64" stroke="none" /><text fill="#e1ed5e" style="font-size:6.75px; font-family:Arial;" text-anchor="middle"><textPath startOffset="21.466115282336823" xlink:href="#id64">April</textPath></text><path d="M 120.95626037817324 101.35467743843564 l 27.28496431018909 1.763784420145521 a48.3419131168439,48.3419131168439 0 0,0 -0.06082665263317189,0.8299313481791136 l -27.25056109889158 -2.2331889048214046" fill="#beff1f" stroke="none" /><line stroke="#e1ed5e" stroke-width="0.3" x1="174.80103733775053" x2="179.2010983576182" y1="140.37084112569926" y2="142.7455964860345" /><path d="M 175.68104954172406 140.8457921977663 a86.0,86.0 0 0,1 -30.038265399797805,32.042727171017184" fill="none" id="id65" stroke="none" /><text fill="#e1ed5e" style="font-size:6.75px; font-family:Arial;" text-anchor="middle"><textPath startOffset="22.206326154141568" xlink:href="#id65">May</textPath></text><path d="M 118.12598468904814 110.60418214915192 l 10.832815776837945 6.337484757735868 a33.55044264994042,33.55044264994042 0 0,0 -0.29591350512184456,0.4959680554972311 l -10.72212139601787 -6.523014907119203" fill="#ff7f0b" stroke="none" /><path d="M 117.94076556474637 110.91462005526583 l 16.113552234590127 9.802998637183137 a39.8612127896771,39.8612127896771 0 0,0 -0.36166526391205833,0.583119562153256 l -15.942422331010109 -10.078914530701663" fill="#ffd614" stroke="none" /><path d="M 116.27256486870786 113.27417163493432 l 8.518585205999788 6.9489452353452235 a31.99336771857039,31.99336771857039 0 0,0 -0.3517807896711754,0.42374262275905333 l -8.39770841643507 -7.094549115218045" fill="#ff6909" stroke="none" /><path d="M 114.55890576462653 115.13401014063108 l 6.8003501633961365 7.06897688579959 a30.80893452709165,30.80893452709165 0 0,0 -0.3853525276603222,0.3643748673948652 l -6.677661801345006 -7.184986389940379" fill="#ff5808" stroke="none" /><line stroke="#e1ed5e" stroke-width="0.3" x1="143.8653032363475" x2="146.44561519142675" y1="172.8068346515853" y2="177.08958963109032" /><path d="M 144.38136562736335 173.6633856474863 a86.0,86.0 0 0,1 -40.68145358897372,12.25698825130547" fill="none" id="id66" stroke="none" /><text fill="#e1ed5e" style="font-size:6.75px; font-family:Arial;" text-anchor="middle"><textPath startOffset="21.466115282336833" xlink:href="#id66">June</textPath></text><line stroke="#e1ed5e" stroke-width="0.3" x1="102.19456741930631" x2="102.32365962044197" y1="184.97166512339345" y2="189.96999836594603" /><path d="M 102.22038585953345 185.97133177190398 a86.0,86.0 0 0,1 -42.740103519485714,-10.115201625700543" fill="none" id="id67" stroke="none" /><text fill="#e1ed5e" style="font-size:6.75px; font-family:Arial;" text-anchor="middle"><textPath startOffset="22.20632615414155" xlink:href="#id67">July</textPath></text><line stroke="#e1ed5e" stroke-width="0.3" x1="58.666819895761336" x2="56.23545636021788" y1="174.27360380694188" y2="178.64263932499728" /><path d="M 58.180547188652646 175.14741091055294 a86.0,86.0 0 0,1 -31.652253787137756,-30.449443065178592" fill="none" id="id68" stroke="none" /><text fill="#e1ed5e" style="font-size:6.75px; font-family:Arial;" text-anchor="middle"><textPath startOffset="22.20632615414155" xlink:href="#id68">August</textPath></text><path d="M 87.65650970185807 116.9893568818739 l -27.738723398396598 38.17907738250379 a68.19193496299943,68.19193496299943 0 0,0 -0.9436952950708294,-0.6981232187252182 l 28.39180366388599 -37.69594421503881" fill="#38ff84" stroke="none" /><path d="M 82.24976979558568 111.22182372390057 l -50.80761450190083 32.12094081069625 a81.10963757949315,81.10963757949315 0 0,0 -0.7359168582195349,-1.1865322964787681 l 51.35299599978832 -31.241612182852215" fill="#49eeff" stroke="none" /><line stroke="#e1ed5e" stroke-width="0.3" x1="26.63291911575756" x2="22.317208475507996" y1="142.92168965132927" y2="145.44649492493687" /><path d="M 25.769776987707644 143.4266507060508 a86.0,86.0 0 0,1 -11.730757126820373,-40.83630448921669" fill="none" id="id69" stroke="none" /><text fill="#e1ed5e" style="font-size:6.75px; font-family:Arial;" text-anchor="middle"><textPath startOffset="21.46611528233685" xlink:href="#id69">September</textPath></text><path d="M 80.87730276802145 108.67885076344099 l -53.57164163826158 24.313530528188384 a79.83084696452593,79.83084696452593 0 0,0 -0.5571391588621097,-1.2562017227916484 l 53.98222188185497 -23.38778046890404" fill="#48fbff" stroke="none" /><path d="M 79.04373962182676 101.35467743843564 l -14.362694633740938 0.9284489705870682 a35.39267225476475,35.39267225476475 0 0,0 -0.0340673837195433,-0.6082960214864106 l 14.376548368348013 -0.6810812327652201" fill="#ff990e" stroke="none" /><line stroke="#e1ed5e" stroke-width="0.3" x1="15.007084014347285" x2="10.007500721073583" y1="101.09737516637583" y2="101.16192664675087" /><path d="M 14.007167355692545 101.11028546245083 a86.0,86.0 0 0,1 10.666146001902526,-42.60595125391555" fill="none" id="id70" stroke="none" /><text fill="#e1ed5e" style="font-size:6.75px; font-family:Arial;" text-anchor="middle"><textPath startOffset="22.20632615414155" xlink:href="#id70">October</textPath></text><path d="M 79.46518482838121 95.60439243477599 l -7.401712750835412 -1.5843836085826504 a28.569387231805816,28.569387231805816 0 0,0 0.10707481595502083,-0.4799954046648453 l 7.373343547878354 1.711557182797455" fill="#ff3705" stroke="none" /><path d="M 81.10775173730289 90.83032412892265 l -6.0723579043662514 -2.947322784560091 a27.749832747195025,27.749832747195025 0 0,0 0.21227298919306528,-0.427929393139838 l 6.020724902219774 3.0514117661988918" fill="#ff2b04" stroke="none" /><path d="M 81.26839172434947 90.50648371742162 l -5.417990241302303 -2.7459349895500567 a27.074107113122245,27.074107113122245 0 0,0 0.21426005751493213,-0.41388223351227243 l 5.369920750627257 2.8387899453226644" fill="#ff2103" stroke="none" /><path d="M 81.43458229118936 90.18545643968196 l -5.225262735520189 -2.762316988296565 a26.910479320583715,26.910479320583715 0 0,0 0.22001482597585534,-0.40765405807218663 l 5.176939810325859 2.851852029701224" fill="#ff1f03" stroke="none" /><line stroke="#e1ed5e" stroke-width="0.3" x1="26.266209847984243" x2="21.928928074336255" y1="57.71137044288968" y2="55.22380399835378" /><path d="M 25.398753493254645 57.2138571539825 a86.0,86.0 0 0,1 29.58750427330803,-30.4925239686951" fill="none" id="id71" stroke="none" /><text fill="#e1ed5e" style="font-size:6.75px; font-family:Arial;" text-anchor="middle"><textPath startOffset="21.46611528233685" xlink:href="#id71">November</textPath></text><path d="M 81.78341655067845 89.55222093294921 l -5.575741637862888 -3.1978618235087852 a27.427691269379142,27.427691269379142 0 0,0 0.23841236632570925,-0.4075240165546544 l 5.519869597066854 3.2933652524173302" fill="#ff2603" stroke="none" /><path d="M 82.7489923806493 88.02491185347247 l -3.19297649085219 -2.216460381413027 a24.88687477203837,24.88687477203837 0 0,0 0.24731317606884012,-0.34980694867938794 l 3.1543506949794713 2.271093830424201" fill="#ff0000" stroke="none" /><path d="M 83.17141714833178 87.43820079747577 l -5.52660812172315 -4.125370633287983 a27.89652667602259,27.89652667602259 0 0,0 0.2905543603917194,-0.3823354798762077 l 5.454777821107322 4.219890889045217" fill="#ff2e04" stroke="none" /><path d="M 83.6137871275137 86.86637796730984 l -10.19307617041444 -8.16979559672543 a34.06309159074317,34.06309159074317 0 0,0 0.3706413234773699,-0.45436243745985594 l 10.050936354860678 8.34404220379337" fill="#ff870c" stroke="none" /><path d="M 86.10567301691215 84.25364557470407 l -3.8267214768220423 -4.336799668978311 a26.78373829197185,26.78373829197185 0 0,0 0.3483240487123518,-0.3020631826011795 l 3.751503629462917 4.402027844999169" fill="#ff1d02" stroke="none" /><path d="M 86.37877921826538 84.01681056812373 l -9.577890901790902 -11.238731615483971 a35.76634966575991,35.76634966575991 0 0,0 0.47201782096906675,-0.39530135055576576 l 9.383015543862724 11.401934123433549" fill="#ff9e0e" stroke="none" /><path d="M 86.65592168130627 83.78471172551755 l -11.714700083696119 -14.235321044251144 a39.43579570519942,39.43579570519942 0 0,0 0.5278699117922012,-0.42683409111090354 l 11.467926773339418 14.434861232626183" fill="#ffd013" stroke="none" /><path d="M 87.22198572758235 83.33499621200491 l -14.337419946650389 -18.698770609198725 a44.562801892432965,44.562801892432965 0 0,0 0.6127466878925198,-0.46150810174958523 l 14.013427104999478 18.942795300454165" fill="#ecff1a" stroke="none" /><path d="M 87.80319425747018 82.90503203632743 l -25.49603294674971 -35.73508307225225 a64.89810768361794,64.89810768361794 0 0,0 0.9149670850031268,-0.6409929147390572 l 24.877134722162925 36.16866082975525" fill="#34ff5d" stroke="none" /><line stroke="#e1ed5e" stroke-width="0.3" x1="56.76296977257108" x2="54.21961505331056" y1="26.818313649435495" y2="22.513508569990535" /><path d="M 56.25429882871898 25.957352633546506 a86.0,86.0 0 0,1 42.26535254187918,-11.944610805530505" fill="none" id="id72" stroke="none" /><text fill="#e1ed5e" style="font-size:6.75px; font-family:Arial;" text-anchor="middle"><textPath startOffset="22.20632615414155" xlink:href="#id72">December</textPath></text><path d="M 89.3179101791058 81.91981866633112 l -31.322979546444913 -53.01632542003078 a82.57807896248151,82.57807896248151 0 0,0 1.230032996485754,-0.7125145047008598 l 30.405749817493838 53.547644082121685" fill="#4be0ff" stroke="none" /><path d="M 91.90106846888425 80.62456947434976 l -9.94205853150196 -23.784824407884134 a46.779107819272795,46.779107819272795 0 0,0 0.7456058073035677,-0.30415132984601967 l 9.531168854610012 23.95243662391373" fill="#d1ff1d" stroke="none" /><path d="M 92.23578459929587 80.48803036053334 l -8.015218204585913 -20.14275573129998 a42.67889137658897,42.67889137658897 0 0,0 0.6849288044314558,-0.26574173511198257 l 7.66730623515478 20.277740170302515" fill="#fffa17" stroke="none" /><path d="M 92.91201910852362 80.23233633223022 l -17.41597745968185 -48.571404203763386 a72.59939512437631,72.59939512437631 0 0,0 1.1799752404795112,-0.4116701919821125 l 16.577320215139054 48.86399524891771" fill="#3effb7" stroke="none" /><path d="M 93.94186890950719 79.89281104454417 l -18.17439327147842 -60.321566866367455 a84.0,84.0 0 0,0 1.3880391291063148,-0.4052066843252047 l 17.133363924648684 60.625471879611354" fill="#4dd2ff" stroke="none" /></svg>