<?xml version="1.0" encoding="utf-8" ?>
<svg baseProfile="full" height="200mm" version="1.1" viewBox="0,0,200,200" width="200mm" xmlns="http://www.w3.org/2000/svg" xmlns:ev="http://www.w3.org/2001/xml-events" xmlns:xlink="http://www.w3.org/1999/xlink"><defs /><rect fill="#1a1a1a" height="200" width="200" x="0" y="0" /><text alignment-baseline="middle" fill="#e1ed5e" style="dominant-baseline: central; font-size:9.0px; font-family:Arial;" text-anchor="middle" x="100.0" y="100.0">2020</text><line stroke="#e1ed5e" stroke-width="0.3" x1="100.0" x2="100.0" y1="15.0" y2="10.0" /><path d="M 100.0 14.0 a86.0,86.0 0 0,1 42.35913384403234,11.155469271406648" fill="none" id="id97" stroke="none" /><text fill="#e1ed5e" style="font-size:6.75px; font-family:Arial;" text-anchor="middle"><textPath startOffset="22.145653131862478" xlink:href="#id97">January</textPath></text><path d="M 100.0 79.0 l 0.0 -10.100775860244319 a31.10077586024432,31.10077586024432 0 0,0 0.5338861740441968,0.004582770698450709 l -0.173393249195342 10.099287487740304" fill="#ff750a" stroke="none" /><path d="M 100.36049292484886 79.00309439819443 l 0.11908204247472062 -6.935931976363316 a27.936954152477806,27.936954152477806 0 0,0 0.4794336343794818,0.012348509753434772 l -0.23812899092494375 6.932865749259836" fill="#ff4906" stroke="none" /><path d="M 101.08105385017728 79.02784411241856 l 0.49528104271141893 -9.608319913207307 a30.621076595984743,30.621076595984743 0 0,0 0.5247222550880755,0.03156598786579478 l -0.6601476499319567 9.59840194751682" fill="#ff6f0a" stroke="none" /><path d="M 101.44090949804482 79.04949213459386 l 0.9650413871890122 -14.031489972257111 a35.064637063235566,35.064637063235566 0 0,0 0.6001579879752554,0.04645602393367703 l -1.2057683699395012 14.012856181328381" fill="#ffab0f" stroke="none" /><path d="M 102.15924093988457 79.11130261209362 l 1.0393241586933541 -10.054518436486509 a31.108092584483522,31.108092584483522 0 0,0 0.5307101306047111,0.059467177089658596 l -1.2117701908988618 10.03519549888988" fill="#ff750a" stroke="none" /><path d="M 103.23170211078529 79.25015418208739 l 1.55201483550332 -9.965048584252518 a31.085184348148303,31.085184348148303 0 0,0 0.5265571140180441,0.08664477273318757 l -1.7228494525744347 9.936937813023663" fill="#ff750a" stroke="none" /><path d="M 103.94208987418118 79.37332000966035 l 2.493416768726392 -13.046610151613791 a34.28273931200782,34.28273931200782 0 0,0 0.5770985158295613,0.11543586575247572 l -2.7170117700869105 13.001884889198456" fill="#ffa00e" stroke="none" /><line stroke="#e1ed5e" stroke-width="0.3" x1="143.13028292997686" x2="145.6673583964461" y1="26.7553504044142" y2="22.446841604673864" /><path d="M 143.63769802327073 25.89364864446614 a86.0,86.0 0 0,1 29.32050498858742,28.57503671076993" fill="none" id="id98" stroke="none" /><text fill="#e1ed5e" style="font-size:6.75px; font-family:Arial;" text-anchor="middle"><textPath startOffset="20.669276256404974" xlink:href="#id98">February</textPath></text><line stroke="#e1ed5e" stroke-width="0.3" x1="172.87174338648825" x2="177.1583165268699" y1="56.24261187166439" y2="53.66864786411523" /><path d="M 173.72905801456457 55.72781907015455 a86.0,86.0 0 0,1 12.242430191666344,42.057860355516425" fill="none" id="id99" stroke="none" /><text fill="#e1ed5e" style="font-size:6.75px; font-family:Arial;" text-anchor="middle"><textPath startOffset="22.145653131862474" xlink:href="#id99">March</textPath></text><line stroke="#e1ed5e" stroke-width="0.3" x1="184.99686870605535" x2="189.99668451229388" y1="99.2704041080226" y2="99.22748670261217" /><path d="M 185.99683186730306 99.26182062694052 a86.0,86.0 0 0,1 -10.086455211305974,41.156179273409016" fill="none" id="id100" stroke="none" /><text fill="#e1ed5e" style="font-size:6.75px; font-family:Arial;" text-anchor="middle"><textPath startOffset="21.40746469413373" xlink:href="#id100">April</textPath></text><path d="M 120.77682067341334 103.0534771498775 l 8.083087034079728 1.1879354376204765 a29.169913500427185,29.169913500427185 0 0,0 -0.07706206073616695,0.49479371051854726 l -8.061503481205294 -1.3265173300704745" fill="#ff5b08" stroke="none" /><path d="M 120.65975698304385 103.76489593502545 l 44.49204564348041 8.10793282426243 a66.22477971449166,66.22477971449166 0 0,0 -0.21341316124175708,1.1166678394350134 l -44.34630618995649 -8.870503228730758" fill="#37ff74" stroke="none" /><path d="M 120.51834098615036 104.47187691870673 l 61.555022958451104 13.415630756120176 a84.0,84.0 0 0,0 -0.3191565537693437,1.4062626642439322 l -61.315655543124095 -14.470327754303124" fill="#4dd2ff" stroke="none" /><path d="M 120.43855184770803 104.8234425847677 l 7.266556378893008 1.7148875196115443 a28.466169085451394,28.466169085451394 0 0,0 -0.11632154189656839,0.4746315857615136 l -7.236047310480144 -1.8393749299811575" fill="#ff5107" stroke="none" /><path d="M 120.35273937422433 105.17358676015961 l 54.255537511371315 13.791545470761543 a76.98097960128871,76.98097960128871 0 0,0 -0.336555414540704,1.2779557276899425 l -54.01079261602588 -14.720881702824288" fill="#44ffe8" stroke="none" /><path d="M 120.16314734710363 105.8691983318838 l 9.791822869763719 2.850256929832644 a31.198223358942812,31.198223358942812 0 0,0 -0.1540949779113462,0.5129320647914507 l -9.741451571848744 -3.0179265982148182" fill="#ff770a" stroke="none" /><path d="M 120.05942366710727 106.21446072829308 l 10.114164815067497 3.133394113699609 a31.58841293953521,31.58841293953521 0 0,0 -0.16491450622720874,0.5165923419038182 l -10.058885593063033 -3.3065554892948104" fill="#ff7c0b" stroke="none" /><line stroke="#e1ed5e" stroke-width="0.3" x1="174.33088141563837" x2="178.70328620479359" y1="141.23008692659167" y2="143.65538615756765" /><path d="M 175.20536237346943 141.71514677278685 a86.0,86.0 0 0,1 -30.301960400862466,31.631185727798858" fill="none" id="id101" stroke="none" /><text fill="#e1ed5e" style="font-size:6.75px; font-family:Arial;" text-anchor="middle"><textPath startOffset="22.145653131862474" xlink:href="#id101">May</textPath></text><path d="M 118.18653347947321 110.5 l 17.311420048584026 9.994753025104668 a40.98950605020934,40.98950605020934 0 0,0 -0.3570503935894443,0.6063496269867628 l -17.137295944864817 -10.290453820384979" fill="#fff717" stroke="none" /><path d="M 118.00360718960297 110.81064883170644 l 33.01011531808746 19.821625790861685 a59.50408500804019,59.50408500804019 0 0,0 -0.533360716394383,0.8712046466162642 l -32.664986637237675 -20.385367553602507" fill="#39ff2e" stroke="none" /><path d="M 117.62189284568427 111.42229804090321 l 2.0922236283792772 1.3561540783866943 a23.493301745772744,23.493301745772744 0 0,0 -0.2222640431402891,0.33653608997050033 l -2.0686351463182615 -1.3918700466962557" fill="#ff0901" stroke="none" /><path d="M 113.03279911837588 116.46651593811092 l 5.506440888492836 6.957208181378946 a29.87263416001764,29.87263416001764 0 0,0 -0.40483117188052,0.3147991678537464 l -5.386199771977085 -7.050708400853486" fill="#ff6409" stroke="none" /><line stroke="#e1ed5e" stroke-width="0.3" x1="143.1302829299769" x2="145.66735839644613" y1="173.24464959558577" y2="177.55315839532614" /><path d="M 143.63769802327073 174.10635135553383 a86.0,86.0 0 0,1 -40.68552437913181,11.842963189579606" fill="none" id="id102" stroke="none" /><text fill="#e1ed5e" style="font-size:6.75px; font-family:Arial;" text-anchor="middle"><textPath startOffset="21.407464694133747" xlink:href="#id102">June</textPath></text><line stroke="#e1ed5e" stroke-width="0.3" x1="101.45913802915013" x2="101.54496967792366" y1="184.9874750549273" y2="189.98673829345242" /><path d="M 101.47630435890484 185.9873277026323 a86.0,86.0 0 0,1 -42.54439059252881,-10.42667462771756" fill="none" id="id103" stroke="none" /><text fill="#e1ed5e" style="font-size:6.75px; font-family:Arial;" text-anchor="middle"><textPath startOffset="22.145653131862474" xlink:href="#id103">July</textPath></text><path d="M 100.36049292484886 120.99690560180557 l 0.04702454427867784 2.73894395459024 a23.73934760374638,23.73934760374638 0 0,0 -0.40751746912752973,0.0034980473505759778 l -3.354733274679978e-16 -2.7393476037463813" fill="#ff0d01" stroke="none" /><path d="M 95.70440661134978 120.55596938700252 l -1.4242273403584926 6.815443399716329 a27.962664163361715,27.962664163361715 0 0,0 -0.46902386903777177,-0.10222156926275218 l 1.5410136260154008 -6.789990372319858" fill="#ff4a06" stroke="none" /><path d="M 93.61358852112213 120.00534299687104 l -3.666359419324799 11.484818661620114 a33.05583887923065,33.05583887923065 0 0,0 -0.5390892001960093,-0.1772093277765247 l 3.8629713571685516 -11.420188412441568" fill="#ff900d" stroke="none" /><path d="M 91.59046798132341 119.24265499422711 l -7.157192195105151 16.3770563964696 a38.872699189848746,38.872699189848746 0 0,0 -0.6091659189620873,-0.2724721672740598 l 7.437271516922873 -16.25178047828569" fill="#ffdc14" stroke="none" /><line stroke="#e1ed5e" stroke-width="0.3" x1="58.13341422392154" x2="55.67067388415222" y1="173.97424548756322" y2="178.32567169271397" /><path d="M 57.64086615596768 174.84453072859336 a86.0,86.0 0 0,1 -31.369924170532247,-30.572349798747897" fill="none" id="id104" stroke="none" /><text fill="#e1ed5e" style="font-size:6.75px; font-family:Arial;" text-anchor="middle"><textPath startOffset="22.145653131862474" xlink:href="#id104">August</textPath></text><path d="M 88.1277618465304 117.32195027204791 l -5.2044278020468875 7.593415699395633 a30.20576073611229,30.20576073611229 0 0,0 -0.4251891023059776,-0.29681501525936443 l 5.334011995526631 -7.5029558683311395" fill="#ff6909" stroke="none" /><path d="M 87.54013794807813 116.9041958592261 l -5.5016075962830255 7.463987318690226 a30.272475011400548,30.272475011400548 0 0,0 -0.41566560418146964,-0.3119232185758406 l 5.628926189375261 -7.36844507285037" fill="#ff6a09" stroke="none" /><path d="M 86.13680546590413 115.77377054828092 l -2.623563347984486 2.9851334891251993 a24.974179989480138,24.974179989480138 0 0,0 -0.3195921709324406,-0.2857812899509077 l 2.6744205457402974 -2.9396566692909096" fill="#ff1f03" stroke="none" /><path d="M 85.08716467003676 114.78537596483092 l -2.806635324566552 2.7826471326022486 a24.95225592664295,24.95225592664295 0 0,0 -0.298967472962205,-0.3067669648560725 l 2.8539895986795663 -2.7340574756784384" fill="#ff1e03" stroke="none" /><line stroke="#e1ed5e" stroke-width="0.3" x1="26.387840678322732" x2="22.057713659400548" y1="142.50000000000003" y2="145.00000000000006" /><path d="M 25.521815274538298 143.00000000000003 a86.0,86.0 0 0,1 -11.493303480769221,-40.785679425670985" fill="none" id="id105" stroke="none" /><text fill="#e1ed5e" style="font-size:6.75px; font-family:Arial;" text-anchor="middle"><textPath startOffset="21.40746469413373" xlink:href="#id105">September</textPath></text><path d="M 81.29705330413844 109.54985784667822 l -3.0450305871863113 1.5548143145192683 a24.41901430671681,24.41901430671681 0 0,0 -0.18742184977335485,-0.3749692484665588 l 3.0712723501714034 -1.5023132098889567" fill="#ff1702" stroke="none" /><path d="M 80.68587082218212 108.24405325689762 l -3.5167201429836434 1.5010787119337936 a24.823683807990367,24.823683807990367 0 0,0 -0.16392397083649443,-0.39335785558133585 l 3.5419699583566233 -1.4404883469111764" fill="#ff1d02" stroke="none" /><line stroke="#e1ed5e" stroke-width="0.3" x1="15.003131293944662" x2="10.003315487706104" y1="100.72959589197737" y2="100.7725132973878" /><path d="M 14.003168132696942 100.73817937305945 a86.0,86.0 0 0,1 10.791469493833604,-42.45332614584628" fill="none" id="id106" stroke="none" /><text fill="#e1ed5e" style="font-size:6.75px; font-family:Arial;" text-anchor="middle"><textPath startOffset="22.145653131862435" xlink:href="#id106">October</textPath></text><path d="M 79.2786578344484 96.59031103205396 l -6.899605759163439 -1.1353275020624263 a27.992390733420194,27.992390733420194 0 0,0 0.08209126153077959,-0.4734805816057092 l 6.879099680140425 1.253601116588728" fill="#ff4a06" stroke="none" /><path d="M 80.68587082218212 91.75594674310238 l -6.745937143340655 -2.8794394282738964 a28.33476920993438,28.33476920993438 0 0,0 0.1947895540372907,-0.44571661972324855 l 6.695513707286388 2.9948181177730118" fill="#ff4f07" stroke="none" /><path d="M 80.83023694016515 91.42560881287825 l -4.510063428537531 -2.0172940058939584 a25.940662631231504,25.940662631231504 0 0,0 0.18530963745899454,-0.4049350009128495 l 4.47476932622349 2.0944179890214794" fill="#ff2d04" stroke="none" /><line stroke="#e1ed5e" stroke-width="0.3" x1="26.387840678322718" x2="22.05771365940052" y1="57.49999999999999" y2="54.99999999999999" /><path d="M 25.521815274538284 56.99999999999999 a86.0,86.0 0 0,1 29.574782752854787,-30.34633250058573" fill="none" id="id107" stroke="none" /><text fill="#e1ed5e" style="font-size:6.75px; font-family:Arial;" text-anchor="middle"><textPath startOffset="21.40746469413373" xlink:href="#id107">November</textPath></text><path d="M 82.98947788004972 87.6856937992154 l -1.524903236879479 -1.1039123463164076 a22.88253880443281,22.88253880443281 0 0,0 0.23307280176490838,-0.3162080185217528 l 1.505728415530752 1.1299266741070237" fill="#ff0000" stroke="none" /><path d="M 83.8745106332314 86.54754324733833 l -4.24926173646739 -3.5448852707917875 a26.53375432126169,26.53375432126169 0 0,0 0.2947842444627117,-0.3472550987526347 l 4.187782928497564 3.617307151993979" fill="#ff3505" stroke="none" /><path d="M 87.83215693770416 82.88440491214696 l -3.022391456033766 -4.2513720873632 a26.21622610118818,26.21622610118818 0 0,0 0.369030720305223,-0.2576121031431015 l 2.9489656445547774 4.302629006311428" fill="#ff3104" stroke="none" /><line stroke="#e1ed5e" stroke-width="0.3" x1="56.869717070023135" x2="54.33264160355391" y1="26.7553504044142" y2="22.446841604673864" /><path d="M 56.362301976729285 25.89364864446614 a86.0,86.0 0 0,1 42.16139366436587,-11.88097634709845" fill="none" id="id108" stroke="none" /><text fill="#e1ed5e" style="font-size:6.75px; font-family:Arial;" text-anchor="middle"><textPath startOffset="22.145653131862474" xlink:href="#id108">December</textPath></text><path d="M 90.61103034731259 81.2157712731953 l -17.65207625792025 -35.315977172944066 a60.481819105701526,60.481819105701526 0 0,0 0.9326865344460942,-0.45622372151584967 l 17.043229474212104 35.613794644557125" fill="#2fff30" stroke="none" /><path d="M 92.93061703081487 80.22567764915836 l -2.1158920073705505 -5.918526524265742 a27.285376297827497,27.285376297827497 0 0,0 0.44240538747572916,-0.1538915588890784 l 2.013980847849817 5.953976515723406" fill="#ff4006" stroke="none" /></svg>