<?xml version="1.0" encoding="utf-8" ?>
<svg baseProfile="full" height="200mm" version="1.1" viewBox="0,0,200,200" width="200mm" xmlns="http://www.w3.org/2000/svg" xmlns:ev="http://www.w3.org/2001/xml-events" xmlns:xlink="http://www.w3.org/1999/xlink"><defs /><rect fill="#1a1a1a" height="200" width="200" x="0" y="0" /><text alignment-baseline="middle" fill="#e1ed5e" style="dominant-baseline: central; font-size:9.0px; font-family:Arial;" text-anchor="middle" x="100.0" y="100.0">2021</text><line stroke="#e1ed5e" stroke-width="0.3" x1="100.0" x2="100.0" y1="15.0" y2="10.0" /><path d="M 100.0 14.0 a86.0,86.0 0 0,1 42.46469731375804,11.215312516191453" fill="none" id="id109" stroke="none" /><text fill="#e1ed5e" style="font-size:6.75px; font-family:Arial;" text-anchor="middle"><textPath startOffset="22.20632615414155" xlink:href="#id109">January</textPath></text><path d="M 100.0 79.0 l 0.0 -1.968421034652998 a22.968421034652998,22.968421034652998 0 0,0 0.395363611606647,0.0034030194258452776 l -0.03388313233411866 1.9681293918357117" fill="#ff0100" stroke="none" /><path d="M 100.36148047927253 79.00311137660856 l 0.3010270303045699 -17.4854007072677 a38.487991741955156,38.487991741955156 0 0,0 0.6623111943039275,0.01710554414051491 l -0.6019648598033651 17.477628370984824" fill="#ffd714" stroke="none" /><path d="M 102.52436894288641 79.15227682838746 l 0.22919354883989293 -1.8928151023241924 a22.906640683090647,22.906640683090647 0 0,0 0.3910330144881413,0.050767308003221136 l -0.26174129183588035 1.8885894711568345" fill="#ff0000" stroke="none" /><path d="M 108.76106565485865 80.91482961587045 l 3.133405604454108 -6.825834002331528 a28.510675103438416,28.510675103438416 0 0,0 0.44425305259062564,0.20858276497438083 l -3.2504368683443317 6.770886254717144" fill="#ff5107" stroke="none" /><path d="M 110.05341064243156 81.56283822128135 l 5.100959536452644 -9.354757260519944 a31.655105423963565,31.655105423963565 0 0,0 0.4761469172054883,0.2649752439115251 l -5.261230542730167 9.26556661904824" fill="#ff7d0b" stroke="none" /><path d="M 110.36928655335952 81.73862282372117 l 9.9770956276566 -17.570688729921393 a41.205730365596565,41.205730365596565 0 0,0 0.6137755761672022,0.35553843018822345 l -10.278067936289132 17.39634614234312" fill="#fff917" stroke="none" /><line stroke="#e1ed5e" stroke-width="0.3" x1="143.23703022742887" x2="145.7803849466894" y1="26.81831364943548" y2="22.513508569990506" /><path d="M 143.74570117128098 25.957352633546492 a86.0,86.0 0 0,1 28.547481713284135,27.462654790039103" fill="none" id="id110" stroke="none" /><text fill="#e1ed5e" style="font-size:6.75px; font-family:Arial;" text-anchor="middle"><textPath startOffset="19.985693538727396" xlink:href="#id110">February</textPath></text><path d="M 114.94478906791727 85.2469230424477 l 10.89909450083356 -10.759280656802288 a36.315103042093455,36.315103042093455 0 0,0 0.43532424776185047,0.448639903400286 l -11.082683012298519 10.570076557851888" fill="#ffbb11" stroke="none" /><path d="M 115.68641384162765 86.03803664274999 l 4.033083597768433 -3.5897156595051363 a26.39924270825874,26.39924270825874 0 0,0 0.2992016457118449,0.3420392032828555 l -4.094277107058127 3.519760900019333" fill="#ff3304" stroke="none" /><line stroke="#e1ed5e" stroke-width="0.3" x1="172.23445277983987" x2="176.4835382374775" y1="55.19839476539836" y2="52.563006222186495" /><path d="M 173.08426987136738 54.67131705675599 a86.0,86.0 0 0,1 12.851231095245387,41.99856678651699" fill="none" id="id111" stroke="none" /><text fill="#e1ed5e" style="font-size:6.75px; font-family:Arial;" text-anchor="middle"><textPath startOffset="22.20632615414155" xlink:href="#id111">March</textPath></text><path d="M 118.03404312379186 89.2402003453031 l 6.062035801212125 -3.61684233939704 a28.059024476741286,28.059024476741286 0 0,0 0.24390016485854327,0.41690444314329766 l -6.123395640540995 3.5119584838998468" fill="#ff4b06" stroke="none" /><path d="M 118.89224826269711 90.83032412892265 l 7.650768781655116 -3.713431504648202 a29.504342213837724,29.504342213837724 0 0,0 0.21782888125449135,0.45880317721265135 l -7.713555856751364 3.58118591179501" fill="#ff5f08" stroke="none" /><path d="M 120.28053869075195 94.5502522615342 l 2.9995099815978397 -0.8060226105420241 a24.105918958764065,24.105918958764065 0 0,0 0.10423361262347575,0.40165462900482285 l -3.012939926091618 0.7542715559883507" fill="#ff1202" stroke="none" /><path d="M 120.45610955862082 95.25157060432595 l 17.02709269329297 -3.952459642240514 a38.47981186424874,38.47981186424874 0 0,0 0.1442179609915221,0.6465008408246312 l -17.092605041286532 3.658780631865919" fill="#ffd714" stroke="none" /><path d="M 120.53481517161879 95.60439243477599 l 6.4541294159576585 -1.3815473794440738 a27.600337845866584,27.600337845866584 0 0,0 0.09544552225479948,0.4654262633016979 l -6.476954234127454 1.270245459978964" fill="#ff4406" stroke="none" /><path d="M 120.87857604477298 97.74499172005257 l 8.427397706821731 -0.9102082233261618 a29.47640909340475,29.47640909340475 0 0,0 0.05014200273251951,0.5049231246601901 l -8.44181683523648 0.7650095679615367" fill="#ff5f08" stroke="none" /><line stroke="#e1ed5e" stroke-width="0.3" x1="184.98032266829074" x2="189.97916517819016" y1="98.17113171792111" y2="98.06355123074" /><path d="M 185.9800911702706 98.14961562048488 a86.0,86.0 0 0,1 -9.607161424134198,41.387399972396054" fill="none" id="id112" stroke="none" /><text fill="#e1ed5e" style="font-size:6.75px; font-family:Arial;" text-anchor="middle"><textPath startOffset="21.466115282336823" xlink:href="#id112">April</textPath></text><path d="M 120.9904718944345 100.63252640178507 l 6.818910211613474 0.20548088494337027 a27.822005487253996,27.822005487253996 0 0,0 -0.018545177934460817,0.47856863884272927 l -6.814362900827811 -0.32282677080010574" fill="#ff4706" stroke="none" /><path d="M 120.9764740272857 100.99374915477107 l 14.333083967735869 0.6790221302051342 a35.34915910705137,35.34915910705137 0 0,0 -0.03402549993384926,0.6075481583568615 l -14.31927211691449 -0.925642004897419" fill="#ffae10" stroke="none" /><path d="M 120.95626037817324 101.35467743843564 l 2.965044284704546 0.191669626353532 a23.971232884835114,23.971232884835114 0 0,0 -0.03016202218456858,0.41153682887024196 l -2.9613057038556394 -0.24267959172054424" fill="#ff1001" stroke="none" /><path d="M 120.5718875245553 104.21870165774334 l 7.67987633935299 1.5749214555747317 a28.83969885767199,28.83969885767199 0 0,0 -0.10391350176015866,0.485449285637445 l -7.651628798868388 -1.7068845606283458" fill="#ff5607" stroke="none" /><path d="M 120.32669344350535 105.2749913415812 l 8.712101627565014 2.2608822620417204 a30.000683494703935,30.000683494703935 0 0,0 -0.1340200871285557,0.4987386009015154 l -8.67189346409468 -2.4105117961187843" fill="#ff6609" stroke="none" /><path d="M 118.64920377521936 109.65438752849418 l 7.684885324414109 3.978339339747971 a29.653591529046288,29.653591529046288 0 0,0 -0.2385666624264728,0.4512782191167711 l -7.615266153762743 -4.1100325739508765" fill="#ff6109" stroke="none" /><line stroke="#e1ed5e" stroke-width="0.3" x1="174.80103733775053" x2="179.2010983576182" y1="140.37084112569926" y2="142.7455964860345" /><path d="M 175.68104954172406 140.8457921977663 a86.0,86.0 0 0,1 -30.038265399797805,32.042727171017184" fill="none" id="id113" stroke="none" /><text fill="#e1ed5e" style="font-size:6.75px; font-family:Arial;" text-anchor="middle"><textPath startOffset="22.206326154141568" xlink:href="#id113">May</textPath></text><path d="M 118.48025628344425 109.97397251340804 l 19.085902684158626 10.300845715863652 a42.688225001857575,42.688225001857575 0 0,0 -0.35456349899837325,0.6436357406121915 l -18.905762775708745 -10.627851974873648" fill="#f3ff19" stroke="none" /><path d="M 116.71984013943494 112.70617746262583 l 3.749194969297489 2.849186130046807 a25.708962149078786,25.708962149078786 0 0,0 -0.27079272208452115,0.3500360965205271 l -3.6995954299948997 -2.9133002206805867" fill="#ff2904" stroke="none" /><path d="M 116.0416608686014 113.55231037782055 l 3.850628595099417 3.2530867157677403 a26.040824710074915,26.040824710074915 0 0,0 -0.2922245428515956,0.339923162369138 l -3.7940615426770425 -3.318886977298406" fill="#ff2e04" stroke="none" /><path d="M 111.1453310114006 117.79835938074945 l 2.449320885616287 3.9114040952558384 a25.615003228287094,25.615003228287094 0 0,0 -0.3757120851482612,0.23079304919144022 l -2.3816296005357174 -3.9529856112756567" fill="#ff2803" stroke="none" /><line stroke="#e1ed5e" stroke-width="0.3" x1="143.8653032363475" x2="146.44561519142675" y1="172.8068346515853" y2="177.08958963109032" /><path d="M 144.38136562736335 173.6633856474863 a86.0,86.0 0 0,1 -40.68145358897372,12.25698825130547" fill="none" id="id114" stroke="none" /><text fill="#e1ed5e" style="font-size:6.75px; font-family:Arial;" text-anchor="middle"><textPath startOffset="21.466115282336833" xlink:href="#id114">June</textPath></text><path d="M 104.83641907484287 120.43548508189849 l 1.4028854848623848 5.92765948398478 a27.091406622588273,27.091406622588273 0 0,0 -0.4547226170984353,0.1034933872018659 l -1.3006427183710876 -5.9509296047643305" fill="#ff3d05" stroke="none" /><line stroke="#e1ed5e" stroke-width="0.3" x1="102.19456741930631" x2="102.32365962044197" y1="184.97166512339345" y2="189.96999836594603" /><path d="M 102.22038585953345 185.97133177190398 a86.0,86.0 0 0,1 -42.740103519485714,-10.115201625700543" fill="none" id="id115" stroke="none" /><text fill="#e1ed5e" style="font-size:6.75px; font-family:Arial;" text-anchor="middle"><textPath startOffset="22.20632615414155" xlink:href="#id115">July</textPath></text><path d="M 95.86986931433489 120.58985236759428 l -7.264101694135586 36.21357115516007 a57.93494157613607,57.93494157613607 0 0,0 -0.9760893814869792,-0.20454902022989252 l 7.886382537051952 -36.08316615420363" fill="#49ff2c" stroke="none" /><path d="M 94.46302465271185 120.25689768951611 l -8.4103376172823 30.769027846767862 a52.89775624510053,52.89775624510053 0 0,0 -0.8762609845176184,-0.2476401069590762 l 8.938729769904533 -30.619698946470265" fill="#7dff26" stroke="none" /><path d="M 93.42475214034765 119.94407469862007 l -12.059256932906662 36.57819845174 a59.51480598093066,59.51480598093066 0 0,0 -0.970177115506723,-0.32913675247442903 l 12.687103781350611 -36.36519871236745" fill="#39ff2e" stroke="none" /><path d="M 92.40401165467489 119.57807347666478 l -3.946753091394648 10.17245136574404 a31.911261464783117,31.911261464783117 0 0,0 -0.5103961982351558,-0.20309718065482618 l 4.121270365671662 -10.103007340683147" fill="#ff800b" stroke="none" /><path d="M 92.06813273071674 119.44442032107085 l -18.449418198385708 45.22746409510226 a69.84572182220967,69.84572182220967 0 0,0 -1.1093115076051352,-0.4636923001467753 l 19.225201165488304 -44.903186751935515" fill="#3bff9d" stroke="none" /><path d="M 91.07499286063937 119.00905698771935 l -19.13977790515385 40.76513589852714 a66.03473551697624,66.03473551697624 0 0,0 -1.0247563703303355,-0.49194533210063773 l 19.838646943484424 -40.42963628992694" fill="#36ff72" stroke="none" /><path d="M 90.42595943632237 118.69057910512821 l -19.749904596161628 38.5560466052067 a64.32005841847813,64.32005841847813 0 0,0 -0.9810618981650384,-0.5132452172711496 l 20.41065739685316 -38.210371968990835" fill="#34ff5e" stroke="none" /><line stroke="#e1ed5e" stroke-width="0.3" x1="58.666819895761336" x2="56.23545636021788" y1="174.27360380694188" y2="178.64263932499728" /><path d="M 58.180547188652646 175.14741091055294 a86.0,86.0 0 0,1 -31.652253787137756,-30.449443065178592" fill="none" id="id116" stroke="none" /><text fill="#e1ed5e" style="font-size:6.75px; font-family:Arial;" text-anchor="middle"><textPath startOffset="22.20632615414155" xlink:href="#id116">August</textPath></text><path d="M 89.7882731507175 118.34994917583269 l -30.635180547847483 55.04984752749809 a84.0,84.0 0 0,0 -1.257404932315171,-0.7139873368214675 l 31.57823424708386 -54.51435702488198" fill="#4dd2ff" stroke="none" /><line stroke="#e1ed5e" stroke-width="0.3" x1="26.63291911575756" x2="22.317208475507996" y1="142.92168965132927" y2="145.44649492493687" /><path d="M 25.769776987707644 143.4266507060508 a86.0,86.0 0 0,1 -11.730757126820373,-40.83630448921669" fill="none" id="id117" stroke="none" /><text fill="#e1ed5e" style="font-size:6.75px; font-family:Arial;" text-anchor="middle"><textPath startOffset="21.46611528233685" xlink:href="#id117">September</textPath></text><line stroke="#e1ed5e" stroke-width="0.3" x1="15.007084014347285" x2="10.007500721073583" y1="101.09737516637583" y2="101.16192664675087" /><path d="M 14.007167355692545 101.11028546245083 a86.0,86.0 0 0,1 10.666146001902534,-42.60595125391555" fill="none" id="id118" stroke="none" /><text fill="#e1ed5e" style="font-size:6.75px; font-family:Arial;" text-anchor="middle"><textPath startOffset="22.20632615414155" xlink:href="#id118">October</textPath></text><line stroke="#e1ed5e" stroke-width="0.3" x1="26.266209847984243" x2="21.928928074336255" y1="57.711370442889674" y2="55.22380399835377" /><path d="M 25.398753493254645 57.213857153982495 a86.0,86.0 0 0,1 29.58750427330803,-30.492523968695096" fill="none" id="id119" stroke="none" /><text fill="#e1ed5e" style="font-size:6.75px; font-family:Arial;" text-anchor="middle"><textPath startOffset="21.46611528233685" xlink:href="#id119">November</textPath></text><line stroke="#e1ed5e" stroke-width="0.3" x1="56.762969772571076" x2="54.21961505331055" y1="26.818313649435495" y2="22.513508569990535" /><path d="M 56.25429882871897 25.957352633546506 a86.0,86.0 0 0,1 42.265352541879196,-11.944610805530505" fill="none" id="id120" stroke="none" /><text fill="#e1ed5e" style="font-size:6.75px; font-family:Arial;" text-anchor="middle"><textPath startOffset="22.20632615414155" xlink:href="#id120">December</textPath></text></svg>