<?xml version="1.0" encoding="utf-8" ?>
<svg baseProfile="full" height="200mm" version="1.1" viewBox="0,0,200,200" width="200mm" xmlns="http://www.w3.org/2000/svg" xmlns:ev="http://www.w3.org/2001/xml-events" xmlns:xlink="http://www.w3.org/1999/xlink"><defs /><rect fill="#1a1a1a" height="200" width="200" x="0" y="0" /><text alignment-baseline="middle" fill="#e1ed5e" style="dominant-baseline: central; font-size:9.0px; font-family:Arial;" text-anchor="middle" x="100.0" y="100.0">2017</text><line stroke="#e1ed5e" stroke-width="0.3" x1="100.0" x2="100.0" y1="15.0" y2="10.0" /><path d="M 100.0 14.0 a86.0,86.0 0 0,1 42.46469731375804,11.215312516191453" fill="none" id="id37" stroke="none" /><text fill="#e1ed5e" style="font-size:6.75px; font-family:Arial;" text-anchor="middle"><textPath startOffset="22.20632615414155" xlink:href="#id37">January</textPath></text><path d="M 100.0 79.0 l 0.0 -33.34449410953413 a54.34449410953413,54.34449410953413 0 0,0 0.9354511322160711,0.008051723227446178 l -0.5739706529435428 33.339553762915244" fill="#6aff28" stroke="none" /><path d="M 101.08401301168833 79.027996857942 l 0.2387811369713599 -4.619611296942014 a25.62577830923701,25.62577830923701 0 0,0 0.4403215877140665,0.026561400637009937 l -0.3182647735250383 4.6148166269247" fill="#ff3304" stroke="none" /><path d="M 101.44485096284872 79.0497635885617 l 0.37602701986460535 -5.452365099110182 a26.465316229978193,26.465316229978193 0 0,0 0.45420760051962855,0.03525525155395307 l -0.46982480974657503 5.4450845853677645" fill="#ff3f05" stroke="none" /><path d="M 102.52436894288641 79.15227682838746 l 1.5690664521839395 -12.958273443022222 a34.05292381635257,34.05292381635257 0 0,0 0.5813081733050849,0.07547048455128352 l -1.7918893539968705 12.929344635306801" fill="#ffa60f" stroke="none" /><path d="M 105.36241919743992 79.69619591428918 l 1.9292158358952578 -7.304617361837084 a28.555084946201518,28.555084946201518 0 0,0 0.4741532568636528,0.12960399634388392 l -2.0546669819826215 7.270326824666909" fill="#ff5c08" stroke="none" /><path d="M 106.0581310904928 79.89281104454417 l 1.2305968938307457 -4.08440225254998 a25.265760245928178,25.265760245928178 0 0,0 0.41533857173706895,0.12904771600327763 l -1.3007208382785327 4.062614401664182" fill="#ff2e04" stroke="none" /><path d="M 107.4271985657038 80.35727306442388 l 1.5969723980898225 -4.223516102582887 a25.515352600743125,25.515352600743125 0 0,0 0.4094811132104744,0.15887231025487977 l -1.669436676299964 4.19540108843746" fill="#ff3204" stroke="none" /><path d="M 108.43124777332544 80.76684994638697 l 1.3096925416503735 -2.9876376373795357 a24.262096443384436,24.262096443384436 0 0,0 0.3810511071672248,0.1709665244127653 l -1.3609257672843786 2.964650782450239" fill="#ff2003" stroke="none" /><line stroke="#e1ed5e" stroke-width="0.3" x1="143.23703022742887" x2="145.7803849466894" y1="26.818313649435467" y2="22.513508569990506" /><path d="M 143.74570117128098 25.957352633546478 a86.0,86.0 0 0,1 28.547481713284135,27.462654790039114" fill="none" id="id38" stroke="none" /><text fill="#e1ed5e" style="font-size:6.75px; font-family:Arial;" text-anchor="middle"><textPath startOffset="19.985693538727396" xlink:href="#id38">February</textPath></text><path d="M 112.19680574252982 82.90503203632743 l 0.7004982338984856 -0.9818140191695811 a22.206091432658745,22.206091432658745 0 0,0 0.3092512116646217,0.22468415711153633 l -0.7172947619168961 0.9696106272413723" fill="#ff0200" stroke="none" /><path d="M 113.89432698308785 84.25364557470407 l 11.85729020325371 -13.437793301631975 a38.92120586851124,38.92120586851124 0 0,0 0.4985417489592378,0.4475957046257001 l -12.086842939808937 13.231698588236977" fill="#ffe415" stroke="none" /><line stroke="#e1ed5e" stroke-width="0.3" x1="172.23445277983987" x2="176.4835382374775" y1="55.19839476539836" y2="52.563006222186495" /><path d="M 173.08426987136738 54.67131705675599 a86.0,86.0 0 0,1 12.851231095245387,41.99856678651699" fill="none" id="id39" stroke="none" /><text fill="#e1ed5e" style="font-size:6.75px; font-family:Arial;" text-anchor="middle"><textPath startOffset="22.20632615414155" xlink:href="#id39">March</textPath></text><path d="M 120.6074358757038 95.95851677861258 l 9.255999305078154 -1.815265427211695 a30.432322710066558,30.432322710066558 0 0,0 0.09638971022864887,0.5149176863152639 l -9.285874739216663 1.6556696634338677" fill="#ff760a" stroke="none" /><path d="M 120.83666639777658 97.38593545837742 l 32.68040137747435 -4.09992063106434 a53.93657516157158,53.93657516157158 0 0,0 0.10764108691508854,0.9222030973844998 l -32.746132817393026 3.5367737953549883" fill="#6eff28" stroke="none" /><path d="M 120.91429891909075 98.10471618934814 l 25.32764055056958 -2.295227168895753 a46.43142629927967,46.43142629927967 0 0,0 0.0652815156420628,0.796599842848745 l -25.363396550031137 1.858913408839239" fill="#c0ff1e" stroke="none" /><line stroke="#e1ed5e" stroke-width="0.3" x1="184.98032266829074" x2="189.97916517819016" y1="98.17113171792111" y2="98.06355123074" /><path d="M 185.9800911702706 98.14961562048488 a86.0,86.0 0 0,1 -9.607161424134198,41.387399972396054" fill="none" id="id40" stroke="none" /><text fill="#e1ed5e" style="font-size:6.75px; font-family:Arial;" text-anchor="middle"><textPath startOffset="21.466115282336823" xlink:href="#id40">April</textPath></text><path d="M 120.99513854157772 99.54816195383933 l 36.20772542922812 -0.7792293383282886 a57.21610938684723,57.21610938684723 0 0,0 0.012715579774305926,0.9848356665805565 l -36.21577401612014 0.15585741368726932" fill="#4cff2c" stroke="none" /><path d="M 120.9904718944345 100.63252640178507 l 9.801581877438027 0.2953606449591759 a30.806031063111735,30.806031063111735 0 0,0 -0.020534225247768843,0.5298971118661554 l -9.795045519339055 -0.4640350038393375" fill="#ff7b0b" stroke="none" /><path d="M 120.49622156327973 104.57218783832717 l 25.319245534655078 5.648082313696709 a46.9415695027584,46.9415695027584 0 0,0 -0.1827132059755758,0.7871237092939047 l -25.218271762748948 -6.083074680339178" fill="#baff1f" stroke="none" /><path d="M 120.23288151984713 105.62410040840565 l 18.335992894248953 5.096825433585001 a40.03119189431884,40.03119189431884 0 0,0 -0.19025750977516734,0.6623113509677453 l -18.245542747587685 -5.411694260057328" fill="#fff216" stroke="none" /><path d="M 119.79798401119884 107.00284435728193 l 24.962790613228353 8.829714040024166 a47.47838297986645,47.47838297986645 0 0,0 -0.2791632583198036,0.7681373910474425 l -24.807103093903322 -9.25809922807774" fill="#b4ff20" stroke="none" /><line stroke="#e1ed5e" stroke-width="0.3" x1="174.80103733775053" x2="179.2010983576182" y1="140.37084112569926" y2="142.7455964860345" /><path d="M 175.68104954172406 140.8457921977663 a86.0,86.0 0 0,1 -30.038265399797805,32.042727171017184" fill="none" id="id41" stroke="none" /><text fill="#e1ed5e" style="font-size:6.75px; font-family:Arial;" text-anchor="middle"><textPath startOffset="22.206326154141568" xlink:href="#id41">May</textPath></text><path d="M 118.30583269289576 110.29060199501023 l 4.601959931712257 2.58698628184305 a26.279254988682514,26.279254988682514 0 0,0 -0.2250605501103415,0.3924120395276035 l -4.556747385449536 -2.6658181672289696" fill="#ff3c05" stroke="none" /><path d="M 111.1453310114006 117.79835938074945 l 12.307272562527992 19.653903490227805 a44.18932686240683,44.18932686240683 0 0,0 -0.6481538959338702,0.39814906121228244 l -11.967139466661813 -19.862841018268465" fill="#daff1c" stroke="none" /><line stroke="#e1ed5e" stroke-width="0.3" x1="143.8653032363475" x2="146.44561519142675" y1="172.8068346515853" y2="177.08958963109032" /><path d="M 144.38136562736335 173.6633856474863 a86.0,86.0 0 0,1 -40.68145358897372,12.25698825130547" fill="none" id="id42" stroke="none" /><text fill="#e1ed5e" style="font-size:6.75px; font-family:Arial;" text-anchor="middle"><textPath startOffset="21.466115282336833" xlink:href="#id42">June</textPath></text><path d="M 103.41894727170886 120.7198165907248 l 1.8212266171864055 11.037163921919019 a32.18641380561523,32.18641380561523 0 0,0 -0.5474206043057841,0.08549584011922384 l -1.6309701492721043 -11.066878069385348" fill="#ff8d0d" stroke="none" /><path d="M 103.06178313531737 120.77559828337769 l 0.39249440229121507 2.6632539504243713 a23.692020330584626,23.692020330584626 0 0,0 -0.403973099876318,0.055986990631588365 l -0.34659271122806606 -2.669615506548562" fill="#ff1802" stroke="none" /><line stroke="#e1ed5e" stroke-width="0.3" x1="102.19456741930631" x2="102.32365962044197" y1="184.97166512339345" y2="189.96999836594603" /><path d="M 102.22038585953345 185.97133177190398 a86.0,86.0 0 0,1 -42.740103519485714,-10.115201625700543" fill="none" id="id43" stroke="none" /><text fill="#e1ed5e" style="font-size:6.75px; font-family:Arial;" text-anchor="middle"><textPath startOffset="22.20632615414155" xlink:href="#id43">July</textPath></text><path d="M 97.2962882734958 120.8252237178851 l -1.8282399937786165 14.081940211004769 a35.200123294576166,35.200123294576166 0 0,0 -0.6001979875469597,-0.08318197205748676 l 2.0703665725124067 -14.048383673454676" fill="#ffb510" stroke="none" /><line stroke="#e1ed5e" stroke-width="0.3" x1="58.666819895761336" x2="56.23545636021788" y1="174.27360380694188" y2="178.64263932499728" /><path d="M 58.180547188652646 175.14741091055294 a86.0,86.0 0 0,1 -31.652253787137756,-30.449443065178592" fill="none" id="id44" stroke="none" /><text fill="#e1ed5e" style="font-size:6.75px; font-family:Arial;" text-anchor="middle"><textPath startOffset="22.20632615414155" xlink:href="#id44">August</textPath></text><path d="M 86.51685102203217 116.09983520530335 l -8.92272907395182 10.654370719105161 a34.897147532759035,34.897147532759035 0 0,0 -0.4572100026307525,-0.3896442832011056 l 9.10480455315963 -10.499202045681102" fill="#ffb110" stroke="none" /><path d="M 84.67929136418377 114.36230785411684 l -16.971627818955724 15.909952294993776 a44.262904652130814,44.262904652130814 0 0,0 -0.5163027374800904,-0.5603446505055633 l 17.24297696443155 -15.61545638968687" fill="#d9ff1c" stroke="none" /><line stroke="#e1ed5e" stroke-width="0.3" x1="26.63291911575756" x2="22.317208475507996" y1="142.92168965132927" y2="145.44649492493687" /><path d="M 25.769776987707644 143.4266507060508 a86.0,86.0 0 0,1 -11.730757126820373,-40.83630448921669" fill="none" id="id45" stroke="none" /><text fill="#e1ed5e" style="font-size:6.75px; font-family:Arial;" text-anchor="middle"><textPath startOffset="21.46611528233685" xlink:href="#id45">September</textPath></text><line stroke="#e1ed5e" stroke-width="0.3" x1="15.007084014347285" x2="10.007500721073583" y1="101.09737516637583" y2="101.16192664675087" /><path d="M 14.007167355692545 101.11028546245083 a86.0,86.0 0 0,1 10.666146001902526,-42.60595125391555" fill="none" id="id46" stroke="none" /><text fill="#e1ed5e" style="font-size:6.75px; font-family:Arial;" text-anchor="middle"><textPath startOffset="22.20632615414155" xlink:href="#id46">October</textPath></text><path d="M 79.03285615573316 98.82574320788736 l -15.880188833433088 -0.8893638416464166 a36.90507357506783,36.90507357506783 0 0,0 0.04098116689091573,-0.6339605131086387 l 15.86252707553776 1.162583419008067" fill="#ffcb12" stroke="none" /><path d="M 80.14247586403 93.16781622104843 l -17.22875261436116 -5.927728116426528 a39.219985655019876,39.219985655019876 0 0,0 0.2251356400664814,-0.6364887715592876 l 17.12416389348487 6.223414514412426" fill="#ffe815" stroke="none" /><line stroke="#e1ed5e" stroke-width="0.3" x1="26.266209847984243" x2="21.928928074336255" y1="57.71137044288968" y2="55.22380399835378" /><path d="M 25.398753493254645 57.2138571539825 a86.0,86.0 0 0,1 29.58750427330803,-30.4925239686951" fill="none" id="id47" stroke="none" /><text fill="#e1ed5e" style="font-size:6.75px; font-family:Arial;" text-anchor="middle"><textPath startOffset="21.46611528233685" xlink:href="#id47">November</textPath></text><path d="M 85.05521093208273 85.24692304244772 l -5.7120375639703616 -5.638763409956126 a29.026395574955703,29.026395574955703 0 0,0 0.354072542689789,-0.3525520426675923 l 5.614129221113259 5.73625130327383" fill="#ff6309" stroke="none" /><path d="M 85.83668400450813 84.49514656593477 l -10.90826084266553 -11.941482181144272 a37.17371791809837,37.17371791809837 0 0,0 0.4761581747702487,-0.4274995107119948 l 10.70109168029931 12.127480700625547" fill="#ffce13" stroke="none" /><line stroke="#e1ed5e" stroke-width="0.3" x1="56.76296977257108" x2="54.21961505331056" y1="26.818313649435495" y2="22.513508569990535" /><path d="M 56.25429882871898 25.957352633546506 a86.0,86.0 0 0,1 42.26535254187918,-11.944610805530505" fill="none" id="id48" stroke="none" /><text fill="#e1ed5e" style="font-size:6.75px; font-family:Arial;" text-anchor="middle"><textPath startOffset="22.20632615414155" xlink:href="#id48">December</textPath></text><path d="M 89.3179101791058 81.91981866633112 l -4.764790399972951 -8.064739755317289 a30.36713696263002,30.36713696263002 0 0,0 0.45233046036113106,-0.2620189985521709 l 4.625263207146498 8.145562911259507" fill="#ff750a" stroke="none" /><path d="M 89.63071344664047 81.73862282372117 l -0.5272448809229023 -0.9285323136986614 a22.067782478804553,22.067782478804553 0 0,0 0.33193718536439715,-0.18472268427452299 l 0.5111836064864597 0.9374703955333691" fill="#ff0000" stroke="none" /><path d="M 89.94658935756843 81.56283822128135 l -1.2857637275873555 -2.3579892135991356 a23.685759016484763,23.685759016484763 0 0,0 0.3596343613877643,-0.19210422092668358 l 1.2449843196712869 2.3797721610275686" fill="#ff1802" stroke="none" /><path d="M 92.23578459929587 80.48803036053334 l -13.98284261280761 -35.13977735725874 a58.81962242344921,58.81962242344921 0 0,0 0.94396204690785,-0.36624260886994797 l 13.375897400900083 35.37526267001924" fill="#3cff2e" stroke="none" /><path d="M 99.27714615592234 79.0124445844662 l -2.1685615322329856 -62.9626662466014 a84.0,84.0 0 0,0 1.4454934592204836,-0.03733283143056143 l 1.084441437817623 62.990665870174325" fill="#4dd2ff" stroke="none" /></svg>