<?xml version="1.0" encoding="utf-8" ?>
<svg baseProfile="full" height="200mm" version="1.1" viewBox="0,0,200,200" width="200mm" xmlns="http://www.w3.org/2000/svg" xmlns:ev="http://www.w3.org/2001/xml-events" xmlns:xlink="http://www.w3.org/1999/xlink"><defs /><rect fill="#1a1a1a" height="200" width="200" x="0" y="0" /><text alignment-baseline="middle" fill="#e1ed5e" style="dominant-baseline: central; font-size:9.0px; font-family:Arial;" text-anchor="middle" x="100.0" y="100.0">2015</text><line stroke="#e1ed5e" stroke-width="0.3" x1="100.0" x2="100.0" y1="15.0" y2="10.0" /><path d="M 100.0 14.0 a86.0,86.0 0 0,1 42.46469731375804,11.215312516191453" fill="none" id="id13" stroke="none" /><text fill="#e1ed5e" style="font-size:6.75px; font-family:Arial;" text-anchor="middle"><textPath startOffset="22.20632615414155" xlink:href="#id13">January</textPath></text><path d="M 102.16513564639614 79.11191278185805 l 4.332006282928083 -41.79291270639641 a63.01682794928478,63.01682794928478 0 0,0 1.0779877542181928,0.12112448454667017 l -5.050760740656002 41.712152268379135" fill="#30ff37" stroke="none" /><path d="M 103.95276090670814 79.375362276772 l 4.411935137069758 -23.020507945729666 a44.43947434848131,44.43947434848131 0 0,0 0.7500401168917054,0.15045099143740007 l -4.807541663428588 22.94115299821506" fill="#fff417" stroke="none" /><line stroke="#e1ed5e" stroke-width="0.3" x1="143.23703022742887" x2="145.7803849466894" y1="26.81831364943548" y2="22.513508569990506" /><path d="M 143.74570117128098 25.957352633546492 a86.0,86.0 0 0,1 28.547481713284135,27.462654790039103" fill="none" id="id14" stroke="none" /><text fill="#e1ed5e" style="font-size:6.75px; font-family:Arial;" text-anchor="middle"><textPath startOffset="19.985693538727396" xlink:href="#id14">February</textPath></text><line stroke="#e1ed5e" stroke-width="0.3" x1="172.23445277983987" x2="176.4835382374775" y1="55.19839476539836" y2="52.563006222186495" /><path d="M 173.08426987136738 54.67131705675599 a86.0,86.0 0 0,1 12.851231095245387,41.99856678651699" fill="none" id="id15" stroke="none" /><text fill="#e1ed5e" style="font-size:6.75px; font-family:Arial;" text-anchor="middle"><textPath startOffset="22.20632615414155" xlink:href="#id15">March</textPath></text><line stroke="#e1ed5e" stroke-width="0.3" x1="184.98032266829074" x2="189.97916517819016" y1="98.17113171792111" y2="98.06355123074" /><path d="M 185.9800911702706 98.14961562048488 a86.0,86.0 0 0,1 -9.607161424134198,41.387399972396054" fill="none" id="id16" stroke="none" /><text fill="#e1ed5e" style="font-size:6.75px; font-family:Arial;" text-anchor="middle"><textPath startOffset="21.466115282336823" xlink:href="#id16">April</textPath></text><line stroke="#e1ed5e" stroke-width="0.3" x1="174.80103733775053" x2="179.2010983576182" y1="140.37084112569926" y2="142.7455964860345" /><path d="M 175.68104954172406 140.8457921977663 a86.0,86.0 0 0,1 -30.038265399797805,32.042727171017184" fill="none" id="id17" stroke="none" /><text fill="#e1ed5e" style="font-size:6.75px; font-family:Arial;" text-anchor="middle"><textPath startOffset="22.206326154141568" xlink:href="#id17">May</textPath></text><line stroke="#e1ed5e" stroke-width="0.3" x1="143.8653032363475" x2="146.44561519142675" y1="172.8068346515853" y2="177.08958963109032" /><path d="M 144.38136562736335 173.6633856474863 a86.0,86.0 0 0,1 -40.68145358897372,12.25698825130547" fill="none" id="id18" stroke="none" /><text fill="#e1ed5e" style="font-size:6.75px; font-family:Arial;" text-anchor="middle"><textPath startOffset="21.466115282336833" xlink:href="#id18">June</textPath></text><path d="M 107.59598834532513 119.57807347666477 l 17.78835256727367 45.84810531011891 a70.17798539575799,70.17798539575799 0 0,0 -1.1299650813979194,0.427256106516141 l -16.996517265115475 -46.14750966674168" fill="#3aff92" stroke="none" /><path d="M 106.91757812671514 119.82793768551818 l 14.003848714771953 40.139400609238166 a63.5121072177695,63.5121072177695 0 0,0 -1.03533888693231,0.35124316324180527 l -13.310840094902417 -40.37450675937809" fill="#31ff3d" stroke="none" /><path d="M 105.53697534728816 120.25689768951611 l 1.8619560122564969 6.811923491971502 a28.061811513489392,28.061811513489392 0 0,0 -0.46704149123747146,0.12334990270987418 l -1.744424078207528 -6.84296474398496" fill="#ff0000" stroke="none" /><path d="M 104.83641907484287 120.43548508189849 l 2.9152355495353897 12.317843359073713 a33.658114524997444,33.658114524997444 0 0,0 -0.5649431990232876,0.1285792328005562 l -2.70277220111924 -12.366199325451953" fill="#ff5808" stroke="none" /><path d="M 104.13013068566511 120.58985236759428 l 5.976342189321259 29.793731177427347 a51.38721908034145,51.38721908034145 0 0,0 -0.8687679509819073,0.16650144549083273 l -5.462606623767647 -29.892189821266648" fill="#b0ff20" stroke="none" /><path d="M 103.41894727170886 120.7198165907248 l 1.3775310266139493 8.348239370538142 a29.461128312293056,29.461128312293056 0 0,0 -0.5010694500370864,0.07825674308208627 l -1.2336257129683459 -8.370714420967333" fill="#ff1702" stroke="none" /><path d="M 102.70371172650421 120.8252237178851 l 1.5019704240210991 11.568862830775402 a32.66595484098626,32.66595484098626 0 0,0 -0.5582340662986656,0.06759437125222006 l -1.3026089346710532 -11.593002730752973" fill="#ff4906" stroke="none" /><line stroke="#e1ed5e" stroke-width="0.3" x1="102.19456741930631" x2="102.32365962044197" y1="184.97166512339345" y2="189.96999836594603" /><path d="M 102.22038585953345 185.97133177190398 a86.0,86.0 0 0,1 -42.740103519485714,-10.115201625700543" fill="none" id="id19" stroke="none" /><text fill="#e1ed5e" style="font-size:6.75px; font-family:Arial;" text-anchor="middle"><textPath startOffset="22.20632615414155" xlink:href="#id19">July</textPath></text><path d="M 97.65516085044442 120.86867818915974 l -1.7420896362695355 15.50430783402335 a36.6018728911934,36.6018728911934 0 0,0 -0.625495640267051,-0.07573881114994313 l 2.0087126995879756 -15.47202349414806" fill="#ff850c" stroke="none" /><path d="M 97.2962882734958 120.8252237178851 l -2.394126806279051 18.44065913573262 a39.59542289179848,39.59542289179848 0 0,0 -0.6751423265437848,-0.09356857454807418 l 2.7111977240096667 -18.39671599569194" fill="#ffb010" stroke="none" /><path d="M 94.46302465271185 120.25689768951611 l -4.490087754621535 16.426883371778924 a38.029485763059,38.029485763059 0 0,0 -0.6299653709513119,-0.17803450638485013 l 4.772184293677461 -16.34716007205555" fill="#ff9a0e" stroke="none" /><path d="M 94.11515582081647 120.15858648285463 l -6.738157595030025 23.08161923725937 a45.04503928857848,45.04503928857848 0 0,0 -0.7424388273856837,-0.22369072837273793 l 7.134471396855955 -22.962213139780907" fill="#fffc17" stroke="none" /><path d="M 93.08242187328487 119.8279376855182 l -6.772518915087895 19.41215271624587 a41.55963729091725,41.55963729091725 0 0,0 -0.673425316067739,-0.24146635901677527 l 7.105663791785361 -19.292698816189137" fill="#ffcc13" stroke="none" /><path d="M 92.40401165467489 119.57807347666478 l -6.2083462327947165 16.001533070944646 a38.163700753823214,38.163700753823214 0 0,0 -0.6103991782597462,-0.24289043023290707 l 6.48286648709632 -15.892295796305673" fill="#ff9c0e" stroke="none" /><path d="M 92.06813273071674 119.44442032107085 l -14.037421305943319 34.41176091709632 a58.16474789818908,58.16474789818908 0 0,0 -0.9237906416752881,-0.3861445631419112 l 14.627683407116068 -34.16503131093444" fill="#5fff29" stroke="none" /><path d="M 91.40352486487194 119.15986991738527 l -6.391287244499168 14.244935311782731 a36.613030925434444,36.613030925434444 0 0,0 -0.572788210998211,-0.2629389741816145 l 6.635543451264798 -14.132809267267042" fill="#ff850c" stroke="none" /><path d="M 91.07499286063937 119.00905698771935 l -5.41980513704688 11.54345123805007 a33.75247247434,33.75247247434 0 0,0 -0.5237858668122825,-0.2514490464846061 l 5.617703671859404 -11.448447915065902" fill="#ff5a08" stroke="none" /><line stroke="#e1ed5e" stroke-width="0.3" x1="58.666819895761336" x2="56.23545636021788" y1="174.27360380694188" y2="178.64263932499728" /><path d="M 58.180547188652646 175.14741091055294 a86.0,86.0 0 0,1 -31.652253787137756,-30.449443065178592" fill="none" id="id20" stroke="none" /><text fill="#e1ed5e" style="font-size:6.75px; font-family:Arial;" text-anchor="middle"><textPath startOffset="22.20632615414155" xlink:href="#id20">August</textPath></text><path d="M 89.7882731507175 118.34994917583269 l -11.157150170040412 20.04882637276572 a43.9442245203916,43.9442245203916 0 0,0 -0.6578057697464962,-0.3735192837380837 l 11.500604706708115 -19.853803923233006" fill="#ffed16" stroke="none" /><path d="M 89.1626897886671 117.98757091392108 l -10.917095133130749 18.11999647992542 a42.15460324795378,42.15460324795378 0 0,0 -0.6183092675700391,-0.3798160528946079 l 11.227383600633097 -17.92939196020243" fill="#ffd413" stroke="none" /><path d="M 88.54995079064634 117.60387380957326 l -16.958619052775834 26.073022423852297 a52.10301044098266,52.10301044098266 0 0,0 -0.747616919889715,-0.4954797281982826 l 17.40491067140551 -25.7772446745627" fill="#a7ff21" stroke="none" /><path d="M 87.36589467227662 116.77436683061367 l -8.087607463450057 10.737958158084037 a34.44295874752343,34.44295874752343 0 0,0 -0.4705093033499252,-0.36076647026276704 l 8.271245495293469 -10.597152345993905" fill="#ff6409" stroke="none" /><path d="M 86.79598089348748 116.32954008644616 l -33.68917799875988 41.663737243369596 a74.58010559262337,74.58010559262337 0 0,0 -0.9913112041520237,-0.8157816328939268 l 34.4013593314566 -41.07766049161849" fill="#40ffc7" stroke="none" /><path d="M 86.51685102203217 116.09983520530335 l -7.073364930441489 8.44609889819995 a32.016763501018524,32.016763501018524 0 0,0 -0.4194722365427534,-0.3574833402375652 l 7.2177026435612985 -8.323091167739433" fill="#ff3f05" stroke="none" /><path d="M 85.97065885151581 115.62618273729859 l -14.109359964518926 15.715309420337164 a42.11977719544663,42.11977719544663 0 0,0 -0.5353232147533528,-0.48900506428627005 l 14.377782728739135 -15.470111589464318" fill="#ffd413" stroke="none" /><path d="M 85.44109423537348 115.13401014063109 l -14.211949502679307 14.773348448636186 a41.49954470351788,41.49954470351788 0 0,0 -0.5105433024065095,-0.49967407652593876 l 14.46414275746161 -14.526524269187679" fill="#ffcb12" stroke="none" /><path d="M 84.19399662182784 113.82643327865904 l -7.414000071399558 6.485458395937255 a30.850307998440744,30.850307998440744 0 0,0 -0.3461955315181465,-0.40270361525203907 l 7.524538112488484 -6.356877681523686" fill="#ff2d04" stroke="none" /><path d="M 83.72743513129214 113.27417163493432 l -13.140393728664124 10.71913635694438 a37.957884053828245,37.957884053828245 0 0,0 -0.408647508612809,-0.5098505994213602 l 13.322959149331794 -10.491357923944761" fill="#ff990e" stroke="none" /><path d="M 83.28015986056508 112.70617746262583 l -25.09467042565907 19.070597154962318 a52.518727125620174,52.518727125620174 0 0,0 -0.540789668020504,-0.7244761348979669 l 25.41922136037466 -18.635808140555042" fill="#a2ff22" stroke="none" /><path d="M 83.06392112726016 112.41649034213515 l -16.08114523008311 11.789705630220515 a40.939919527377185,40.939919527377185 0 0,0 -0.4117780144142158,-0.5719236468984376 l 16.281703036872933 -11.511148377870938" fill="#ffc312" stroke="none" /><path d="M 82.6465618267979 111.8261652097733 l -15.254440722712875 10.395722989815333 a39.4599300714747,39.4599300714747 0 0,0 -0.3776820669083881,-0.5645834454522768 l 15.431125895031995 -10.131602630157236" fill="#ffae10" stroke="none" /><path d="M 82.44556493220864 111.52570212397912 l -18.586662093136606 12.203430639451483 a43.23483139437636,43.23483139437636 0 0,0 -0.4031033199872531,-0.625625304370906 l 18.793970276500904 -11.881683735159127" fill="#ffe315" stroke="none" /><line stroke="#e1ed5e" stroke-width="0.3" x1="26.63291911575756" x2="22.317208475507996" y1="142.92168965132927" y2="145.44649492493687" /><path d="M 25.769776987707644 143.4266507060508 a86.0,86.0 0 0,1 -11.730757126820373,-40.83630448921669" fill="none" id="id21" stroke="none" /><text fill="#e1ed5e" style="font-size:6.75px; font-family:Arial;" text-anchor="middle"><textPath startOffset="21.46611528233685" xlink:href="#id21">September</textPath></text><path d="M 81.51974371655577 109.97397251340807 l -55.44076885033272 29.92191754022421 a84.0,84.0 0 0,0 -0.6757899671004557,-1.2783399396554953 l 55.94761132565806 -28.96316258548259" fill="#4dd2ff" stroke="none" /><path d="M 80.87730276802145 108.67885076344099 l -11.184092671392467 5.075909012311776 a33.28205117981368,33.28205117981368 0 0,0 -0.232275300896739,-0.5237194846335554 l 11.269809057020485 -4.882641191185524" fill="#ff5207" stroke="none" /><path d="M 80.45479744820244 107.68017299344265 l -15.245136795525587 5.990487312067594 a37.37986978429105,37.37986978429105 0 0,0 -0.2301633805313608,-0.600883957810571 l 15.345994455650457 -5.727179787423865" fill="#ff900d" stroke="none" /><path d="M 79.97269907076064 106.31721596034903 l -10.674225416778176 3.366973283393681 a32.192658189155964,32.192658189155964 0 0,0 -0.16214863610828473,-0.5299111246591739 l 10.730600825392592 -3.1827351861824593" fill="#ff4206" stroke="none" /><path d="M 79.86692584326677 105.97154293290107 l -23.238238523907967 6.892545964427548 a45.238872077012715,45.238872077012715 0 0,0 -0.21500821582159502,-0.7484718057029495 l 23.353439376615665 -6.491516683220002" fill="#ffff18" stroke="none" /><path d="M 79.4281124754447 104.21870165774334 l -14.357351292934542 2.9442792562427154 a35.65613579656897,35.65613579656897 0 0,0 -0.11812379796171628,-0.6023107009349407 l 14.405905023871924 -2.69670482823982" fill="#ff760a" stroke="none" /><path d="M 79.29508885075956 103.50808413554451 l -10.069526783466257 1.7061047452412952 a31.213038874139233,31.213038874139233 0 0,0 -0.08519412520564253,-0.5305038989796876 l 10.09740266303319 -1.532521616568394" fill="#ff3204" stroke="none" /><path d="M 79.23777060512086 103.15116336523772 l -31.550215614790662 4.788497502835639 a52.911531045602366,52.911531045602366 0 0,0 -0.1289175570529966,-0.9016490937675437 l 31.627967222860256 -4.244702937087696" fill="#9dff22" stroke="none" /><path d="M 79.10278846688536 102.07522291339032 l -15.970577513838862 1.5859775522813386 a37.04913302711009,37.04913302711009 0 0,0 -0.057559186790181356,-0.6351608298999825 l 15.995511296906118 -1.31083533383279" fill="#ff8b0c" stroke="none" /><path d="M 79.07016306316243 101.71520430193888 l -19.342719187688942 1.5851396865652168 a40.40756175823522,40.40756175823522 0 0,0 -0.05084318274457023,-0.6937148334528563 l 19.367138929097848 -1.2519517166155998" fill="#ffbc11" stroke="none" /><path d="M 79.04373962182676 101.35467743843564 l -8.941672557650925 0.5780173493332366 a29.960335495079292,29.960335495079292 0 0,0 -0.028838462332826862,-0.5149301175358779 l 8.950297370871283 -0.42401551546192107" fill="#ff1e03" stroke="none" /><path d="M 79.0235259727143 100.99374915477108 l -21.011083204513977 0.9953887458946005 a42.03464799283466,42.03464799283466 0 0,0 -0.02801882944048742,-0.7230414889890148 l 21.025104166805665 -0.633570009891589" fill="#ffd313" stroke="none" /><path d="M 79.0095281055655 100.63252640178507 l -18.097849257211347 0.5453601771453168 a39.106064328273035,39.106064328273035 0 0,0 -0.014484024618160653,-0.673015710124011 l 18.104555344514516 -0.23375465123117706" fill="#ffa90f" stroke="none" /><line stroke="#e1ed5e" stroke-width="0.3" x1="15.007084014347285" x2="10.007500721073583" y1="101.09737516637583" y2="101.16192664675087" /><path d="M 14.007167355692545 101.11028546245083 a86.0,86.0 0 0,1 10.666146001902534,-42.60595125391555" fill="none" id="id22" stroke="none" /><text fill="#e1ed5e" style="font-size:6.75px; font-family:Arial;" text-anchor="middle"><textPath startOffset="22.20632615414155" xlink:href="#id22">October</textPath></text><path d="M 79.03285615573316 98.82574320788736 l -11.667983156680798 -0.6534608897498814 a32.6862672431799,32.6862672431799 0 0,0 0.03629640163727448,-0.5614892681609926 l 11.655006164039111 0.8542092221638857" fill="#ff4906" stroke="none" /><path d="M 79.08570108090925 98.10471618934814 l -12.489999021926607 -1.1318616527808587 a33.54117962429226,33.54117962429226 0 0,0 0.0570565401994469,-0.5745515733283767 l 12.468665356044932 1.3466887568136656" fill="#ff5608" stroke="none" /><path d="M 79.16333360222342 97.38593545837743 l -17.082048666586463 -2.143028873484268 a38.21595072600452,38.21595072600452 0 0,0 0.08750361003404648,-0.6520035326518182 l 17.042629057494583 2.4367507482007458" fill="#ff9c0e" stroke="none" /><path d="M 79.21141760316559 97.0276538004421 l -7.49474000215143 -1.071596010580386 a28.570960686051713,28.570960686051713 0 0,0 0.073800296952176,-0.4862517480478821 l 7.475183811759952 1.20044687102036" fill="#ff0801" stroke="none" /><path d="M 79.26566170972629 96.67025291283419 l -11.874471397552155 -1.9069326444905355 a33.026614780639974,33.026614780639974 0 0,0 0.09497218032816837,-0.5605311843637438 l 11.839887355703762 2.1110496171701074" fill="#ff4e07" stroke="none" /><path d="M 79.3925641242962 95.95851677861259 l -19.225659638995953 -3.770492424179561 a40.59190143082885,40.59190143082885 0 0,0 0.14037202200266335,-0.68450383139391 l 19.157908321078295 4.100871911736874" fill="#ffbe11" stroke="none" /><path d="M 79.46518482838121 95.60439243477599 l -27.45353246348328 -5.8766029292240765 a49.07545024948479,49.07545024948479 0 0,0 0.1839292092874623,-0.8245185803420539 l 27.348308867193783 6.3482996791160895" fill="#cdff1d" stroke="none" /><path d="M 79.62865764111835 94.90015583598534 l -51.93878527236291 -13.002565382824953 a74.54161112726493,74.54161112726493 0 0,0 0.3223167485072747,-1.2420179132750755 l 51.707272191985325 13.894679721648892" fill="#40ffc6" stroke="none" /><path d="M 80.14247586403 93.16781622104843 l -14.404147966658384 -4.955894068846082 a36.23287118920831,36.23287118920831 0 0,0 0.20798861882257494,-0.58801183346005 l 14.316706267026 5.203103528732743" fill="#ff7f0b" stroke="none" /><path d="M 80.38941819471856 92.48833698450439 l -12.863787227218952 -4.92736195760811 a34.77519211076365,34.77519211076365 0 0,0 0.21892879529268014,-0.5571499043146394 l 12.777064882044579 5.148060866818512" fill="#ff6909" stroke="none" /><path d="M 81.26839172434947 90.50648371742162 l -16.335854382984273 -8.279305081149243 a39.314121083164494,39.314121083164494 0 0,0 0.3111255270296676,-0.6009954889550404 l 16.190919422794494 8.559273292364619" fill="#ffac0f" stroke="none" /><line stroke="#e1ed5e" stroke-width="0.3" x1="26.266209847984243" x2="21.928928074336255" y1="57.711370442889674" y2="55.22380399835377" /><path d="M 25.398753493254645 57.213857153982495 a86.0,86.0 0 0,1 29.58750427330803,-30.492523968695096" fill="none" id="id23" stroke="none" /><text fill="#e1ed5e" style="font-size:6.75px; font-family:Arial;" text-anchor="middle"><textPath startOffset="21.46611528233685" xlink:href="#id23">November</textPath></text><path d="M 81.78341655067845 89.55222093294921 l -16.327375794613253 -9.3642595232744 a39.8221294427001,39.8221294427001 0 0,0 0.34614973675025396,-0.5916821061919368 l 16.163766383392677 9.64392104182023" fill="#ffb410" stroke="none" /><path d="M 81.96595687620814 89.24020034530311 l -21.461527834697844 -12.80476808222779 a45.99118369823946,45.99118369823946 0 0,0 0.4114769921436035,-0.6763599844937995 l 21.23793504426802 13.172295839928664" fill="#f5ff19" stroke="none" /><path d="M 82.34701348167596 88.62581576622439 l -24.476023012700907 -15.770407730590733 a50.11668701118553,50.11668701118553 0 0,0 0.473491396558725,-0.7211598813364455 l 24.20093498078426 16.189385675904845" fill="#c0ff1e" stroke="none" /><path d="M 84.07557802195018 86.31012108654704 l -26.247602043535302 -22.564492088930677 a55.61347882353367,55.61347882353367 0 0,0 0.6303076407020148,-0.7205505930152647 l 25.855302539255444 23.012958238148883" fill="#7cff26" stroke="none" /><path d="M 85.05521093208273 85.24692304244772 l -13.541182323730148 -13.367475714133874 a40.02769102367549,40.02769102367549 0 0,0 0.48826959248713575,-0.48617280768543053 l 13.3090769310757 13.598584372469414" fill="#ffb610" stroke="none" /><path d="M 85.57189188830299 84.74124197986013 l -14.24924470464909 -15.069597152639194 a41.73966569151493,41.73966569151493 0 0,0 0.5263016384834037,-0.48914001454567624 l 13.98773518237083 15.312641753259516" fill="#ffcf13" stroke="none" /><path d="M 86.10567301691215 84.25364557470407 l -11.757640300871815 -13.324860686525005 a38.77059418702663,38.77059418702663 0 0,0 0.5042137953631585,-0.43724923473368316 l 11.526532706861884 13.525274914678368" fill="#ffa40f" stroke="none" /><line stroke="#e1ed5e" stroke-width="0.3" x1="56.762969772571076" x2="54.21961505331055" y1="26.818313649435495" y2="22.513508569990535" /><path d="M 56.25429882871897 25.957352633546506 a86.0,86.0 0 0,1 42.265352541879196,-11.944610805530505" fill="none" id="id24" stroke="none" /><text fill="#e1ed5e" style="font-size:6.75px; font-family:Arial;" text-anchor="middle"><textPath startOffset="22.20632615414155" xlink:href="#id24">December</textPath></text><path d="M 90.26544431104013 81.39251694778311 l -8.976592633128211 -17.158646026035047 a40.36487409584426,40.36487409584426 0 0,0 0.618427376673232,-0.31678252218165553 l 8.679904768866216 17.31062107352921" fill="#ffbb11" stroke="none" /><path d="M 96.40284397218896 79.31037775812273 l -6.852418702086222 -39.4127897965027 a61.004045315592876,61.004045315592876 0 0,0 1.0361124414977096,-0.1709674306010944 l 6.172977054449627 39.52490349004342" fill="#3fff2d" stroke="none" /></svg>