<?xml version="1.0" encoding="utf-8" ?>
<svg baseProfile="full" height="200mm" version="1.1" viewBox="0,0,200,200" width="200mm" xmlns="http://www.w3.org/2000/svg" xmlns:ev="http://www.w3.org/2001/xml-events" xmlns:xlink="http://www.w3.org/1999/xlink"><defs /><rect fill="#1a1a1a" height="200" width="200" x="0" y="0" /><text alignment-baseline="middle" fill="#e1ed5e" style="dominant-baseline: central; font-size:9.0px; font-family:Arial;" text-anchor="middle" x="100.0" y="100.0">2020</text><line stroke="#e1ed5e" stroke-width="0.3" x1="100.0" x2="100.0" y1="15.0" y2="10.0" /><path d="M 100.0 14.0 a86.0,86.0 0 0,1 42.35913384403234,11.155469271406648" fill="none" id="id73" stroke="none" /><text fill="#e1ed5e" style="font-size:6.75px; font-family:Arial;" text-anchor="middle"><textPath startOffset="22.145653131862478" xlink:href="#id73">January</textPath></text><path d="M 100.0 79.0 l 0.0 -18.097590883496828 a39.09759088349683,39.09759088349683 0 0,0 0.6711621377207472,0.005761119744602258 l -0.3106692128718925 18.09492416194666" fill="#ffe015" stroke="none" /><path d="M 101.08105385017728 79.02784411241856 l 0.47316785668084543 -9.179330011799319 a30.19151713734548,30.19151713734548 0 0,0 0.5173613314077773,0.031123172975974008 l -0.630673540221085 9.169854860998653" fill="#ff6a09" stroke="none" /><path d="M 101.44090949804482 79.04949213459386 l 1.8402337871017513 -26.756595388659353 a47.819803451621674,47.819803451621674 0 0,0 0.8184723821079589,0.0633549387562741 l -2.2992751639849436 26.721062682908027" fill="#b5ff1f" stroke="none" /><path d="M 102.15924093988457 79.11130261209362 l 0.9929206695926284 -9.605606773288844 a30.656788955918877,30.656788955918877 0 0,0 0.5230108026241396,0.0586044513301742 l -1.1576673738175647 9.5871465614517" fill="#ff700a" stroke="none" /><path d="M 103.23170211078529 79.25015418208739 l 1.4827208593159622 -9.520131548985184 a30.634903520878332,30.634903520878332 0 0,0 0.5189297321035781,0.08538968994172128 l -1.6459280944726102 9.493275860547794" fill="#ff700a" stroke="none" /><path d="M 103.94208987418118 79.37332000966035 l 2.3820913108474704 -12.464108314330458 a33.68969483811871,33.68969483811871 0 0,0 0.5671155012697402,0.11343898324988257 l -2.5957032976481678 12.421379934417716" fill="#ff990e" stroke="none" /><line stroke="#e1ed5e" stroke-width="0.3" x1="143.13028292997686" x2="145.6673583964461" y1="26.7553504044142" y2="22.446841604673864" /><path d="M 143.63769802327073 25.89364864446614 a86.0,86.0 0 0,1 29.32050498858742,28.57503671076992" fill="none" id="id74" stroke="none" /><text fill="#e1ed5e" style="font-size:6.75px; font-family:Arial;" text-anchor="middle"><textPath startOffset="20.669276256404974" xlink:href="#id74">February</textPath></text><line stroke="#e1ed5e" stroke-width="0.3" x1="172.87174338648825" x2="177.1583165268699" y1="56.24261187166439" y2="53.66864786411523" /><path d="M 173.72905801456457 55.72781907015455 a86.0,86.0 0 0,1 12.242430191666344,42.057860355516425" fill="none" id="id75" stroke="none" /><text fill="#e1ed5e" style="font-size:6.75px; font-family:Arial;" text-anchor="middle"><textPath startOffset="22.145653131862474" xlink:href="#id75">March</textPath></text><line stroke="#e1ed5e" stroke-width="0.3" x1="184.99686870605535" x2="189.99668451229388" y1="99.2704041080226" y2="99.22748670261217" /><path d="M 185.99683186730306 99.26182062694052 a86.0,86.0 0 0,1 -10.086455211305974,41.156179273409016" fill="none" id="id76" stroke="none" /><text fill="#e1ed5e" style="font-size:6.75px; font-family:Arial;" text-anchor="middle"><textPath startOffset="21.40746469413373" xlink:href="#id76">April</textPath></text><path d="M 120.77682067341334 103.0534771498775 l 7.722195354665968 1.1348967887341745 a28.805145214325215,28.805145214325215 0 0,0 -0.07609840358244224,0.4886063403106362 l -7.701575458945259 -1.2672913109762614" fill="#ff5708" stroke="none" /><path d="M 120.65975698304385 103.76489593502545 l 61.97927094913153 11.294687805076347 a84.0,84.0 0 0,0 -0.27069483087136303,1.4163897398667418 l -61.776249825978006 -12.356980109976403" fill="#4dd2ff" stroke="none" /><path d="M 120.51834098615036 104.47187691870673 l 58.806729451506676 12.816652977759247 a81.18719151393432,81.18719151393432 0 0,0 -0.3084693363547498,1.3591728123912814 l -58.57804925359426 -13.824260124089545" fill="#49ecff" stroke="none" /><path d="M 120.43855184770803 104.8234425847677 l 6.942120959098961 1.638321643931997 a28.13282140669014,28.13282140669014 0 0,0 -0.11495938052301817,0.46907350251872015 l -6.9129740520596465 -1.7572509710588167" fill="#ff4d07" stroke="none" /><path d="M 120.35273937422433 105.17358676015961 l 51.833149633148466 13.175783944791405 a74.48155460953039,74.48155460953039 0 0,0 -0.3256281047224676,1.2364629524525712 l -51.59933204762127 -14.063627401616781" fill="#41ffcf" stroke="none" /><path d="M 120.16314734710363 105.8691983318838 l 9.354639973539538 2.722999360313584 a30.742895593755073,30.742895593755073 0 0,0 -0.15184601260611785,0.5054459907266697 l -9.30651764092979 -2.8831829546309775" fill="#ff710a" stroke="none" /><path d="M 120.05942366710727 106.21446072829308 l 9.662590075047046 2.9934951049186185 a31.115664086038514,31.115664086038514 0 0,0 -0.16244641313582364,0.5088610754477408 l -9.609778946133968 -3.1589252140577417" fill="#ff770a" stroke="none" /><line stroke="#e1ed5e" stroke-width="0.3" x1="174.33088141563837" x2="178.70328620479359" y1="141.23008692659167" y2="143.65538615756765" /><path d="M 175.20536237346943 141.71514677278685 a86.0,86.0 0 0,1 -30.301960400862466,31.63118572779886" fill="none" id="id77" stroke="none" /><text fill="#e1ed5e" style="font-size:6.75px; font-family:Arial;" text-anchor="middle"><textPath startOffset="22.145653131862474" xlink:href="#id77">May</textPath></text><path d="M 118.18653347947321 110.5 l 16.538504029242688 9.54850975327697 a40.09701950655395,40.09701950655395 0 0,0 -0.3492761434851635,0.5931472506962734 l -16.37215417562776 -9.831008172266793" fill="#ffec16" stroke="none" /><path d="M 118.00360718960297 110.81064883170644 l 31.536287818202975 18.93663472368464 a57.78496410234481,57.78496410234481 0 0,0 -0.5179514960407492,0.8460348432164706 l -31.20656835770682 -19.475206683025668" fill="#4aff2c" stroke="none" /><path d="M 117.62189284568427 111.42229804090321 l 1.9988105430355907 1.2956048450517956 a23.381981423410334,23.381981423410334 0 0,0 -0.2212108704019616,0.33494145221257676 l -1.9762752337129024 -1.3297261756034335" fill="#ff0901" stroke="none" /><path d="M 113.03279911837588 116.46651593811092 l 5.260590671680587 6.646584463729609 a29.476490974953293,29.476490974953293 0 0,0 -0.3994626761200515,0.31062459307934975 l -5.145718050925305 -6.735910108429752" fill="#ff6008" stroke="none" /><line stroke="#e1ed5e" stroke-width="0.3" x1="143.1302829299769" x2="145.6673583964461" y1="173.24464959558577" y2="177.55315839532614" /><path d="M 143.63769802327073 174.10635135553383 a86.0,86.0 0 0,1 -40.685524379131806,11.842963189579606" fill="none" id="id78" stroke="none" /><text fill="#e1ed5e" style="font-size:6.75px; font-family:Arial;" text-anchor="middle"><textPath startOffset="21.407464694133747" xlink:href="#id78">June</textPath></text><line stroke="#e1ed5e" stroke-width="0.3" x1="101.45913802915013" x2="101.54496967792366" y1="184.9874750549273" y2="189.98673829345242" /><path d="M 101.47630435890484 185.9873277026323 a86.0,86.0 0 0,1 -42.54439059252881,-10.42667462771756" fill="none" id="id79" stroke="none" /><text fill="#e1ed5e" style="font-size:6.75px; font-family:Arial;" text-anchor="middle"><textPath startOffset="22.145653131862474" xlink:href="#id79">July</textPath></text><path d="M 95.70440661134978 120.55596938700252 l -1.3606387887863172 6.511149161128676 a27.651796848372367,27.651796848372367 0 0,0 -0.4638096237147267,-0.10108514876343704 l 1.4722108291201803 -6.48683255423152" fill="#ff4606" stroke="none" /><path d="M 93.61358852112213 120.00534299687104 l -3.5026647068225203 10.972047306186301 a32.51757275373636,32.51757275373636 0 0,0 -0.5303109188114263,-0.17432373232658896 l 3.6904983632816903 -10.910302652457691" fill="#ff8a0c" stroke="none" /><path d="M 91.59046798132341 119.24265499422711 l -6.837639640457613 15.645857615378079 a38.074723317624844,38.074723317624844 0 0,0 -0.5966610063719221,-0.2668788789285458 l 7.105214049685171 -15.52617498553968" fill="#ffd313" stroke="none" /><line stroke="#e1ed5e" stroke-width="0.3" x1="58.13341422392154" x2="55.670673884152215" y1="173.97424548756322" y2="178.32567169271397" /><path d="M 57.64086615596767 174.84453072859336 a86.0,86.0 0 0,1 -31.369924170532244,-30.572349798747886" fill="none" id="id80" stroke="none" /><text fill="#e1ed5e" style="font-size:6.75px; font-family:Arial;" text-anchor="middle"><textPath startOffset="22.145653131862474" xlink:href="#id80">August</textPath></text><path d="M 88.1277618465304 117.32195027204791 l -4.972061791146673 7.2543867451498505 a29.794744197711864,29.794744197711864 0 0,0 -0.4194034591459808,-0.292776186997995 l 5.095860341466419 -7.167965742346727" fill="#ff6409" stroke="none" /><path d="M 87.54013794807813 116.9041958592261 l -5.2559731751111505 7.130737050914062 a29.85847983046564,29.85847983046564 0 0,0 -0.4099811149896603,-0.30765747191114035 l 5.377607279011579 -7.039460551738906" fill="#ff6509" stroke="none" /><path d="M 86.13680546590413 115.77377054828092 l -2.506427137683826 2.8518539842005945 a24.79674177996328,24.79674177996328 0 0,0 -0.31732151129077285,-0.2837508520977518 l 2.55501367579797 -2.8084076022194653" fill="#ff1d03" stroke="none" /><path d="M 85.08716467003676 114.78537596483093 l -2.681325361737465 2.6584081886608217 a24.77579657728478,24.77579657728478 0 0,0 -0.2968532109927357,-0.30459754581908344 l 2.72656537388101 -2.611987950774001" fill="#ff1d02" stroke="none" /><line stroke="#e1ed5e" stroke-width="0.3" x1="26.387840678322732" x2="22.057713659400548" y1="142.50000000000003" y2="145.00000000000006" /><path d="M 25.521815274538298 143.00000000000003 a86.0,86.0 0 0,1 -11.493303480769221,-40.785679425670985" fill="none" id="id81" stroke="none" /><text fill="#e1ed5e" style="font-size:6.75px; font-family:Arial;" text-anchor="middle"><textPath startOffset="21.40746469413373" xlink:href="#id81">September</textPath></text><path d="M 81.29705330413844 109.54985784667822 l -2.9090768113773113 1.4853953478821875 a24.2663629978928,24.2663629978928 0 0,0 -0.1862502140017074,-0.3726251920755754 l 2.934146938590756 -1.4352382996428594" fill="#ff1602" stroke="none" /><path d="M 80.68587082218212 108.24405325689762 l -3.3597064880423346 1.4340589192483983 a24.65296491492454,24.65296491492454 0 0,0 -0.16279662329756253,-0.39065263188436067 l 3.3838289558763828 -1.3761737779227565" fill="#ff1b02" stroke="none" /><line stroke="#e1ed5e" stroke-width="0.3" x1="15.003131293944662" x2="10.003315487706104" y1="100.72959589197737" y2="100.7725132973878" /><path d="M 14.003168132696942 100.73817937305945 a86.0,86.0 0 0,1 10.791469493833604,-42.453326145846276" fill="none" id="id82" stroke="none" /><text fill="#e1ed5e" style="font-size:6.75px; font-family:Arial;" text-anchor="middle"><textPath startOffset="22.145653131862435" xlink:href="#id82">October</textPath></text><path d="M 79.2786578344484 96.59031103205396 l -6.5915538602764165 -1.084637679328062 a27.680196193851128,27.680196193851128 0 0,0 0.08117571116424203,-0.46819993038956254 l 6.57196333161994 1.1976306426382175" fill="#ff4706" stroke="none" /><path d="M 80.68587082218212 91.75594674310238 l -6.444746202971543 -2.750878925750708 a28.00728824045761,28.00728824045761 0 0,0 0.19253826088125842,-0.44056522040683194 l 6.3965740600733065 2.8611062159334066" fill="#ff4b07" stroke="none" /><path d="M 80.83023694016515 91.42560881287825 l -4.3086992271965014 -1.9272263598833557 a25.720073142724907,25.720073142724907 0 0,0 0.18373383507015317,-0.4014915883061784 l 4.274980927271302 2.0009069304042053" fill="#ff2b04" stroke="none" /><line stroke="#e1ed5e" stroke-width="0.3" x1="26.387840678322718" x2="22.05771365940052" y1="57.5" y2="55.0" /><path d="M 25.521815274538284 57.0 a86.0,86.0 0 0,1 29.574782752854787,-30.346332500585742" fill="none" id="id83" stroke="none" /><text fill="#e1ed5e" style="font-size:6.75px; font-family:Arial;" text-anchor="middle"><textPath startOffset="21.40746469413373" xlink:href="#id83">November</textPath></text><path d="M 82.98947788004972 87.6856937992154 l -1.4568197326711692 -1.0546251397197188 a22.798487675473183,22.798487675473183 0 0,0 0.2322166890631863,-0.31504653722066167 l 1.438501024024164 1.0794779862092438" fill="#ff0000" stroke="none" /><path d="M 83.8745106332314 86.54754324733833 l -4.059541744850731 -3.386614106159846 a26.286684621029192,26.286684621029192 0 0,0 0.29203935378381124,-0.34402162443482237 l 4.000807827559805 3.455802513044223" fill="#ff3304" stroke="none" /><path d="M 87.83215693770416 82.88440491214696 l -2.8874484665775095 -4.0615578733194235 a25.98333332273327,25.98333332273327 0 0,0 0.36575242275563,-0.25532359684806444 l 2.817300952648114 4.110526285972617" fill="#ff2e04" stroke="none" /><line stroke="#e1ed5e" stroke-width="0.3" x1="56.869717070023135" x2="54.33264160355391" y1="26.7553504044142" y2="22.446841604673864" /><path d="M 56.362301976729285 25.89364864446614 a86.0,86.0 0 0,1 42.16139366436587,-11.88097634709845" fill="none" id="id84" stroke="none" /><text fill="#e1ed5e" style="font-size:6.75px; font-family:Arial;" text-anchor="middle"><textPath startOffset="22.145653131862474" xlink:href="#id84">December</textPath></text></svg>