<?xml version="1.0" encoding="utf-8" ?>
<svg baseProfile="full" height="200mm" version="1.1" viewBox="0,0,200,200" width="200mm" xmlns="http://www.w3.org/2000/svg" xmlns:ev="http://www.w3.org/2001/xml-events" xmlns:xlink="http://www.w3.org/1999/xlink"><defs /><rect fill="#1a1a1a" height="200" width="200" x="0" y="0" /><text alignment-baseline="middle" fill="#e1ed5e" style="dominant-baseline: central; font-size:9.0px; font-family:Arial;" text-anchor="middle" x="100.0" y="100.0">2021</text><line stroke="#e1ed5e" stroke-width="0.3" x1="100.0" x2="100.0" y1="15.0" y2="10.0" /><path d="M 100.0 14.0 a86.0,86.0 0 0,1 42.46469731375804,11.215312516191453" fill="none" id="id109" stroke="none" /><text fill="#e1ed5e" style="font-size:6.75px; font-family:Arial;" text-anchor="middle"><textPath startOffset="22.20632615414155" xlink:href="#id109">January</textPath></text><path d="M 100.0 79.0 l 0.0 -2.5388206081694626 a23.538820608169463,23.538820608169463 0 0,0 0.40518210261672216,0.0034875302777772343 l -0.04370162334419378 2.5384444545002443" fill="#ff0100" stroke="none" /><path d="M 100.36148047927253 79.00311137660856 l 0.38825719431921346 -22.55223596792027 a43.55557782016895,43.55557782016895 0 0,0 0.7495155101383923,0.019357774340726996 l -0.7763993396524735 22.542211401437186" fill="#edff1a" stroke="none" /><path d="M 102.52436894288641 79.15227682838746 l 0.29560815232641136 -2.4413059526577343 a23.45913784367691,23.45913784367691 0 0,0 0.4004645428029704,0.05199179106516103 l -0.3375874236372278 2.4358558384284366" fill="#ff0000" stroke="none" /><path d="M 108.76106565485865 80.91482961587045 l 4.041388799599046 -8.803791327152771 a30.68708238643478,30.68708238643478 0 0,0 0.47816580897551386,0.22450525881750324 l -4.192332819874157 8.732921085695265" fill="#ff6909" stroke="none" /><path d="M 110.05341064243156 81.56283822128135 l 6.579091040280158 -12.065533795526493 a34.742690591266566,34.742690591266566 0 0,0 0.5225894780287982,0.29082047872740335 l -6.7858046073809914 11.95049791923891" fill="#ffa00e" stroke="none" /><path d="M 110.36928655335952 81.73862282372117 l 12.8682103794107 -22.662238343291868 a47.060849661838375,47.060849661838375 0 0,0 0.7009898831990949,0.4060585861150956 l -13.256396995075123 22.437375599786723" fill="#c3ff1e" stroke="none" /><line stroke="#e1ed5e" stroke-width="0.3" x1="143.23703022742887" x2="145.7803849466894" y1="26.81831364943548" y2="22.513508569990506" /><path d="M 143.74570117128098 25.957352633546492 a86.0,86.0 0 0,1 28.547481713284135,27.462654790039103" fill="none" id="id110" stroke="none" /><text fill="#e1ed5e" style="font-size:6.75px; font-family:Arial;" text-anchor="middle"><textPath startOffset="19.985693538727396" xlink:href="#id110">February</textPath></text><path d="M 114.94478906791727 85.2469230424477 l 14.057381648525551 -13.877053221687461 a40.75303989085855,40.75303989085855 0 0,0 0.48852364301246887,0.5034665565649128 l -14.29416955524113 13.633022469572433" fill="#ffef16" stroke="none" /><path d="M 115.68641384162765 86.03803664274999 l 5.201771151713878 -4.629926186206843 a27.963809273991252,27.963809273991252 0 0,0 0.3169340063127211,0.36231035679813145 l -5.280697021604447 4.539700273205764" fill="#ff4206" stroke="none" /><line stroke="#e1ed5e" stroke-width="0.3" x1="172.23445277983987" x2="176.4835382374775" y1="55.19839476539836" y2="52.563006222186495" /><path d="M 173.08426987136738 54.67131705675599 a86.0,86.0 0 0,1 12.851231095245387,41.99856678651699" fill="none" id="id111" stroke="none" /><text fill="#e1ed5e" style="font-size:6.75px; font-family:Arial;" text-anchor="middle"><textPath startOffset="22.20632615414155" xlink:href="#id111">March</textPath></text><path d="M 118.03404312379186 89.2402003453031 l 7.818663359432922 -4.6649135048385615 a30.10455461490369,30.10455461490369 0 0,0 0.2616807237776348,0.4472971819888811 l -7.897803757680884 4.5296369104957845" fill="#ff6008" stroke="none" /><path d="M 118.89224826269711 90.83032412892265 l 9.867771736461725 -4.789491813517713 a31.96868956961888,31.96868956961888 0 0,0 0.23602301768504388,0.497124668618676 l -9.948752947988526 4.618924729258496" fill="#ff7a0b" stroke="none" /><path d="M 120.28053869075195 94.5502522615342 l 3.8686935475839683 -1.039587963281129 a25.0059372060127,25.0059372060127 0 0,0 0.10812527730127751,0.41665080051832554 l -3.8860151567555485 0.9728407372139529" fill="#ff1702" stroke="none" /><path d="M 120.45610955862082 95.25157060432595 l 21.961121663467942 -5.09778437439187 a43.54502761687009,43.54502761687009 0 0,0 0.16320181388566488,0.7316017309895942 l -22.045617864355645 4.719004473852313" fill="#edff1a" stroke="none" /><path d="M 120.53481517161879 95.60439243477599 l 8.324375974733796 -1.7818855297456484 a29.512951979768367,29.512951979768367 0 0,0 0.10205958820941262,0.49767879783410524 l -8.353814858858206 1.6383310757481313" fill="#ff5808" stroke="none" /><path d="M 120.87857604477298 97.74499172005257 l 10.869448453689602 -1.1739639814980656 a31.932662123987463,31.932662123987463 0 0,0 0.054320308366050514,0.54699809217838 l -10.88804588773788 0.9866903586152507" fill="#ff7a0b" stroke="none" /><line stroke="#e1ed5e" stroke-width="0.3" x1="184.98032266829074" x2="189.97916517819016" y1="98.17113171792111" y2="98.06355123074" /><path d="M 185.9800911702706 98.14961562048488 a86.0,86.0 0 0,1 -9.607161424134198,41.387399972396054" fill="none" id="id112" stroke="none" /><text fill="#e1ed5e" style="font-size:6.75px; font-family:Arial;" text-anchor="middle"><textPath startOffset="21.466115282336823" xlink:href="#id112">April</textPath></text><path d="M 120.9904718944345 100.63252640178507 l 8.794861193684275 0.2650241468137386 a29.79885340340251,29.79885340340251 0 0,0 -0.01986287576796666,0.5125725648668146 l -8.788996185065105 -0.41637395869455934" fill="#ff5c08" stroke="none" /><path d="M 120.9764740272857 100.99374915477107 l 18.48645605553897 0.8757858949987417 a39.50718937135653,39.50718937135653 0 0,0 -0.038027831589168226,0.6790124786769104 l -18.46864187306227 -1.1938700900110755" fill="#ffdf14" stroke="none" /><path d="M 120.95626037817324 101.35467743843564 l 3.824240546926491 0.24721072818258658 a24.832222449817493,24.832222449817493 0 0,0 -0.031245370149374736,0.4263182511260566 l -3.8194186181127785 -0.31300211580541343" fill="#ff1402" stroke="none" /><path d="M 120.5718875245553 104.21870165774334 l 9.905313942136168 2.0312946149583504 a31.111449060596406,31.111449060596406 0 0,0 -0.11209893808788329,0.5236889190885067 l -9.868880965323841 -2.201497353463026" fill="#ff6f0a" stroke="none" /><path d="M 120.32669344350535 105.2749913415812 l 11.236652506321104 2.916029842430628 a32.60885823799043,32.60885823799043 0 0,0 -0.14567141521924606,0.5420975271274131 l -11.18479301476008 -3.1090183027335896" fill="#ff830c" stroke="none" /><path d="M 118.64920377521936 109.65438752849418 l 9.91177440678033 5.131163366085439 a32.16118763305961,32.16118763305961 0 0,0 -0.25874057062447664,0.4894396506915885 l -9.82198132793096 -5.301018031863163" fill="#ff7d0b" stroke="none" /><line stroke="#e1ed5e" stroke-width="0.3" x1="174.80103733775053" x2="179.2010983576182" y1="140.37084112569926" y2="142.7455964860345" /><path d="M 175.68104954172406 140.8457921977663 a86.0,86.0 0 0,1 -30.038265399797805,32.042727171017184" fill="none" id="id113" stroke="none" /><text fill="#e1ed5e" style="font-size:6.75px; font-family:Arial;" text-anchor="middle"><textPath startOffset="22.206326154141568" xlink:href="#id113">May</textPath></text><path d="M 118.48025628344425 109.97397251340804 l 24.616523704544143 13.285775209986506 a48.972934458627606,48.972934458627606 0 0,0 -0.4067635746652247,0.7383940404844538 l -24.38418372042741 -13.707539768868763" fill="#acff20" stroke="none" /><path d="M 116.71984013943494 112.70617746262583 l 4.835618642825429 3.674809573831144 a27.07350253665559,27.07350253665559 0 0,0 -0.28516543786369275,0.36861476912669083 l -4.771646387743667 -3.7575023370710876" fill="#ff3505" stroke="none" /><path d="M 116.0416608686014 113.55231037782055 l 4.966445216517616 4.195750527330348 a27.501530633340398,27.501530633340398 0 0,0 -0.30861627104835,0.358990445462351 l -4.893486435898486 -4.280618071954226" fill="#ff3b05" stroke="none" /><path d="M 111.1453310114006 117.79835938074945 l 3.159073303399606 5.044831948600129 a26.952316652016144,26.952316652016144 0 0,0 -0.39532733994437,0.24284234077404807 l -3.0717667635229273 -5.098462756202555" fill="#ff3304" stroke="none" /><line stroke="#e1ed5e" stroke-width="0.3" x1="143.8653032363475" x2="146.44561519142675" y1="172.8068346515853" y2="177.08958963109032" /><path d="M 144.38136562736335 173.6633856474863 a86.0,86.0 0 0,1 -40.68145358897372,12.25698825130547" fill="none" id="id114" stroke="none" /><text fill="#e1ed5e" style="font-size:6.75px; font-family:Arial;" text-anchor="middle"><textPath startOffset="21.466115282336833" xlink:href="#id114">June</textPath></text><path d="M 104.83641907484287 120.43548508189849 l 1.8094068886529175 7.645348119745479 a28.856545116067263,28.856545116067263 0 0,0 -0.4843500338833107,0.11023649080351589 l -1.6775367053767447 -7.675361344126679" fill="#ff4f07" stroke="none" /><line stroke="#e1ed5e" stroke-width="0.3" x1="102.19456741930631" x2="102.32365962044197" y1="184.97166512339345" y2="189.96999836594603" /><path d="M 102.22038585953345 185.97133177190398 a86.0,86.0 0 0,1 -42.740103519485714,-10.115201625700543" fill="none" id="id115" stroke="none" /><text fill="#e1ed5e" style="font-size:6.75px; font-family:Arial;" text-anchor="middle"><textPath startOffset="22.20632615414155" xlink:href="#id115">July</textPath></text><path d="M 95.86986931433489 120.58985236759428 l -9.369058121328825 46.70736551051909 a68.63777118016822,68.63777118016822 0 0,0 -1.156410929142832,-0.24233715377474516 l 10.171660511901043 -46.5391723760178" fill="#39ff8e" stroke="none" /><path d="M 94.46302465271185 120.25689768951611 l -10.847444773512732 39.68512864651705 a62.140934527609076,62.140934527609076 0 0,0 -1.0293759193812875,-0.2909119169752947 l 11.528951860998633 -39.49252793620323" fill="#31ff41" stroke="none" /><path d="M 93.42475214034765 119.94407469862007 l -15.553730366365 47.17765275017025 a70.6754410883812,70.6754410883812 0 0,0 -1.1521115534554716,-0.390858791793441 l 16.363511652757698 -46.90293097147869" fill="#3cffa5" stroke="none" /><path d="M 92.40401165467489 119.57807347666478 l -5.090424206707213 13.120175363044382 a35.073074296729466,35.073074296729466 0 0,0 -0.5609669740328314,-0.22322033600658908 l 5.315512256781902 -13.030608182631727" fill="#ffa50f" stroke="none" /><path d="M 92.06813273071674 119.44442032107085 l -23.795601807849774 58.333260963212545 a84.0,84.0 0 0,0 -1.3341141620101509,-0.5576598279201073 l 24.796187429357385 -57.91501609227247" fill="#4dd2ff" stroke="none" /><line stroke="#e1ed5e" stroke-width="0.3" x1="58.666819895761336" x2="56.23545636021788" y1="174.27360380694188" y2="178.64263932499728" /><path d="M 58.180547188652646 175.14741091055294 a86.0,86.0 0 0,1 -31.652253787137756,-30.449443065178592" fill="none" id="id116" stroke="none" /><text fill="#e1ed5e" style="font-size:6.75px; font-family:Arial;" text-anchor="middle"><textPath startOffset="22.20632615414155" xlink:href="#id116">August</textPath></text><line stroke="#e1ed5e" stroke-width="0.3" x1="26.63291911575756" x2="22.317208475507996" y1="142.92168965132927" y2="145.44649492493687" /><path d="M 25.769776987707644 143.4266507060508 a86.0,86.0 0 0,1 -11.730757126820373,-40.83630448921669" fill="none" id="id117" stroke="none" /><text fill="#e1ed5e" style="font-size:6.75px; font-family:Arial;" text-anchor="middle"><textPath startOffset="21.46611528233685" xlink:href="#id117">September</textPath></text><line stroke="#e1ed5e" stroke-width="0.3" x1="15.007084014347285" x2="10.007500721073583" y1="101.09737516637583" y2="101.16192664675087" /><path d="M 14.007167355692545 101.11028546245083 a86.0,86.0 0 0,1 10.666146001902534,-42.60595125391555" fill="none" id="id118" stroke="none" /><text fill="#e1ed5e" style="font-size:6.75px; font-family:Arial;" text-anchor="middle"><textPath startOffset="22.20632615414155" xlink:href="#id118">October</textPath></text><line stroke="#e1ed5e" stroke-width="0.3" x1="26.266209847984243" x2="21.928928074336255" y1="57.711370442889674" y2="55.22380399835377" /><path d="M 25.398753493254645 57.213857153982495 a86.0,86.0 0 0,1 29.58750427330803,-30.492523968695096" fill="none" id="id119" stroke="none" /><text fill="#e1ed5e" style="font-size:6.75px; font-family:Arial;" text-anchor="middle"><textPath startOffset="21.46611528233685" xlink:href="#id119">November</textPath></text><line stroke="#e1ed5e" stroke-width="0.3" x1="56.762969772571076" x2="54.21961505331055" y1="26.818313649435495" y2="22.513508569990535" /><path d="M 56.25429882871897 25.957352633546506 a86.0,86.0 0 0,1 42.265352541879196,-11.944610805530505" fill="none" id="id120" stroke="none" /><text fill="#e1ed5e" style="font-size:6.75px; font-family:Arial;" text-anchor="middle"><textPath startOffset="22.20632615414155" xlink:href="#id120">December</textPath></text></svg>