<?xml version="1.0" encoding="utf-8" ?>
<svg baseProfile="full" height="200mm" version="1.1" viewBox="0,0,200,200" width="200mm" xmlns="http://www.w3.org/2000/svg" xmlns:ev="http://www.w3.org/2001/xml-events" xmlns:xlink="http://www.w3.org/1999/xlink"><defs /><rect fill="#1a1a1a" height="200" width="200" x="0" y="0" /><text alignment-baseline="middle" fill="#e1ed5e" style="dominant-baseline: central; font-size:9.0px; font-family:Arial;" text-anchor="middle" x="100.0" y="100.0">2018</text><line stroke="#e1ed5e" stroke-width="0.3" x1="100.0" x2="100.0" y1="15.0" y2="10.0" /><path d="M 100.0 14.0 a86.0,86.0 0 0,1 42.46469731375804,11.215312516191453" fill="none" id="id49" stroke="none" /><text fill="#e1ed5e" style="font-size:6.75px; font-family:Arial;" text-anchor="middle"><textPath startOffset="22.20632615414155" xlink:href="#id49">January</textPath></text><path d="M 106.74666289553966 80.11325718540242 l 20.239988686618958 -59.66022844379275 a84.0,84.0 0 0,0 1.3652719837469054,0.4763165873111701 l -21.26394267442914 59.302991003309366" fill="#4dd2ff" stroke="none" /><line stroke="#e1ed5e" stroke-width="0.3" x1="143.23703022742887" x2="145.7803849466894" y1="26.81831364943548" y2="22.513508569990506" /><path d="M 143.74570117128098 25.957352633546492 a86.0,86.0 0 0,1 28.547481713284135,27.462654790039103" fill="none" id="id50" stroke="none" /><text fill="#e1ed5e" style="font-size:6.75px; font-family:Arial;" text-anchor="middle"><textPath startOffset="19.985693538727396" xlink:href="#id50">February</textPath></text><path d="M 114.16331599549186 84.49514656593476 l 2.2113404054657995 -2.420796718119324 a24.278762440205593,24.278762440205593 0 0,0 0.3061345183516299,0.2845186710627556 l -2.252682807612276 2.382373460981928" fill="#ff1b02" stroke="none" /><path d="M 114.68862486808459 84.99185889309783 l 0.993710616213685 -1.015326436715411 a22.420685947656622,22.420685947656622 0 0,0 0.2734941464514864,0.27231967567047016 l -1.0110405628324939 0.9980709103948221" fill="#ff0000" stroke="none" /><path d="M 114.94478906791727 85.2469230424477 l 1.9312571317014655 -1.9064829191854316 a23.713748556866236,23.713748556866236 0 0,0 0.2842665692058122,0.2929616873034718 l -1.9637879646103868 1.8729570363318455" fill="#ff1302" stroke="none" /><path d="M 115.4437574822437 85.77008943001954 l 1.9638175027051725 -1.8094655702400404 a23.67034545214946,23.67034545214946 0 0,0 0.27351237394187455,0.30201919467954064 l -1.9946735172630827 1.7753935882909508" fill="#ff1202" stroke="none" /><path d="M 115.68641384162765 86.03803664274999 l 1.852661918736565 -1.6489937141737698 a23.480229113312166,23.480229113312166 0 0,0 0.26611836066783723,0.3042192894534711 l -1.8807721429822504 1.6168588685173508" fill="#ff1001" stroke="none" /><line stroke="#e1ed5e" stroke-width="0.3" x1="172.23445277983987" x2="176.4835382374775" y1="55.19839476539836" y2="52.563006222186495" /><path d="M 173.08426987136738 54.67131705675599 a86.0,86.0 0 0,1 12.851231095245387,41.99856678651699" fill="none" id="id51" stroke="none" /><text fill="#e1ed5e" style="font-size:6.75px; font-family:Arial;" text-anchor="middle"><textPath startOffset="22.20632615414155" xlink:href="#id51">March</textPath></text><path d="M 119.47837535516314 92.15188598940014 l 56.86005713424032 -22.90972439446566 a82.30188878933053,82.30188878933053 0 0,0 0.518135264517546,1.318597732482226 l -57.24598594863957 21.92757765708765" fill="#4be2ff" stroke="none" /><path d="M 120.28053869075195 94.5502522615342 l 8.765084307412048 -2.355336764479689 a30.07602964903435,30.07602964903435 0 0,0 0.13004827690046913,0.501129060928375 l -8.80432891618282 2.204111278002464" fill="#ff6d0a" stroke="none" /><line stroke="#e1ed5e" stroke-width="0.3" x1="184.98032266829074" x2="189.97916517819016" y1="98.17113171792111" y2="98.06355123074" /><path d="M 185.9800911702706 98.14961562048488 a86.0,86.0 0 0,1 -9.607161424134198,41.387399972396054" fill="none" id="id52" stroke="none" /><text fill="#e1ed5e" style="font-size:6.75px; font-family:Arial;" text-anchor="middle"><textPath startOffset="21.466115282336823" xlink:href="#id52">April</textPath></text><path d="M 119.79798401119884 107.00284435728193 l 12.547401234586637 4.438204308301015 a34.30920490577585,34.30920490577585 0 0,0 -0.20173116333637017,0.5550775214145428 l -12.46914581024504 -4.653529626721689" fill="#ffa60f" stroke="none" /><path d="M 118.81262510543309 109.33194174019688 l 16.773655474686933 8.320517460091562 a39.723956013278375,39.723956013278375 0 0,0 -0.3091305587162709,0.6099439195709068 l -16.627946246184393 -8.608015591365163" fill="#ffeb16" stroke="none" /><line stroke="#e1ed5e" stroke-width="0.3" x1="174.80103733775053" x2="179.2010983576182" y1="140.37084112569926" y2="142.7455964860345" /><path d="M 175.68104954172406 140.8457921977663 a86.0,86.0 0 0,1 -30.038265399797805,32.042727171017184" fill="none" id="id53" stroke="none" /><text fill="#e1ed5e" style="font-size:6.75px; font-family:Arial;" text-anchor="middle"><textPath startOffset="22.206326154141568" xlink:href="#id53">May</textPath></text><path d="M 117.55443506779139 111.5257021239791 l 27.474803441201 18.039110866015477 a53.86752721104872,53.86752721104872 0 0,0 -0.5155812232678225,0.7707239738063982 l -27.16021911252246 -18.509371754027683" fill="#70ff27" stroke="none" /><path d="M 116.27256486870786 113.27417163493432 l 43.29953480377357 35.32113476489356 a76.87872828995816,76.87872828995816 0 0,0 -0.8453145659642262,1.018235849583856 l -42.6851242379158 -36.06123187159118" fill="#44ffe8" stroke="none" /><path d="M 116.0416608686014 113.55231037782055 l 18.799413407687016 15.882113922543502 a45.61015008328418,45.61015008328418 0 0,0 -0.5118273098441375,0.5953707927860922 l -18.5232435882721 -16.20336181449112" fill="#ccff1d" stroke="none" /><path d="M 114.29624159901734 115.38237550388516 l 20.68802006149311 22.25975902923116 a51.38899547705023,51.38899547705023 0 0,0 -0.6531307640604761,0.5966194673882961 l -20.301789747965767 -22.612571263206036" fill="#8bff24" stroke="none" /><path d="M 112.34349029814194 116.9893568818739 l 6.894410102430143 9.489341417298657 a32.72947105348534,32.72947105348534 0 0,0 -0.45863756690484353,0.32722572640394154 l -6.730045207676415 -9.606611405546818" fill="#ff910d" stroke="none" /><line stroke="#e1ed5e" stroke-width="0.3" x1="143.8653032363475" x2="146.44561519142675" y1="172.8068346515853" y2="177.08958963109032" /><path d="M 144.38136562736335 173.6633856474863 a86.0,86.0 0 0,1 -40.68145358897372,12.25698825130547" fill="none" id="id54" stroke="none" /><text fill="#e1ed5e" style="font-size:6.75px; font-family:Arial;" text-anchor="middle"><textPath startOffset="21.466115282336833" xlink:href="#id54">June</textPath></text><path d="M 110.5260780823613 118.17145234162733 l 15.338446668300382 26.479173956981306 a51.600892137981404,51.600892137981404 0 0,0 -0.7724192415019361,0.43859980422869177 l -14.880378659877247 -26.739276927004624" fill="#89ff24" stroke="none" /><path d="M 107.93186726928326 119.44442032107085 l 11.257675267940453 27.597407056426718 a50.80523659823068,50.80523659823068 0 0,0 -0.8125908666691484,0.3233466758118956 l -10.78096332522944 -27.787100576644683" fill="#91ff23" stroke="none" /><path d="M 105.18746579009965 120.34920634021253 l 7.575945023064986 29.718647743312438 a51.66908812931341,51.66908812931341 0 0,0 -0.8637268413385245,0.21228304323136443 l -7.063264896983251 -29.84465204485783" fill="#88ff25" stroke="none" /><path d="M 103.06178313531738 120.77559828337769 l 0.5311503857444096 3.604098185465737 a24.643026827070294,24.643026827070294 0 0,0 -0.42018873016141867,0.058234329231943556 l -0.4690330643961605 -3.612707080190283" fill="#ff2003" stroke="none" /><line stroke="#e1ed5e" stroke-width="0.3" x1="102.19456741930631" x2="102.32365962044197" y1="184.97166512339345" y2="189.96999836594603" /><path d="M 102.22038585953345 185.97133177190398 a86.0,86.0 0 0,1 -42.740103519485714,-10.115201625700543" fill="none" id="id55" stroke="none" /><text fill="#e1ed5e" style="font-size:6.75px; font-family:Arial;" text-anchor="middle"><textPath startOffset="22.20632615414155" xlink:href="#id55">July</textPath></text><path d="M 100.54218724476979 120.99299961872073 l 0.1956168638238786 7.5741079991906295 a28.576633681313606,28.576633681313606 0 0,0 -0.49184511140941045,0.00846755963652882 l -0.0652120625218002 -7.576353036106317" fill="#ff5808" stroke="none" /><path d="M 98.01472825383883 120.90594882070398 l -3.1558809212478067 33.23307509484214 a54.382583253075445,54.382583253075445 0 0,0 -0.9311525833423088,-0.09651777251663293 l 3.7274661011957084 -33.173827953869754" fill="#6bff28" stroke="none" /><path d="M 96.58105272829116 120.7198165907248 l -1.0205156915399718 6.18462242212245 a27.268253886123237,27.268253886123237 0 0,0 -0.46245793655733625,-0.08040424008946896 l 1.1268225995693582 -6.166139603511975" fill="#ff4606" stroke="none" /><path d="M 93.08242187328487 119.8279376855182 l -2.2027394403236786 6.313738646694686 a27.686954220026,27.686954220026 0 0,0 -0.4486347117530996,-0.16086444597616617 l 2.311093712706505 -6.274886659678562" fill="#ff4c07" stroke="none" /><path d="M 91.07499286063937 119.00905698771935 l -1.5002615798967318 3.195354067894431 a24.530024423049184,24.530024423049184 0 0,0 -0.38066781967220953,-0.1827436865879683 l 1.5550420675691834 -3.1690561048069004" fill="#ff1f03" stroke="none" /><path d="M 90.7491055286396 118.85261126421891 l -17.769660246959965 36.21320056890848 a61.338030699779864,61.338030699779864 0 0,0 -0.9438640443366064,-0.47327302612651634 l 18.39037819897933 -35.90195970187266" fill="#31ff3c" stroke="none" /><path d="M 90.42595943632237 118.69057910512821 l -11.548365987255718 22.544885472770893 a46.33054713100293,46.33054713100293 0 0,0 -0.7066712255707241,-0.3696969858738736 l 11.934728115352938 -22.342759067952304" fill="#c4ff1e" stroke="none" /><line stroke="#e1ed5e" stroke-width="0.3" x1="58.666819895761336" x2="56.23545636021788" y1="174.27360380694188" y2="178.64263932499728" /><path d="M 58.180547188652646 175.14741091055294 a86.0,86.0 0 0,1 -31.652253787137756,-30.449443065178592" fill="none" id="id56" stroke="none" /><text fill="#e1ed5e" style="font-size:6.75px; font-family:Arial;" text-anchor="middle"><textPath startOffset="22.20632615414155" xlink:href="#id56">August</textPath></text><path d="M 86.51685102203217 116.09983520530335 l -18.300541852328223 21.85214362547586 a49.50308778215515,49.50308778215515 0 0,0 -0.6485718316622566,-0.5527269854079804 l 18.673979160567537 -21.53389224984493" fill="#a0ff22" stroke="none" /><path d="M 83.06392112726016 112.41649034213515 l -6.810391467972549 4.992959735464485 a29.44458873285152,29.44458873285152 0 0,0 -0.2961567688365594,-0.41133584931098527 l 6.895328029184716 -4.874990280702361" fill="#ff6409" stroke="none" /><line stroke="#e1ed5e" stroke-width="0.3" x1="26.63291911575756" x2="22.317208475507996" y1="142.92168965132927" y2="145.44649492493687" /><path d="M 25.769776987707644 143.4266507060508 a86.0,86.0 0 0,1 -11.730757126820373,-40.83630448921669" fill="none" id="id57" stroke="none" /><text fill="#e1ed5e" style="font-size:6.75px; font-family:Arial;" text-anchor="middle"><textPath startOffset="21.46611528233685" xlink:href="#id57">September</textPath></text><path d="M 81.02952815118164 109.00673069616217 l -3.8096294441135115 1.808721824567459 a25.217197071530244,25.217197071530244 0 0,0 -0.18279511840187104,-0.39372442282047115 l 3.8401991793552095 -1.7428773344681607" fill="#ff2903" stroke="none" /><path d="M 80.58989483394504 108.01547362559985 l -30.190547178257777 12.467296420060416 a53.663475304202706,53.663475304202706 0 0,0 -0.34522834397433416,-0.8568284377738652 l 30.4006781364895 -11.945768614443747" fill="#73ff27" stroke="none" /><path d="M 79.58551787078972 104.9243191809786 l -3.919376791983707 0.9454201283231064 a25.031790378551317,25.031790378551317 0 0,0 -0.09743258948989329,-0.4197370454746817 l 3.9350699474041555 -0.8778144254998504" fill="#ff2603" stroke="none" /><path d="M 79.50377843672027 104.57218783832718 l -3.8208689243355387 0.8523390700941345 a24.914782398468905,24.914782398468905 0 0,0 -0.08977147429293016,-0.4193824414339125 l 3.8349744373529098 -0.7864428092440581" fill="#ff2403" stroke="none" /><line stroke="#e1ed5e" stroke-width="0.3" x1="15.007084014347285" x2="10.007500721073583" y1="101.09737516637583" y2="101.16192664675087" /><path d="M 14.007167355692545 101.11028546245083 a86.0,86.0 0 0,1 10.666146001902534,-42.60595125391555" fill="none" id="id58" stroke="none" /><text fill="#e1ed5e" style="font-size:6.75px; font-family:Arial;" text-anchor="middle"><textPath startOffset="22.20632615414155" xlink:href="#id58">October</textPath></text><path d="M 79.00175016825051 100.2711162175752 l -1.945471541727214 0.02511870703603961 a22.945633693456614,22.945633693456614 0 0,0 -0.0016998373586181636,-0.39498233794261706 l 1.9456156763753352 0.008373109110252849" fill="#ff0801" stroke="none" /><path d="M 79.00019446554 99.90962569577889 l -4.819491302623129 -0.0207410574569164 a25.819535932797308,25.819535932797308 0 0,0 0.005738075734392981,-0.44442028921004845 l 4.818420219771021 0.1036976047274368" fill="#ff3104" stroke="none" /><path d="M 79.01574976396665 99.18683210126434 l -6.98220295795003 -0.27056974845413145 a27.987443462009885,27.987443462009885 0 0,0 0.022798293923997313,-0.4812359518165833 l 6.9765110557925345 0.39071680689372384" fill="#ff5007" stroke="none" /><line stroke="#e1ed5e" stroke-width="0.3" x1="26.266209847984243" x2="21.928928074336255" y1="57.711370442889674" y2="55.22380399835377" /><path d="M 25.398753493254645 57.213857153982495 a86.0,86.0 0 0,1 29.58750427330803,-30.492523968695096" fill="none" id="id59" stroke="none" /><text fill="#e1ed5e" style="font-size:6.75px; font-family:Arial;" text-anchor="middle"><textPath startOffset="21.46611528233685" xlink:href="#id59">November</textPath></text><path d="M 82.34701348167596 88.62581576622439 l -11.631895231916474 -7.494670616694875 a34.83730733701578,34.83730733701578 0 0,0 0.32913519003495917,-0.5012954750906883 l 11.501163406523593 7.69378415576323" fill="#ffad10" stroke="none" /><path d="M 83.84228863543731 86.58626213691792 l -28.564939665040757 -23.713916166491853 a58.1255383532525,58.1255383532525 0 0,0 0.6457176753886147,-0.7643260578209645 l 28.15251137616502 24.202101173941934" fill="#45ff2d" stroke="none" /><path d="M 85.57189188830299 84.74124197986013 l -12.317488308993248 -13.026626364856323 a38.92800916699217,38.92800916699217 0 0,0 0.49084904414195696,-0.4561906918686121 l 12.091431381056434 13.236721642799584" fill="#ffe115" stroke="none" /><line stroke="#e1ed5e" stroke-width="0.3" x1="56.762969772571076" x2="54.21961505331055" y1="26.818313649435495" y2="22.513508569990535" /><path d="M 56.25429882871897 25.957352633546506 a86.0,86.0 0 0,1 42.265352541879196,-11.944610805530505" fill="none" id="id60" stroke="none" /><text fill="#e1ed5e" style="font-size:6.75px; font-family:Arial;" text-anchor="middle"><textPath startOffset="22.20632615414155" xlink:href="#id60">December</textPath></text><path d="M 96.40284397218896 79.31037775812273 l -1.486686267042061 -8.550915506438175 a29.67919305320813,29.67919305320813 0 0,0 0.5040810165450007,-0.08317768686274096 l 1.3392760443581746 8.575239456240542" fill="#ff6709" stroke="none" /></svg>