<?xml version="1.0" encoding="utf-8" ?>
<svg baseProfile="full" height="200mm" version="1.1" viewBox="0,0,200,200" width="200mm" xmlns="http://www.w3.org/2000/svg" xmlns:ev="http://www.w3.org/2001/xml-events" xmlns:xlink="http://www.w3.org/1999/xlink"><defs /><rect fill="#1a1a1a" height="200" width="200" x="0" y="0" /><text alignment-baseline="middle" fill="#e1ed5e" style="dominant-baseline: central; font-size:9.0px; font-family:Arial;" text-anchor="middle" x="100.0" y="100.0">2021</text><line stroke="#e1ed5e" stroke-width="0.3" x1="100.0" x2="100.0" y1="15.0" y2="10.0" /><path d="M 100.0 14.0 a86.0,86.0 0 0,1 42.46469731375804,11.215312516191453" fill="none" id="id109" stroke="none" /><text fill="#e1ed5e" style="font-size:6.75px; font-family:Arial;" text-anchor="middle"><textPath startOffset="22.20632615414155" xlink:href="#id109">January</textPath></text><path d="M 100.0 79.0 l 0.0 -3.357539497592242 a24.357539497592242,24.357539497592242 0 0,0 0.4192750024518659,0.0036088323159455832 l -0.05779452317933752 3.3570420418848554" fill="#ff0200" stroke="none" /><path d="M 100.36148047927253 79.00311137660856 l 0.5134623773560029 -29.824881197852054 a50.829300730639815,50.829300730639815 0 0,0 0.8746835921772987,0.022590496617979634 l -1.0267726047281696 29.811623909091715" fill="#9cff22" stroke="none" /><path d="M 102.52436894288641 79.15227682838746 l 0.3909358715824405 -3.2285783152144156 a24.252160634587824,24.252160634587824 0 0,0 0.41400201854102586,0.053749343944115804 l -0.44645261863131247 3.2213706481061632" fill="#ff0000" stroke="none" /><path d="M 108.76106565485865 80.91482961587045 l 5.3446558910533986 -11.642838022647098 a33.810972789580376,33.810972789580376 0 0,0 0.5268422378051005,0.2473594948326462 l -5.544276340158097 11.54911354517445" fill="#ff8b0c" stroke="none" /><path d="M 110.05341064243156 81.56283822128135 l 8.700716370000968 -15.956427227531869 a39.174433559776304,39.174433559776304 0 0,0 0.5892504707514943,0.32791724900525826 l -8.974090929824497 15.80429458096643" fill="#ffd313" stroke="none" /><path d="M 110.36928655335952 81.73862282372117 l 17.017950962415522 -29.97035714008705 a55.46495266301038,55.46495266301038 0 0,0 0.8261723060307399,0.4785723253854849 l -17.531320000911588 29.672980657311516" fill="#69ff28" stroke="none" /><line stroke="#e1ed5e" stroke-width="0.3" x1="143.23703022742887" x2="145.7803849466894" y1="26.81831364943548" y2="22.513508569990506" /><path d="M 143.74570117128098 25.957352633546492 a86.0,86.0 0 0,1 28.547481713284135,27.462654790039103" fill="none" id="id110" stroke="none" /><text fill="#e1ed5e" style="font-size:6.75px; font-family:Arial;" text-anchor="middle"><textPath startOffset="19.985693538727396" xlink:href="#id110">February</textPath></text><path d="M 114.94478906791727 85.2469230424477 l 18.59060619162205 -18.352125452297933 a47.12300034813876,47.12300034813876 0 0,0 0.5648830090074933,0.5821615954005535 l -18.903753464332656 18.029399661347266" fill="#c8ff1d" stroke="none" /><path d="M 115.68641384162765 86.03803664274999 l 6.8792383530823535 -6.122984818661308 a30.209498542704488,30.209498542704488 0 0,0 0.34238602144746694,0.39140640992283854 l -6.983616238107669 6.0036628525355225" fill="#ff5808" stroke="none" /><line stroke="#e1ed5e" stroke-width="0.3" x1="172.23445277983987" x2="176.4835382374775" y1="55.19839476539836" y2="52.563006222186495" /><path d="M 173.08426987136738 54.67131705675599 a86.0,86.0 0 0,1 12.851231095245387,41.99856678651699" fill="none" id="id111" stroke="none" /><text fill="#e1ed5e" style="font-size:6.75px; font-family:Arial;" text-anchor="middle"><textPath startOffset="22.20632615414155" xlink:href="#id111">March</textPath></text><path d="M 118.03404312379186 89.2402003453031 l 10.340025980252735 -6.169254848076873 a33.04059145776575,33.04059145776575 0 0,0 0.2872019200187373,0.49092117918223505 l -10.444687574741799 5.990354256540743" fill="#ff800b" stroke="none" /><path d="M 118.89224826269711 90.83032412892265 l 13.049930842606093 -6.334007170705556 a35.50587266714248,35.50587266714248 0 0,0 0.26213783940659,0.5521291432741243 l -13.15702687585444 6.108435611790892" fill="#ffa20f" stroke="none" /><path d="M 120.28053869075195 94.5502522615342 l 5.1162698728284495 -1.3748342977468377 a26.297771867292237,26.297771867292237 0 0,0 0.11371114996133784,0.43817544649840173 l -5.13917735466009 1.2865624256995856" fill="#ff1f03" stroke="none" /><path d="M 120.45610955862082 95.25157060432595 l 29.04314434791311 -6.741717919002646 a50.815348297699266,50.815348297699266 0 0,0 0.19045014940358984,0.8537506762547801 l -29.154888884318737 6.240789073197901" fill="#9dff22" stroke="none" /><path d="M 120.53481517161879 95.60439243477599 l 11.008820803659972 -2.3565079892047858 a32.25820880026137,32.25820880026137 0 0,0 0.11155303979028684,0.543972239273153 l -11.047753139365255 2.166660093768221" fill="#ff750a" stroke="none" /><path d="M 120.87857604477298 97.74499172005257 l 9.675182695525514 -1.0449762973120107 a30.731450850399455,30.731450850399455 0 0,0 0.05227694077769459,0.5264216594210802 l -9.691736761985437 0.8782791071864955" fill="#ff5f08" stroke="none" /><line stroke="#e1ed5e" stroke-width="0.3" x1="184.98032266829074" x2="189.97916517819016" y1="98.17113171792111" y2="98.06355123074" /><path d="M 185.9800911702706 98.14961562048488 a86.0,86.0 0 0,1 -9.607161424134198,41.387399972396054" fill="none" id="id112" stroke="none" /><text fill="#e1ed5e" style="font-size:6.75px; font-family:Arial;" text-anchor="middle"><textPath startOffset="21.466115282336823" xlink:href="#id112">April</textPath></text><path d="M 120.9904718944345 100.63252640178507 l 11.631028099668386 0.35048913573472046 a32.636307717207536,32.636307717207536 0 0,0 -0.02175422379298681,0.5613798533765592 l -11.623271743024196 -0.5506462361252857" fill="#ff7a0b" stroke="none" /><path d="M 120.9764740272857 100.99374915477107 l 24.447968547777105 1.1582093372137041 a45.475387943440396,45.475387943440396 0 0,0 -0.04377254929248499,0.7815882723527012 l -24.424409647597088 -1.5788693259018287" fill="#dcff1b" stroke="none" /><path d="M 120.95626037817324 101.35467743843564 l 5.05748166817401 0.3269312457251691 a26.06803757517124,26.06803757517124 0 0,0 -0.032800345790637064,0.44753465831718214 l -5.051104763719034 -0.4139390405391215" fill="#ff1b02" stroke="none" /><path d="M 120.5718875245553 104.21870165774334 l 13.099579659057746 2.6863465181522006 a34.37218923211857,34.37218923211857 0 0,0 -0.12384784473302848,0.5785758995222036 l -13.051397775600273 -2.911436237090573" fill="#ff920d" stroke="none" /><path d="M 120.32669344350535 105.2749913415812 l 14.860248293751726 3.856391168644951 a36.352482932657956,36.352482932657956 0 0,0 -0.16239506446025498,0.6043324473034299 l -14.791665152949694 -4.111614549123929" fill="#ffad10" stroke="none" /><path d="M 118.64920377521936 109.65438752849418 l 13.108123494390478 6.785860968196563 a35.76044750757528,35.76044750757528 0 0,0 -0.28769704338858176,0.5442143846295967 l -12.989373942777004 -7.010490367912294" fill="#ffa50f" stroke="none" /><line stroke="#e1ed5e" stroke-width="0.3" x1="174.80103733775053" x2="179.2010983576182" y1="140.37084112569926" y2="142.7455964860345" /><path d="M 175.68104954172406 140.8457921977663 a86.0,86.0 0 0,1 -30.038265399797805,32.042727171017184" fill="none" id="id113" stroke="none" /><text fill="#e1ed5e" style="font-size:6.75px; font-family:Arial;" text-anchor="middle"><textPath startOffset="22.206326154141568" xlink:href="#id113">May</textPath></text><path d="M 118.48025628344425 109.97397251340804 l 32.55486045980049 17.570172102795564 a57.99364657990527,57.99364657990527 0 0,0 -0.48168857454605996,0.8744046787055386 l -32.24759547580292 -18.127947299898906" fill="#4eff2b" stroke="none" /><path d="M 116.71984013943494 112.70617746262583 l 6.3950089802863515 4.859862193715349 a29.032085681804375,29.032085681804375 0 0,0 -0.30579521117885966,0.3952815320579725 l -6.310406951889424 -4.9692217198865745" fill="#ff4706" stroke="none" /><path d="M 116.0416608686014 113.55231037782055 l 6.56802450847796 5.548796189941282 a29.598144282429438,29.598144282429438 0 0,0 -0.33214401918853925,0.3863585319111996 l -6.471537979718642 -5.661031821014009" fill="#ff4f07" stroke="none" /><path d="M 111.1453310114006 117.79835938074945 l 4.177811286793131 6.671689394530696 a28.871819772146047,28.871819772146047 0 0,0 -0.42348195360126734,0.26013720402583335 l -4.062350133259555 -6.742615065384908" fill="#ff4506" stroke="none" /><line stroke="#e1ed5e" stroke-width="0.3" x1="143.8653032363475" x2="146.44561519142675" y1="172.8068346515853" y2="177.08958963109032" /><path d="M 144.38136562736335 173.6633856474863 a86.0,86.0 0 0,1 -40.68145358897372,12.25698825130547" fill="none" id="id114" stroke="none" /><text fill="#e1ed5e" style="font-size:6.75px; font-family:Arial;" text-anchor="middle"><textPath startOffset="21.466115282336833" xlink:href="#id114">June</textPath></text><path d="M 104.83641907484287 120.43548508189849 l 2.3929044361460257 10.11082004072602 a31.39012384606046,31.39012384606046 0 0,0 -0.5268755316094738,0.11991515563485666 l -2.2185087551436897 -10.15051192993856" fill="#ff6909" stroke="none" /><line stroke="#e1ed5e" stroke-width="0.3" x1="102.19456741930631" x2="102.32365962044197" y1="184.97166512339345" y2="189.96999836594603" /><path d="M 102.22038585953345 185.97133177190398 a86.0,86.0 0 0,1 -42.740103519485714,-10.115201625700543" fill="none" id="id115" stroke="none" /><text fill="#e1ed5e" style="font-size:6.75px; font-family:Arial;" text-anchor="middle"><textPath startOffset="22.20632615414155" xlink:href="#id115">July</textPath></text><path d="M 95.86986931433489 120.58985236759428 l -12.390392056995301 61.76955710278283 a84.0,84.0 0 0,0 -1.415234154282453,-0.29657607709383527 l 13.451817672707142 -61.54712504496245" fill="#4dd2ff" stroke="none" /><path d="M 94.46302465271185 120.25689768951611 l -14.345528848247202 52.48278924038751 a75.4080634133106,75.4080634133106 0 0,0 -1.249148330241979,-0.3530217955318031 l 15.246808346593793 -52.22807865151719" fill="#42ffd6" stroke="none" /><line stroke="#e1ed5e" stroke-width="0.3" x1="58.666819895761336" x2="56.23545636021788" y1="174.27360380694188" y2="178.64263932499728" /><path d="M 58.180547188652646 175.14741091055294 a86.0,86.0 0 0,1 -31.652253787137756,-30.449443065178592" fill="none" id="id116" stroke="none" /><text fill="#e1ed5e" style="font-size:6.75px; font-family:Arial;" text-anchor="middle"><textPath startOffset="22.20632615414155" xlink:href="#id116">August</textPath></text><line stroke="#e1ed5e" stroke-width="0.3" x1="26.63291911575756" x2="22.317208475507996" y1="142.92168965132927" y2="145.44649492493687" /><path d="M 25.769776987707644 143.4266507060508 a86.0,86.0 0 0,1 -11.730757126820373,-40.83630448921669" fill="none" id="id117" stroke="none" /><text fill="#e1ed5e" style="font-size:6.75px; font-family:Arial;" text-anchor="middle"><textPath startOffset="21.46611528233685" xlink:href="#id117">September</textPath></text><line stroke="#e1ed5e" stroke-width="0.3" x1="15.007084014347285" x2="10.007500721073583" y1="101.09737516637583" y2="101.16192664675087" /><path d="M 14.007167355692545 101.11028546245083 a86.0,86.0 0 0,1 10.666146001902534,-42.60595125391555" fill="none" id="id118" stroke="none" /><text fill="#e1ed5e" style="font-size:6.75px; font-family:Arial;" text-anchor="middle"><textPath startOffset="22.20632615414155" xlink:href="#id118">October</textPath></text><line stroke="#e1ed5e" stroke-width="0.3" x1="26.266209847984243" x2="21.928928074336255" y1="57.711370442889674" y2="55.22380399835377" /><path d="M 25.398753493254645 57.213857153982495 a86.0,86.0 0 0,1 29.58750427330803,-30.492523968695096" fill="none" id="id119" stroke="none" /><text fill="#e1ed5e" style="font-size:6.75px; font-family:Arial;" text-anchor="middle"><textPath startOffset="21.46611528233685" xlink:href="#id119">November</textPath></text><line stroke="#e1ed5e" stroke-width="0.3" x1="56.762969772571076" x2="54.21961505331055" y1="26.818313649435495" y2="22.513508569990535" /><path d="M 56.25429882871897 25.957352633546506 a86.0,86.0 0 0,1 42.265352541879196,-11.944610805530505" fill="none" id="id120" stroke="none" /><text fill="#e1ed5e" style="font-size:6.75px; font-family:Arial;" text-anchor="middle"><textPath startOffset="22.20632615414155" xlink:href="#id120">December</textPath></text></svg>