<?xml version="1.0" encoding="utf-8" ?>
<svg baseProfile="full" height="200mm" version="1.1" viewBox="0,0,200,200" width="200mm" xmlns="http://www.w3.org/2000/svg" xmlns:ev="http://www.w3.org/2001/xml-events" xmlns:xlink="http://www.w3.org/1999/xlink"><defs /><rect fill="#1a1a1a" height="200" width="200" x="0" y="0" /><text alignment-baseline="middle" fill="#e1ed5e" style="dominant-baseline: central; font-size:9.0px; font-family:Arial;" text-anchor="middle" x="100.0" y="100.0">2019</text><line stroke="#e1ed5e" stroke-width="0.3" x1="100.0" x2="100.0" y1="15.0" y2="10.0" /><path d="M 100.0 14.0 a86.0,86.0 0 0,1 42.46469731375804,11.215312516191453" fill="none" id="id85" stroke="none" /><text fill="#e1ed5e" style="font-size:6.75px; font-family:Arial;" text-anchor="middle"><textPath startOffset="22.20632615414155" xlink:href="#id85">January</textPath></text><path d="M 103.95276090670814 79.375362276772 l 4.258298197233951 -22.218864158056764 a43.623240882127064,43.623240882127064 0 0,0 0.7362638998348944,0.1476876118957251 l -4.640128506535971 22.142272590083827" fill="#e2ff1b" stroke="none" /><path d="M 109.08828744355905 81.06846463323043 l 2.467580579458248 -5.140142111534438 a26.701755417666494,26.701755417666494 0 0,0 0.41264223115679266,0.20248175074310398 l -2.5556940776254726 5.096905200656502" fill="#ff4106" stroke="none" /><line stroke="#e1ed5e" stroke-width="0.3" x1="143.23703022742887" x2="145.7803849466894" y1="26.81831364943548" y2="22.513508569990506" /><path d="M 143.74570117128098 25.957352633546492 a86.0,86.0 0 0,1 28.547481713284135,27.462654790039103" fill="none" id="id86" stroke="none" /><text fill="#e1ed5e" style="font-size:6.75px; font-family:Arial;" text-anchor="middle"><textPath startOffset="19.985693538727396" xlink:href="#id86">February</textPath></text><path d="M 113.34407831869373 83.78471172551755 l 2.268584997431052 -2.75671041715765 a24.57014428484827,24.57014428484827 0 0,0 0.3242585859225102,0.27155724053238794 l -2.31570112031268 2.717252019231443" fill="#ff2203" stroke="none" /><path d="M 114.94478906791727 85.2469230424477 l 44.8343672037518 -44.25923087265689 a84.0,84.0 0 0,0 1.0069429451875638,1.0377432177995427 l -45.58957441264248 43.480923459307235" fill="#4dd2ff" stroke="none" /><line stroke="#e1ed5e" stroke-width="0.3" x1="172.23445277983987" x2="176.4835382374775" y1="55.19839476539836" y2="52.563006222186495" /><path d="M 173.08426987136738 54.67131705675599 a86.0,86.0 0 0,1 12.851231095245387,41.99856678651699" fill="none" id="id87" stroke="none" /><text fill="#e1ed5e" style="font-size:6.75px; font-family:Arial;" text-anchor="middle"><textPath startOffset="22.20632615414155" xlink:href="#id87">March</textPath></text><line stroke="#e1ed5e" stroke-width="0.3" x1="184.98032266829074" x2="189.97916517819016" y1="98.17113171792111" y2="98.06355123074" /><path d="M 185.9800911702706 98.14961562048488 a86.0,86.0 0 0,1 -9.607161424134198,41.387399972396054" fill="none" id="id88" stroke="none" /><text fill="#e1ed5e" style="font-size:6.75px; font-family:Arial;" text-anchor="middle"><textPath startOffset="21.466115282336823" xlink:href="#id88">April</textPath></text><path d="M 120.95626037817324 101.35467743843564 l 10.599823953380461 0.6852053802495224 a31.621947761864632,31.621947761864632 0 0,0 -0.03978860388595279,0.5428838878308586 l -10.58645879083017 -0.8675624045771513" fill="#ff840c" stroke="none" /><line stroke="#e1ed5e" stroke-width="0.3" x1="174.80103733775053" x2="179.2010983576182" y1="140.37084112569926" y2="142.7455964860345" /><path d="M 175.68104954172406 140.8457921977663 a86.0,86.0 0 0,1 -30.038265399797805,32.042727171017184" fill="none" id="id89" stroke="none" /><text fill="#e1ed5e" style="font-size:6.75px; font-family:Arial;" text-anchor="middle"><textPath startOffset="22.206326154141568" xlink:href="#id89">May</textPath></text><path d="M 118.12598468904814 110.60418214915192 l 4.208396201236918 2.46202347840882 a25.87567002521926,25.87567002521926 0 0,0 -0.2282223306091782,0.3825137534249127 l -4.165392994929513 -2.5340993257198368" fill="#ff3505" stroke="none" /><path d="M 117.94076556474637 110.91462005526583 l 6.259887863825175 3.808326761511156 a28.32731525117541,28.32731525117541 0 0,0 -0.2570169151724722,0.4143931032254059 l -6.1934063089847395 -3.9155161961018354" fill="#ff5708" stroke="none" /><path d="M 116.27256486870786 113.27417163493432 l 27.39662861149208 22.348508261708087 a56.3557786054792,56.3557786054792 0 0,0 -0.6196559385294769,0.7464154959858407 l -27.00787667306906 -22.816785014807696" fill="#56ff2b" stroke="none" /><path d="M 114.55890576462653 115.13401014063108 l 2.64184016273106 2.746197857110997 a24.810632771052585,24.810632771052585 0 0,0 -0.3103268645259339,0.2934334200355248 l -2.5941774638143182 -2.791265913892443" fill="#ff2603" stroke="none" /><path d="M 114.29624159901734 115.38237550388516 l 1.5440038464237953 1.661307049173424 a23.268014327424936,23.268014327424936 0 0,0 -0.2957258812857705,0.27013858096158205 l -1.515178415671161 -1.687638396721589" fill="#ff1001" stroke="none" /><path d="M 112.04921762599082 117.19931262002967 l 2.7130545339635397 3.8726724450701173 a25.72845183660207,25.72845183660207 0 0,0 -0.36490677375446,0.2509862063859283 l -2.6459908755861963 -3.9187994408211395" fill="#ff3304" stroke="none" /><path d="M 111.45004920935366 117.60387380957326 l 0.8399519954461321 1.2913838764862062 a22.540516689653987,22.540516689653987 0 0,0 -0.32707169650487866,0.20875263157113452 l -0.817598496894323 -1.3056509368811497" fill="#ff0500" stroke="none" /><line stroke="#e1ed5e" stroke-width="0.3" x1="143.8653032363475" x2="146.44561519142675" y1="172.8068346515853" y2="177.08958963109032" /><path d="M 144.38136562736335 173.6633856474863 a86.0,86.0 0 0,1 -40.68145358897372,12.25698825130547" fill="none" id="id90" stroke="none" /><text fill="#e1ed5e" style="font-size:6.75px; font-family:Arial;" text-anchor="middle"><textPath startOffset="21.466115282336833" xlink:href="#id90">June</textPath></text><path d="M 104.48393922423573 120.51570834832081 l 0.6061749793565374 2.7734785113301363 a23.838948953117672,23.838948953117672 0 0,0 -0.4016392233410582,0.08416740431614084 l -0.5583442945861012 -2.7835018963728184" fill="#ff1802" stroke="none" /><line stroke="#e1ed5e" stroke-width="0.3" x1="102.19456741930631" x2="102.32365962044197" y1="184.97166512339345" y2="189.96999836594603" /><path d="M 102.22038585953345 185.97133177190398 a86.0,86.0 0 0,1 -42.740103519485714,-10.115201625700543" fill="none" id="id91" stroke="none" /><text fill="#e1ed5e" style="font-size:6.75px; font-family:Arial;" text-anchor="middle"><textPath startOffset="22.20632615414155" xlink:href="#id91">July</textPath></text><path d="M 92.06813273071674 119.44442032107085 l -0.4519305765817188 1.1078763409253192 a22.19650793262375,22.19650793262375 0 0,0 -0.3525318521438571,-0.14735834278731258 l 0.4709338882230382 -1.0999329551180332" fill="#ff0000" stroke="none" /><line stroke="#e1ed5e" stroke-width="0.3" x1="58.666819895761336" x2="56.23545636021788" y1="174.27360380694188" y2="178.64263932499728" /><path d="M 58.180547188652646 175.14741091055294 a86.0,86.0 0 0,1 -31.652253787137756,-30.449443065178592" fill="none" id="id92" stroke="none" /><text fill="#e1ed5e" style="font-size:6.75px; font-family:Arial;" text-anchor="middle"><textPath startOffset="22.20632615414155" xlink:href="#id92">August</textPath></text><path d="M 87.65650970185807 116.9893568818739 l -10.77610296175908 14.832033289701068 a39.33340139061035,39.33340139061035 0 0,0 -0.5443275051747958,-0.4026804752955548 l 11.02981543735244 -14.644342865665745" fill="#ffe815" stroke="none" /><path d="M 84.43433777217949 114.09645910891817 l -19.408278724905546 17.576380844955874 a47.18416404376036,47.18416404376036 0 0,0 -0.540014107840899,-0.6067115748095074 l 19.707951682394786 -17.239695100405502" fill="#b8ff1f" stroke="none" /><path d="M 82.24976979558568 111.22182372390057 l -19.738041915277723 12.478532643093443 a44.35174673496629,44.35174673496629 0 0,0 -0.4024083831191601,-0.6488104432066815 l 19.949914938064836 -12.136925868521496" fill="#d9ff1c" stroke="none" /><line stroke="#e1ed5e" stroke-width="0.3" x1="26.63291911575756" x2="22.317208475507996" y1="142.92168965132927" y2="145.44649492493687" /><path d="M 25.769776987707644 143.4266507060508 a86.0,86.0 0 0,1 -11.730757126820373,-40.83630448921669" fill="none" id="id93" stroke="none" /><text fill="#e1ed5e" style="font-size:6.75px; font-family:Arial;" text-anchor="middle"><textPath startOffset="21.46611528233685" xlink:href="#id93">September</textPath></text><path d="M 80.87730276802145 108.67885076344099 l -20.81182748870614 9.44546382227437 a43.854954610271236,43.854954610271236 0 0,0 -0.3060635512781099,-0.6900925097143547 l 20.97133212471553 -9.085822976067318" fill="#dfff1b" stroke="none" /><path d="M 79.04373962182676 101.35467743843564 l -5.5797043706215925 0.36068933519715624 a26.591350253745393,26.591350253745393 0 0,0 -0.025595629688378863,-0.4570271622575024 l 5.5850863511975035 -0.26459045660421626" fill="#ff3f05" stroke="none" /><line stroke="#e1ed5e" stroke-width="0.3" x1="15.007084014347285" x2="10.007500721073583" y1="101.09737516637583" y2="101.16192664675087" /><path d="M 14.007167355692545 101.11028546245083 a86.0,86.0 0 0,1 10.666146001902534,-42.60595125391555" fill="none" id="id94" stroke="none" /><text fill="#e1ed5e" style="font-size:6.75px; font-family:Arial;" text-anchor="middle"><textPath startOffset="22.20632615414155" xlink:href="#id94">October</textPath></text><path d="M 79.46518482838121 95.60439243477599 l -2.8754610495513266 -0.6155106942663751 a23.940600221424717,23.940600221424717 0 0,0 0.08972664837935176,-0.40222697105693905 l 2.8644400141699373 0.6649158348732734" fill="#ff1902" stroke="none" /><path d="M 79.54389044137918 95.25157060432595 l -1.178002048476459 -0.27344689072573547 a22.209322962761522,22.209322962761522 0 0,0 0.08964867217411805,-0.3716516230457371 l 1.1731205760415262 0.2936837454308694" fill="#ff0000" stroke="none" /><path d="M 81.10775173730289 90.83032412892265 l -2.359025433805103 -1.144993348532899 a23.622214858764234,23.622214858764234 0 0,0 0.1806986804249327,-0.36427751335372166 l 2.3389667404267573 1.1854304503855821" fill="#ff1502" stroke="none" /><path d="M 81.26839172434947 90.50648371742162 l -2.104812822404595 -1.0667570294672855 a23.359704976745327,23.359704976745327 0 0,0 0.18486488625227673,-0.35710011892791643 l 2.0861385029922044 1.1028298706555375" fill="#ff1101" stroke="none" /><path d="M 81.43458229118936 90.18545643968196 l -2.0299409036056524 -1.073121205016258 a23.29613788627488,23.29613788627488 0 0,0 0.1904646759315765,-0.35290211793013776 l 2.011168128455604 1.1079043062788683" fill="#ff1001" stroke="none" /><line stroke="#e1ed5e" stroke-width="0.3" x1="26.266209847984243" x2="21.928928074336255" y1="57.711370442889674" y2="55.22380399835377" /><path d="M 25.398753493254645 57.213857153982495 a86.0,86.0 0 0,1 29.58750427330803,-30.492523968695096" fill="none" id="id95" stroke="none" /><text fill="#e1ed5e" style="font-size:6.75px; font-family:Arial;" text-anchor="middle"><textPath startOffset="21.46611528233685" xlink:href="#id95">November</textPath></text><path d="M 81.78341655067845 89.55222093294921 l -2.1660970158868538 -1.2423242329025594 a23.49706743639231,23.49706743639231 0 0,0 0.20424582565865615,-0.3491223233077791 l 2.1443915157578726 1.2794259685642304" fill="#ff1302" stroke="none" /><path d="M 82.7489923806493 88.02491185347247 l -1.2404263500420598 -0.8610636090825722 a22.509996049254756,22.509996049254756 0 0,0 0.2236929573211441,-0.3163978243512473 l 1.2254207729170377 0.8822879337656057" fill="#ff0500" stroke="none" /><path d="M 83.17141714833178 87.43820079747576 l -2.1470093375827477 -1.6026483288808528 a23.679203381927564,23.679203381927564 0 0,0 0.2466291188549623,-0.3245350108727731 l 2.1191042785036767 1.6393681156346527" fill="#ff1602" stroke="none" /><path d="M 83.6137871275137 86.86637796730984 l -3.9598663836053873 -3.1738504062493416 a26.074826911063777,26.074826911063777 0 0,0 0.2837208222869111,-0.3478081805961026 l 3.904647069242084 3.2415427564535264" fill="#ff3805" stroke="none" /><path d="M 86.10567301691215 84.25364557470407 l -1.486627342143394 -1.6847855283828377 a23.246900783536418,23.246900783536418 0 0,0 0.30232727458223696,-0.26217523333528003 l 1.4574062689143836 1.7101257551377982" fill="#ff0f01" stroke="none" /><path d="M 86.37877921826538 84.01681056812374 l -3.7208755800261635 -4.366088781686066 a26.73651865957045,26.73651865957045 0 0,0 0.35284879211676473,-0.29550071600976385 l 3.645169250950288 4.429490655089642" fill="#ff4106" stroke="none" /><path d="M 86.65592168130627 83.78471172551755 l -4.550995821074238 -5.5302215269003066 a28.16204671166188,28.16204671166188 0 0,0 0.37696455333885426,-0.304812452672542 l 4.455127869170884 5.607740076836984" fill="#ff5507" stroke="none" /><path d="M 87.22198572758235 83.33499621200491 l -5.569885511025849 -7.264208754274807 a30.153816331542732,30.153816331542732 0 0,0 0.4146204973617162,-0.3122835626284753 l 5.444018859905744 7.359008906409137" fill="#ff710a" stroke="none" /><path d="M 87.80319425747018 82.90503203632743 l -9.904849340199197 -13.882575957185669 a38.053795931084494,38.053795931084494 0 0,0 0.5365020950396253,-0.3758540031654634 l 9.664416105575912 14.051014803115073" fill="#ffd814" stroke="none" /><line stroke="#e1ed5e" stroke-width="0.3" x1="56.762969772571076" x2="54.21961505331055" y1="26.818313649435495" y2="22.513508569990535" /><path d="M 56.25429882871897 25.957352633546506 a86.0,86.0 0 0,1 42.265352541879196,-11.944610805530505" fill="none" id="id96" stroke="none" /><text fill="#e1ed5e" style="font-size:6.75px; font-family:Arial;" text-anchor="middle"><textPath startOffset="22.20632615414155" xlink:href="#id96">December</textPath></text><path d="M 89.3179101791058 81.91981866633112 l -12.168535942107388 -20.596094967131783 a44.922215509218006,44.922215509218006 0 0,0 0.6691340855324031,-0.3876056519570784 l 11.812205124109664 20.80250477647891" fill="#d3ff1c" stroke="none" /><path d="M 90.26544431104013 81.39251694778311 l -0.8878372207031301 -1.6970898893821038 a22.915298677258672,22.915298677258672 0 0,0 0.3510836677704311,-0.17983869079565198 l 0.8584930653439353 1.712121105490261" fill="#ff0b01" stroke="none" /><path d="M 91.90106846888425 80.62456947434976 l -3.216850196620895 -7.69581237433499 a29.341082261221707,29.341082261221707 0 0,0 0.46766350078881624,-0.1907716843029515 l 3.0839028262436985 7.750044944821518" fill="#ff6509" stroke="none" /><path d="M 92.23578459929587 80.48803036053334 l -3.1137992687354963 -7.825176615972104 a29.42194365672998,29.42194365672998 0 0,0 0.47217573003566604,-0.1831968475637406 l 2.978640373700154 7.877616167426396" fill="#ff6709" stroke="none" /><path d="M 92.91201910852362 80.23233633223022 l -5.456160950489176 -15.21668247105326 a37.1653059897579,37.1653059897579 0 0,0 0.6040565599428068,-0.21074347280257766 l 5.193422386483084 15.30834679702805" fill="#ffcd13" stroke="none" /><path d="M 93.94186890950719 79.89281104454417 l -6.96916552017378 -23.130950103719634 a45.158023941298396,45.158023941298396 0 0,0 0.7462036217100231,-0.21783729942775873 l 6.569971680740335 23.247485732066092" fill="#d0ff1d" stroke="none" /></svg>