<?xml version="1.0" encoding="utf-8" ?>
<svg baseProfile="full" height="200mm" version="1.1" viewBox="0,0,200,200" width="200mm" xmlns="http://www.w3.org/2000/svg" xmlns:ev="http://www.w3.org/2001/xml-events" xmlns:xlink="http://www.w3.org/1999/xlink"><defs /><rect fill="#1a1a1a" height="200" width="200" x="0" y="0" /><text alignment-baseline="middle" fill="#e1ed5e" style="dominant-baseline: central; font-size:9.0px; font-family:Arial;" text-anchor="middle" x="100.0" y="100.0">2019</text><line stroke="#e1ed5e" stroke-width="0.3" x1="100.0" x2="100.0" y1="15.0" y2="10.0" /><path d="M 100.0 14.0 a86.0,86.0 0 0,1 42.46469731375804,11.215312516191453" fill="none" id="id61" stroke="none" /><text fill="#e1ed5e" style="font-size:6.75px; font-family:Arial;" text-anchor="middle"><textPath startOffset="22.20632615414155" xlink:href="#id61">January</textPath></text><path d="M 103.95276090670814 79.375362276772 l 7.706191955173964 -40.209216052351806 a61.941011834036225,61.941011834036225 0 0,0 1.0454273916941303,0.20970289990356183 l -8.39718575633522 40.07060919637104" fill="#31ff40" stroke="none" /><path d="M 109.08828744355905 81.06846463323043 l 4.465551431441931 -9.302054471922032 a31.318399439130943,31.318399439130943 0 0,0 0.4839866899639223,0.23749016683417976 l -4.625009388416284 9.223809144953021" fill="#ff750a" stroke="none" /><line stroke="#e1ed5e" stroke-width="0.3" x1="143.23703022742887" x2="145.7803849466894" y1="26.818313649435467" y2="22.513508569990506" /><path d="M 143.74570117128098 25.957352633546478 a86.0,86.0 0 0,1 28.547481713284135,27.462654790039114" fill="none" id="id62" stroke="none" /><text fill="#e1ed5e" style="font-size:6.75px; font-family:Arial;" text-anchor="middle"><textPath startOffset="19.985693538727396" xlink:href="#id62">February</textPath></text><path d="M 113.34407831869373 83.78471172551755 l 4.105431476871994 -4.98878628397696 a27.460847947327657,27.460847947327657 0 0,0 0.36240795415778826,0.3035062393123362 l -4.190696967988899 4.917378887270805" fill="#ff3f05" stroke="none" /><path d="M 114.94478906791727 85.2469230424477 l 44.8343672037518 -44.25923087265689 a84.0,84.0 0 0,0 1.0069429451875638,1.0377432177995427 l -45.58957441264248 43.480923459307235" fill="#4dd2ff" stroke="none" /><line stroke="#e1ed5e" stroke-width="0.3" x1="172.23445277983987" x2="176.4835382374775" y1="55.19839476539836" y2="52.563006222186495" /><path d="M 173.08426987136738 54.67131705675599 a86.0,86.0 0 0,1 12.851231095245387,41.99856678651699" fill="none" id="id63" stroke="none" /><text fill="#e1ed5e" style="font-size:6.75px; font-family:Arial;" text-anchor="middle"><textPath startOffset="22.20632615414155" xlink:href="#id63">March</textPath></text><line stroke="#e1ed5e" stroke-width="0.3" x1="184.98032266829074" x2="189.97916517819016" y1="98.17113171792111" y2="98.06355123074" /><path d="M 185.9800911702706 98.14961562048488 a86.0,86.0 0 0,1 -9.607161424134198,41.387399972396054" fill="none" id="id64" stroke="none" /><text fill="#e1ed5e" style="font-size:6.75px; font-family:Arial;" text-anchor="middle"><textPath startOffset="21.466115282336823" xlink:href="#id64">April</textPath></text><path d="M 120.95626037817324 101.35467743843564 l 19.182376219885263 1.2400080840629508 a40.222413414807235,40.222413414807235 0 0,0 -0.05061021815451982,0.6905362167128903 l -19.158189443066405 -1.570017437272611" fill="#ffea16" stroke="none" /><line stroke="#e1ed5e" stroke-width="0.3" x1="174.80103733775053" x2="179.2010983576182" y1="140.37084112569926" y2="142.7455964860345" /><path d="M 175.68104954172406 140.8457921977663 a86.0,86.0 0 0,1 -30.038265399797805,32.042727171017184" fill="none" id="id65" stroke="none" /><text fill="#e1ed5e" style="font-size:6.75px; font-family:Arial;" text-anchor="middle"><textPath startOffset="22.206326154141568" xlink:href="#id65">May</textPath></text><path d="M 118.12598468904814 110.60418214915192 l 7.615884902382489 4.455494811304569 a29.82344246084823,29.82344246084823 0 0,0 -0.2630415188696451,0.4408727157454276 l -7.538062507814614 -4.585929620936101" fill="#ff6008" stroke="none" /><path d="M 117.94076556474637 110.91462005526583 l 11.328445135156514 6.891883962305475 a34.26015587126089,34.26015587126089 0 0,0 -0.3108462449505967,0.5011831224594757 l -11.208134250537958 -7.085863416130222" fill="#ff9d0e" stroke="none" /><path d="M 116.27256486870786 113.27417163493432 l 27.798867801148788 22.676630600434642 a56.874874583952426,56.874874583952426 0 0,0 -0.6253636212851266,0.7532907675520298 l -27.40440817997012 -23.151782625100438" fill="#55ff2b" stroke="none" /><path d="M 114.55890576462653 115.13401014063108 l 4.7809069412089995 4.969761828218453 a27.89605712053762,27.89605712053762 0 0,0 -0.34891878892154204,0.32992449333803736 l -4.69465231789665 -5.051320958302414" fill="#ff4506" stroke="none" /><path d="M 114.29624159901734 115.38237550388516 l 2.7941655255138094 3.006447746127789 a25.104398742101786,25.104398742101786 0 0,0 -0.31906549212526003,0.29145876208662397 l -2.7420004839216854 -3.054099274800996" fill="#ff1d02" stroke="none" /><path d="M 112.04921762599082 117.19931262002967 l 4.909782747755612 7.008329585891521 a29.55702344361876,29.55702344361876 0 0,0 -0.4192074258915184,0.2883346900655784 l -4.78841843724121 -7.091805065322193" fill="#ff5c08" stroke="none" /><path d="M 111.45004920935366 117.60387380957326 l 1.520051205959187 2.337002149469859 a23.78785485909233,23.78785485909233 0 0,0 -0.345171060277704,0.2203045018727098 l -1.4795983436345528 -2.362821080166378" fill="#ff0901" stroke="none" /><line stroke="#e1ed5e" stroke-width="0.3" x1="143.8653032363475" x2="146.44561519142675" y1="172.8068346515853" y2="177.08958963109032" /><path d="M 144.38136562736335 173.6633856474863 a86.0,86.0 0 0,1 -40.68145358897372,12.25698825130547" fill="none" id="id66" stroke="none" /><text fill="#e1ed5e" style="font-size:6.75px; font-family:Arial;" text-anchor="middle"><textPath startOffset="21.466115282336833" xlink:href="#id66">June</textPath></text><path d="M 104.48393922423573 120.51570834832081 l 1.096987700950444 5.019131305962396 a26.137612391230807,26.137612391230807 0 0,0 -0.44036716389841674,0.09228322080464824 l -1.0104290756226493 -5.037270507493585" fill="#ff2c04" stroke="none" /><line stroke="#e1ed5e" stroke-width="0.3" x1="102.19456741930631" x2="102.32365962044197" y1="184.97166512339345" y2="189.96999836594603" /><path d="M 102.22038585953345 185.97133177190398 a86.0,86.0 0 0,1 -42.740103519485714,-10.115201625700543" fill="none" id="id67" stroke="none" /><text fill="#e1ed5e" style="font-size:6.75px; font-family:Arial;" text-anchor="middle"><textPath startOffset="22.20632615414155" xlink:href="#id67">July</textPath></text><path d="M 92.06813273071674 119.44442032107085 l -0.8178534269425742 2.004910729669412 a23.16530627438828,23.16530627438828 0 0,0 -0.36791860914242996,-0.15379000846061844 l 0.8522434955824653 -1.9905356781888204" fill="#ff0000" stroke="none" /><line stroke="#e1ed5e" stroke-width="0.3" x1="58.666819895761336" x2="56.23545636021788" y1="174.27360380694188" y2="178.64263932499728" /><path d="M 58.180547188652646 175.14741091055294 a86.0,86.0 0 0,1 -31.652253787137756,-30.449443065178592" fill="none" id="id68" stroke="none" /><text fill="#e1ed5e" style="font-size:6.75px; font-family:Arial;" text-anchor="middle"><textPath startOffset="22.20632615414155" xlink:href="#id68">August</textPath></text><path d="M 87.65650970185807 116.9893568818739 l -19.501386259416012 26.84135547158517 a54.177739971115194,54.177739971115194 0 0,0 -0.7497555002076655,-0.55465119493112 l 19.96052673004224 -26.501694327914283" fill="#71ff27" stroke="none" /><path d="M 84.4343377721795 114.09645910891817 l -35.122932788218755 31.80776883038736 a68.38517242358725,68.38517242358725 0 0,0 -0.7826557622515243,-0.8793220457663404 l 35.66524740011861 -31.198472614880153" fill="#39ff8c" stroke="none" /><path d="M 82.24976979558568 111.22182372390057 l -35.71970133918806 22.58225314728922 a63.259380271947286,63.259380271947286 0 0,0 -0.5739594673570132,-0.925405414052478 l 36.103125446213035 -21.964051401871476" fill="#33ff50" stroke="none" /><line stroke="#e1ed5e" stroke-width="0.3" x1="26.63291911575756" x2="22.317208475507996" y1="142.92168965132927" y2="145.44649492493687" /><path d="M 25.769776987707644 143.4266507060508 a86.0,86.0 0 0,1 -11.730757126820373,-40.83630448921669" fill="none" id="id69" stroke="none" /><text fill="#e1ed5e" style="font-size:6.75px; font-family:Arial;" text-anchor="middle"><textPath startOffset="21.46611528233685" xlink:href="#id69">September</textPath></text><path d="M 80.87730276802145 108.67885076344099 l -37.66291840954519 17.093344324119553 a62.36034143121848,62.36034143121848 0 0,0 -0.43521257123555,-0.9812894553728384 l 37.95157206551202 -16.44250653225402" fill="#32ff45" stroke="none" /><path d="M 79.04373962182676 101.35467743843564 l -10.097525100769921 0.652735230007816 a31.1186005179161,31.1186005179161 0 0,0 -0.029953355797153927,-0.5348372892845059 l 10.107264807454607 -0.47882622438787253" fill="#ff720a" stroke="none" /><line stroke="#e1ed5e" stroke-width="0.3" x1="15.007084014347285" x2="10.007500721073583" y1="101.09737516637583" y2="101.16192664675087" /><path d="M 14.007167355692545 101.11028546245083 a86.0,86.0 0 0,1 10.666146001902526,-42.60595125391555" fill="none" id="id70" stroke="none" /><text fill="#e1ed5e" style="font-size:6.75px; font-family:Arial;" text-anchor="middle"><textPath startOffset="22.20632615414155" xlink:href="#id70">October</textPath></text><path d="M 79.46518482838121 95.60439243477599 l -5.203687900922997 -1.1138824339639097 a26.32156949094022,26.32156949094022 0 0,0 0.09865025056442454,-0.4422297299100703 l 5.1837432633565355 1.2032903334239393" fill="#ff2e04" stroke="none" /><path d="M 81.10775173730289 90.83032412892265 l -4.269100466437084 -2.0720809399687896 a25.745391260403643,25.745391260403643 0 0,0 0.1969399675514553,-0.3970189571440155 l 4.232800485932216 2.1452594856117675" fill="#ff2603" stroke="none" /><path d="M 81.26839172434947 90.50648371742162 l -3.8090549059474825 -1.9304975973608247 a25.27033022727031,25.27033022727031 0 0,0 0.19998526212862655,-0.386307872402045 l 3.775260210658742 1.9957781920232054" fill="#ff1f03" stroke="none" /><path d="M 81.43458229118936 90.18545643968196 l -3.6735600787670766 -1.9420147706881095 a25.155293614401028,25.155293614401028 0 0,0 0.20566477025589963,-0.3810655842188659 l 3.639587209292703 2.0049613382394478" fill="#ff1d03" stroke="none" /><line stroke="#e1ed5e" stroke-width="0.3" x1="26.266209847984243" x2="21.928928074336255" y1="57.71137044288968" y2="55.22380399835378" /><path d="M 25.398753493254645 57.2138571539825 a86.0,86.0 0 0,1 29.58750427330803,-30.4925239686951" fill="none" id="id71" stroke="none" /><text fill="#e1ed5e" style="font-size:6.75px; font-family:Arial;" text-anchor="middle"><textPath startOffset="21.46611528233685" xlink:href="#id71">November</textPath></text><path d="M 81.78341655067845 89.55222093294921 l -3.9199601870992495 -2.2482194918923364 a25.51891344818285,25.51891344818285 0 0,0 0.22182051276166187,-0.3791631604853436 l 3.880679999867263 2.3153620647315707" fill="#ff2303" stroke="none" /><path d="M 82.7489923806493 88.02491185347247 l -2.2447849156945177 -1.5582566438196825 a23.732622016623928,23.732622016623928 0 0,0 0.23584279589685941,-0.3335829093785613 l 2.2176294999937802 1.5966660535300299" fill="#ff0801" stroke="none" /><path d="M 83.17141714833178 87.43820079747577 l -3.8854174411061257 -2.9002937527994135 a25.848522717712992,25.848522717712992 0 0,0 0.2692235156203589,-0.3542665885306162 l 3.834917985261658 2.9667451172110564" fill="#ff2703" stroke="none" /><path d="M 83.6137871275137 86.86637796730984 l -7.16612342666033 -5.743679595630856 a30.183854325031305,30.183854325031305 0 0,0 0.328431248962674,-0.40261787708022967 l 7.066193685621263 5.866181642319168" fill="#ff6509" stroke="none" /><path d="M 86.10567301691215 84.25364557470407 l -2.6903319433591233 -3.048936472661975 a25.0661898110869,25.0661898110869 0 0,0 0.3259872324621378,-0.28269291565963617 l 2.6374509122502117 3.0947943817412895" fill="#ff1c02" stroke="none" /><path d="M 86.37877921826538 84.01681056812373 l -6.733624592008708 -7.901259302803108 a31.38131006743547,31.38131006743547 0 0,0 0.4141473126447111,-0.34683646410084173 l 6.596619742404886 8.015996924297761" fill="#ff760a" stroke="none" /><path d="M 86.65592168130627 83.78471172551755 l -8.235883388151038 -10.00797658290149 a33.961071347196835,33.961071347196835 0 0,0 0.45458770175264535,-0.36757830702835587 l 8.062392287833893 10.148260987193982" fill="#ff990e" stroke="none" /><path d="M 87.22198572758235 83.33499621200491 l -10.07975602652452 -13.145952789135139 a37.56555330462666,37.56555330462666 0 0,0 0.5165332382335797,-0.3890421261804681 l 9.85197663453255 13.31751150482146" fill="#ffc912" stroke="none" /><path d="M 87.80319425747018 82.90503203632743 l -17.92468887036464 -25.123133750437564 a51.862053083710244,51.862053083710244 0 0,0 0.7311780454926576,-0.512236947378215 l 17.489579685288323 25.42795554057972" fill="#8aff24" stroke="none" /><line stroke="#e1ed5e" stroke-width="0.3" x1="56.76296977257108" x2="54.21961505331056" y1="26.818313649435495" y2="22.513508569990535" /><path d="M 56.25429882871898 25.957352633546506 a86.0,86.0 0 0,1 42.26535254187918,-11.944610805530505" fill="none" id="id72" stroke="none" /><text fill="#e1ed5e" style="font-size:6.75px; font-family:Arial;" text-anchor="middle"><textPath startOffset="22.20632615414155" xlink:href="#id72">December</textPath></text><path d="M 89.3179101791058 81.91981866633112 l -22.021255778711094 -37.272509813147316 a64.2917508752254,64.2917508752254 0 0,0 0.9576509404426652,-0.5547332367955066 l 21.376408105803105 37.64604720733286" fill="#34ff5c" stroke="none" /><path d="M 91.90106846888425 80.62456947434976 l -5.821495808419961 -13.927020762930919 a36.09475805631081,36.09475805631081 0 0,0 0.5753094164167611,-0.23468315611556542 l 5.58090252241482 14.02516480523006" fill="#ffb510" stroke="none" /><path d="M 92.23578459929587 80.48803036053334 l -5.635005761302195 -14.161129703173456 a36.241091968753764,36.241091968753764 0 0,0 0.581612291060238,-0.22565653304229014 l 5.39041030524228 14.2560289401063" fill="#ffb711" stroke="none" /><path d="M 92.91201910852362 80.23233633223022 l -9.032883667176689 -25.19180130657026 a47.762283916259136,47.762283916259136 0 0,0 0.7762917632218045,-0.2708329532997535 l 8.597909899891597 25.34355511304222" fill="#b8ff1f" stroke="none" /><path d="M 93.94186890950719 79.89281104454417 l -12.612016532971884 -41.859807216084796 a64.71849060976078,64.71849060976078 0 0,0 1.0694261588458043,-0.3121948213632507 l 11.88960015640266 42.07070036636675" fill="#35ff61" stroke="none" /></svg>