<?xml version="1.0" encoding="utf-8" ?>
<svg baseProfile="full" height="200mm" version="1.1" viewBox="0,0,200,200" width="200mm" xmlns="http://www.w3.org/2000/svg" xmlns:ev="http://www.w3.org/2001/xml-events" xmlns:xlink="http://www.w3.org/1999/xlink"><defs /><rect fill="#1a1a1a" height="200" width="200" x="0" y="0" /><text alignment-baseline="middle" fill="#e1ed5e" style="dominant-baseline: central; font-size:9.0px; font-family:Arial;" text-anchor="middle" x="100.0" y="100.0">2018</text><line stroke="#e1ed5e" stroke-width="0.3" x1="100.0" x2="100.0" y1="15.0" y2="10.0" /><path d="M 100.0 14.0 a86.0,86.0 0 0,1 42.46469731375804,11.215312516191453" fill="none" id="id49" stroke="none" /><text fill="#e1ed5e" style="font-size:6.75px; font-family:Arial;" text-anchor="middle"><textPath startOffset="22.20632615414155" xlink:href="#id49">January</textPath></text><path d="M 106.74666289553966 80.11325718540242 l 16.335683846395945 -48.15173788638911 a71.84726569058479,71.84726569058479 0 0,0 1.1677507018592341,0.40740529049259844 l -17.16211655231845 47.8634117427243" fill="#3effb4" stroke="none" /><line stroke="#e1ed5e" stroke-width="0.3" x1="143.23703022742887" x2="145.7803849466894" y1="26.818313649435467" y2="22.513508569990506" /><path d="M 143.74570117128098 25.957352633546478 a86.0,86.0 0 0,1 28.547481713284135,27.462654790039114" fill="none" id="id50" stroke="none" /><text fill="#e1ed5e" style="font-size:6.75px; font-family:Arial;" text-anchor="middle"><textPath startOffset="19.985693538727396" xlink:href="#id50">February</textPath></text><path d="M 114.16331599549186 84.49514656593476 l 2.272596298347545 -2.487854717913057 a24.36958677477005,24.36958677477005 0 0,0 0.30727973586364166,0.28558302592985996 l -2.3150839180060334 2.448367105908559" fill="#ff1c02" stroke="none" /><path d="M 114.68862486808459 84.99185889309781 l 1.021237192814819 -1.0434517887840997 a22.46004008147209,22.46004008147209 0 0,0 0.27397419979429594,0.27279766751166523 l -1.039047192776435 1.025718270622318" fill="#ff0000" stroke="none" /><path d="M 114.94478906791727 85.2469230424477 l 1.9847544945200541 -1.9592940165586998 a23.78892155623644,23.78892155623644 0 0,0 0.28516769922229335,0.2938903809970203 l -2.0181864574454567 1.9248394400115652" fill="#ff1302" stroke="none" /><path d="M 115.4437574822437 85.77008943001952 l 2.0182168137690257 -1.8595892096715194 a23.744316150902943,23.744316150902943 0 0,0 0.27436711015428444,0.3029630157535776 l -2.0499275645393458 1.8245734066483952" fill="#ff1302" stroke="none" /><path d="M 115.68641384162765 86.03803664274999 l 1.903982131472564 -1.6946721552081896 a23.548933437852934,23.548933437852934 0 0,0 0.2668970362986987,0.30510945030723907 l -1.9328710313491109 1.6616471486980027" fill="#ff1001" stroke="none" /><line stroke="#e1ed5e" stroke-width="0.3" x1="172.23445277983987" x2="176.4835382374775" y1="55.19839476539836" y2="52.563006222186495" /><path d="M 173.08426987136738 54.67131705675599 a86.0,86.0 0 0,1 12.851231095245387,41.99856678651699" fill="none" id="id51" stroke="none" /><text fill="#e1ed5e" style="font-size:6.75px; font-family:Arial;" text-anchor="middle"><textPath startOffset="22.20632615414155" xlink:href="#id51">March</textPath></text><path d="M 119.47837535516314 92.15188598940014 l 58.435126065489385 -23.54434203179955 a84.0,84.0 0 0,0 0.5288258004731983,1.3458039804168624 l -58.83174541584429 22.534989046486903" fill="#4dd2ff" stroke="none" /><path d="M 120.28053869075195 94.5502522615342 l 9.007884133303708 -2.420581471350141 a30.327442908882816,30.327442908882816 0 0,0 0.13113538386288273,0.5053181275133937 l -9.048215849036895 2.265166918287897" fill="#ff700a" stroke="none" /><line stroke="#e1ed5e" stroke-width="0.3" x1="184.98032266829074" x2="189.97916517819016" y1="98.17113171792111" y2="98.06355123074" /><path d="M 185.9800911702706 98.14961562048488 a86.0,86.0 0 0,1 -9.607161424134198,41.387399972396054" fill="none" id="id52" stroke="none" /><text fill="#e1ed5e" style="font-size:6.75px; font-family:Arial;" text-anchor="middle"><textPath startOffset="21.466115282336823" xlink:href="#id52">April</textPath></text><path d="M 119.79798401119884 107.00284435728193 l 12.894974255940719 4.561146107322372 a34.677880496396945,34.677880496396945 0 0,0 -0.2038989010030975,0.5610422044670963 l -12.814551093932394 -4.782436108795599" fill="#ffaa0f" stroke="none" /><path d="M 118.81262510543309 109.33194174019688 l 17.23829910913284 8.551002429749001 a40.24262452810176,40.24262452810176 0 0,0 -0.31316682055590533,0.6179078471007743 l -17.088553618790662 -8.84646448855247" fill="#fff116" stroke="none" /><line stroke="#e1ed5e" stroke-width="0.3" x1="174.80103733775053" x2="179.2010983576182" y1="140.37084112569926" y2="142.7455964860345" /><path d="M 175.68104954172406 140.8457921977663 a86.0,86.0 0 0,1 -30.038265399797805,32.042727171017184" fill="none" id="id53" stroke="none" /><text fill="#e1ed5e" style="font-size:6.75px; font-family:Arial;" text-anchor="middle"><textPath startOffset="22.206326154141568" xlink:href="#id53">May</textPath></text><path d="M 117.55443506779139 111.5257021239791 l 17.244040669338343 11.321906709104974 a41.62868173527991,41.62868173527991 0 0,0 -0.39843979783984274,0.5956134367488842 l -17.046597766087782 -11.617057060059665" fill="#fcff18" stroke="none" /><path d="M 116.27256486870786 113.27417163493432 l 25.005905153598928 20.398301040671676 a53.27051251369666,53.27051251369666 0 0,0 -0.585732115577791,0.7055520658792797 l -24.651077038127593 -20.825714363664726" fill="#77ff27" stroke="none" /><path d="M 116.0416608686014 113.55231037782055 l 19.320172152516417 16.322061144947764 a46.29187086836963,46.29187086836963 0 0,0 -0.5194774341006406,0.6042696156036824 l -19.036352208844992 -16.652207859712973" fill="#c5ff1e" stroke="none" /><path d="M 114.29624159901734 115.38237550388516 l 21.26109471688759 22.876372107569413 a52.23079488845017,52.23079488845017 0 0,0 -0.6638296517824367,0.6063926476541276 l -20.86416551563829 -23.238957521810125" fill="#82ff25" stroke="none" /><path d="M 112.34349029814194 116.9893568818739 l 9.075508573232604 12.491365919278488 a36.440177408052364,36.440177408052364 0 0,0 -0.5106356371203941,0.3643249688683447 l -8.859145608263326 -12.645735149991053" fill="#ffc111" stroke="none" /><line stroke="#e1ed5e" stroke-width="0.3" x1="143.8653032363475" x2="146.44561519142675" y1="172.8068346515853" y2="177.08958963109032" /><path d="M 144.38136562736335 173.6633856474863 a86.0,86.0 0 0,1 -40.68145358897372,12.25698825130547" fill="none" id="id54" stroke="none" /><text fill="#e1ed5e" style="font-size:6.75px; font-family:Arial;" text-anchor="middle"><textPath startOffset="21.466115282336833" xlink:href="#id54">June</textPath></text><path d="M 110.5260780823613 118.17145234162733 l 15.76333387416132 27.212668194004603 a52.448561255886915,52.448561255886915 0 0,0 -0.7851080906665303,0.44580486394296764 l -15.292577016573594 -27.4799762237422" fill="#80ff26" stroke="none" /><path d="M 107.93186726928326 119.44442032107085 l 11.56952185139994 28.36187724214934 a51.63086542311153,51.63086542311153 0 0,0 -0.8257961676829483,0.3286013376116401 l -11.079604607675126 -28.55682542416705" fill="#89ff24" stroke="none" /><path d="M 105.18746579009965 120.34920634021253 l 7.785804742384457 30.54187798785328 a52.5186463305684,52.5186463305684 0 0,0 -0.8779284897180513,0.21577346287866334 l -7.258922967923195 -30.671372709045972" fill="#7fff26" stroke="none" /><path d="M 103.06178313531737 120.77559828337769 l 0.5458636750475115 3.7039345796448044 a24.74394157566927,24.74394157566927 0 0,0 -0.4219094295043162,0.05847280248182113 l -0.48202565435636435 -3.712781947619228" fill="#ff2103" stroke="none" /><line stroke="#e1ed5e" stroke-width="0.3" x1="102.19456741930631" x2="102.32365962044197" y1="184.97166512339345" y2="189.96999836594603" /><path d="M 102.22038585953345 185.97133177190398 a86.0,86.0 0 0,1 -42.740103519485714,-10.115201625700543" fill="none" id="id55" stroke="none" /><text fill="#e1ed5e" style="font-size:6.75px; font-family:Arial;" text-anchor="middle"><textPath startOffset="22.20632615414155" xlink:href="#id55">July</textPath></text><path d="M 100.54218724476979 120.99299961872073 l 0.2010356069656583 7.783916831483662 a28.786512477015798,28.786512477015798 0 0,0 -0.4954574284095797,0.00852974894961832 l -0.0670184886634107 -7.78622405771244" fill="#ff5b08" stroke="none" /><path d="M 98.01472825383883 120.90594882070398 l -3.2433013397332076 34.15365777994521 a55.307307433401526,55.307307433401526 0 0,0 -0.9469859486935398,-0.09815896557401303 l 3.830719885032341 -34.092769445915444" fill="#62ff29" stroke="none" /><path d="M 96.58105272829116 120.7198165907248 l -1.0487847901059817 6.355941395749114 a27.44188951800284,27.44188951800284 0 0,0 -0.46540272269462374,-0.08091622890591602 l 1.1580364842726547 -6.336946588322192" fill="#ff4806" stroke="none" /><path d="M 93.08242187328487 119.8279376855182 l -2.2637570796113033 6.488634242718399 a27.872188185088362,27.872188185088362 0 0,0 -0.4516362115158481,-0.1619406770028413 l 2.375112851756878 -6.448706024675601" fill="#ff4e07" stroke="none" /><path d="M 91.07499286063937 119.00905698771935 l -1.541820022190647 3.283867924023679 a24.627808914931926,24.627808914931926 0 0,0 -0.38218528287081044,-0.18347216113938344 l 1.5981179730616994 -3.2568414863847335" fill="#ff2003" stroke="none" /><path d="M 90.7491055286396 118.85261126421891 l -14.875859074716708 30.315856399094333 a54.76895515738295,54.76895515738295 0 0,0 -0.8427797066384041,-0.42258724072820825 l 15.395492689037871 -30.055301317456824" fill="#67ff28" stroke="none" /><line stroke="#e1ed5e" stroke-width="0.3" x1="58.666819895761336" x2="56.23545636021788" y1="174.27360380694188" y2="178.64263932499728" /><path d="M 58.180547188652646 175.14741091055294 a86.0,86.0 0 0,1 -31.652253787137756,-30.449443065178592" fill="none" id="id56" stroke="none" /><text fill="#e1ed5e" style="font-size:6.75px; font-family:Arial;" text-anchor="middle"><textPath startOffset="22.20632615414155" xlink:href="#id56">August</textPath></text><path d="M 86.51685102203217 116.09983520530335 l -18.80748145720012 22.457465432037193 a50.292646046304384,50.292646046304384 0 0,0 -0.6589163429347017,-0.561542802333732 l 19.19126327671188 -22.130398239480506" fill="#97ff23" stroke="none" /><path d="M 83.06392112726016 112.41649034213515 l -6.999044743250173 5.131268702262408 a29.67851057571722,29.67851057571722 0 0,0 -0.29850957932312955,-0.41460369729421076 l 7.086334114948911 -5.010031399517059" fill="#ff6709" stroke="none" /><line stroke="#e1ed5e" stroke-width="0.3" x1="26.63291911575756" x2="22.317208475507996" y1="142.92168965132927" y2="145.44649492493687" /><path d="M 25.769776987707644 143.4266507060508 a86.0,86.0 0 0,1 -11.730757126820373,-40.83630448921669" fill="none" id="id57" stroke="none" /><text fill="#e1ed5e" style="font-size:6.75px; font-family:Arial;" text-anchor="middle"><textPath startOffset="21.46611528233685" xlink:href="#id57">September</textPath></text><path d="M 81.02952815118164 109.00673069616217 l -3.915159218078187 1.858824861650635 a25.33401679382915,25.33401679382915 0 0,0 -0.18364192444890037,-0.3955483677103712 l 3.946575759366914 -1.791156426661438" fill="#ff2a04" stroke="none" /><path d="M 80.58989483394504 108.01547362559985 l -31.026849413509108 12.812650474164682 a54.56827962082184,54.56827962082184 0 0,0 -0.35104913910689967,-0.8712751739329583 l 31.242801166873395 -12.276675932388919" fill="#69ff28" stroke="none" /><path d="M 79.58551787078972 104.9243191809786 l -4.027946655013175 0.971609019895685 a25.14347418758395,25.14347418758395 0 0,0 -0.09786730241108603,-0.42160977736168587 l 4.0440745233548165 -0.9021305851854249" fill="#ff2703" stroke="none" /><path d="M 79.50377843672027 104.57218783832718 l -3.9267100408663893 0.875949542117149 a25.023224993133763,25.023224993133763 0 0,0 -0.09016220825333646,-0.4212078204148967 l 3.9412062878441665 -0.808227902286088" fill="#ff2503" stroke="none" /><line stroke="#e1ed5e" stroke-width="0.3" x1="15.007084014347285" x2="10.007500721073583" y1="101.09737516637583" y2="101.16192664675087" /><path d="M 14.007167355692545 101.11028546245083 a86.0,86.0 0 0,1 10.666146001902526,-42.60595125391555" fill="none" id="id58" stroke="none" /><text fill="#e1ed5e" style="font-size:6.75px; font-family:Arial;" text-anchor="middle"><textPath startOffset="22.20632615414155" xlink:href="#id58">October</textPath></text><path d="M 79.00175016825051 100.2711162175752 l -1.9993626550401915 0.025814515254315003 a22.99952929850182,22.99952929850182 0 0,0 -0.0017038300033254353,-0.39591008796120375 l 1.9995107823330198 0.008605050910564124" fill="#ff0801" stroke="none" /><path d="M 79.00019446554 99.90962569577889 l -4.952995055481928 -0.02131560129046398 a25.953040921947526,25.953040921947526 0 0,0 0.005767745583636482,-0.4467182517312786 l 4.951894302780576 0.10657011108221458" fill="#ff3304" stroke="none" /><path d="M 79.01574976396665 99.18683210126434 l -7.175615548527959 -0.2780647462787001 a28.181001218729826,28.181001218729826 0 0,0 0.022955964153325716,-0.4845641211584185 l 7.169765976141134 0.40153997406012754" fill="#ff5207" stroke="none" /><line stroke="#e1ed5e" stroke-width="0.3" x1="26.266209847984243" x2="21.928928074336255" y1="57.71137044288968" y2="55.22380399835378" /><path d="M 25.398753493254645 57.2138571539825 a86.0,86.0 0 0,1 29.58750427330803,-30.4925239686951" fill="none" id="id59" stroke="none" /><text fill="#e1ed5e" style="font-size:6.75px; font-family:Arial;" text-anchor="middle"><textPath startOffset="21.46611528233685" xlink:href="#id59">November</textPath></text><path d="M 82.34701348167596 88.62581576622439 l -11.95410800683652 -7.702278970137645 a35.220611786169314,35.220611786169314 0 0,0 0.3327565658632611,-0.5068110789255029 l 11.81975480561534 7.906908113040817" fill="#ffb110" stroke="none" /><path d="M 83.84228863543731 86.58626213691792 l -29.35621127567579 -24.370810557292497 a59.15394537504023,59.15394537504023 0 0,0 0.6571422679218715,-0.7778491718783577 l 28.932358394266796 24.87251867879997" fill="#3bff2e" stroke="none" /><path d="M 85.57189188830299 84.74124197986013 l -12.658692558941775 -13.38747430452397 a39.424629319367526,39.424629319367526 0 0,0 0.49711100133708036,-0.46201049862873483 l 12.42637367380984 13.603389389227349" fill="#ffe715" stroke="none" /><line stroke="#e1ed5e" stroke-width="0.3" x1="56.76296977257108" x2="54.21961505331056" y1="26.818313649435495" y2="22.513508569990535" /><path d="M 56.25429882871898 25.957352633546506 a86.0,86.0 0 0,1 42.26535254187918,-11.944610805530505" fill="none" id="id60" stroke="none" /><text fill="#e1ed5e" style="font-size:6.75px; font-family:Arial;" text-anchor="middle"><textPath startOffset="22.20632615414155" xlink:href="#id60">December</textPath></text><path d="M 96.40284397218896 79.31037775812273 l -1.5278686623429363 -8.787782685732942 a29.91961362285594,29.91961362285594 0 0,0 0.5081643972800876,-0.08385147967178655 l 1.3763750589239632 8.812780428344357" fill="#ff6a09" stroke="none" /></svg>