<?xml version="1.0" encoding="utf-8" ?>
<svg baseProfile="full" height="200mm" version="1.1" viewBox="0,0,200,200" width="200mm" xmlns="http://www.w3.org/2000/svg" xmlns:ev="http://www.w3.org/2001/xml-events" xmlns:xlink="http://www.w3.org/1999/xlink"><defs /><rect fill="#1a1a1a" height="200" width="200" x="0" y="0" /><text alignment-baseline="middle" fill="#e1ed5e" style="dominant-baseline: central; font-size:9.0px; font-family:Arial;" text-anchor="middle" x="100.0" y="100.0">2017</text><line stroke="#e1ed5e" stroke-width="0.3" x1="100.0" x2="100.0" y1="15.0" y2="10.0" /><path d="M 100.0 14.0 a86.0,86.0 0 0,1 42.46469731375804,11.215312516191453" fill="none" id="id37" stroke="none" /><text fill="#e1ed5e" style="font-size:6.75px; font-family:Arial;" text-anchor="middle"><textPath startOffset="22.20632615414155" xlink:href="#id37">January</textPath></text><path d="M 100.0 79.0 l 0.0 -58.004660480277124 a79.00466048027712,79.00466048027712 0 0,0 1.3599353588178074,0.011705392980260455 l -0.9984548795452791 57.99606646390542" fill="#47fffd" stroke="none" /><path d="M 101.08401301168833 79.027996857942 l 0.41537348665781826 -8.036078878562357 a29.046806750251573,29.046806750251573 0 0,0 0.4991042969291671,0.030107334185480523 l -0.5536398324265972 8.02773827499657" fill="#ff5908" stroke="none" /><path d="M 101.44485096284872 79.0497635885617 l 0.6541205737597433 -9.48470189259732 a30.50723112774981,30.50723112774981 0 0,0 0.5235764473253143,0.040639609150224514 l -0.8172872104473988 9.47203702125863" fill="#ff6d0a" stroke="none" /><path d="M 102.52436894288641 79.15227682838746 l 2.7294811110629245 -22.54166007149529 a43.70630982600419,43.70630982600419 0 0,0 0.7460984925664431,0.09686499750523826 l -3.1170943321372135 22.491336750825912" fill="#e6ff1a" stroke="none" /><path d="M 105.36241919743992 79.69619591428918 l 3.3559816258325554 -12.706800967496136 a34.142503699846785,34.142503699846785 0 0,0 0.5669315765392303,0.15496381583254976 l -3.5742110915954965 12.647150610837294" fill="#ff9f0e" stroke="none" /><path d="M 106.0581310904928 79.89281104454417 l 2.1406938962773574 -7.10505204084953 a28.42053467485593,28.42053467485593 0 0,0 0.4671992516734523,0.14516108170436637 l -2.262678520661528 7.067150824262643" fill="#ff5007" stroke="none" /><path d="M 107.4271985657038 80.35727306442388 l 2.7780251049329325 -7.347048563956347 a28.854714895193247,28.854714895193247 0 0,0 0.46307260422928537,0.17966497617641108 l -2.9040808741618847 7.29814088388939" fill="#ff5708" stroke="none" /><path d="M 108.43124777332544 80.76684994638697 l 2.2782853133843064 -5.1971670712721 a26.67460391004497,26.67460391004497 0 0,0 0.418941016778513,0.18796662239099513 l -2.3674084486296 5.157180118364574" fill="#ff3805" stroke="none" /><line stroke="#e1ed5e" stroke-width="0.3" x1="143.23703022742887" x2="145.7803849466894" y1="26.818313649435467" y2="22.513508569990506" /><path d="M 143.74570117128098 25.957352633546478 a86.0,86.0 0 0,1 28.547481713284135,27.462654790039114" fill="none" id="id38" stroke="none" /><text fill="#e1ed5e" style="font-size:6.75px; font-family:Arial;" text-anchor="middle"><textPath startOffset="19.985693538727396" xlink:href="#id38">February</textPath></text><path d="M 112.19680574252982 82.90503203632743 l 1.2185568655155428 -1.707921813107498 a23.098065240688065,23.098065240688065 0 0,0 0.321673207752618,0.23370926555218188 l -1.2477753896219494 1.6866933127386436" fill="#ff0400" stroke="none" /><path d="M 113.89432698308785 84.25364557470407 l 20.62643656240664 -23.375812375646056 a52.17496574953039,52.17496574953039 0 0,0 0.6683091671037725,0.6000145688542641 l -21.0257567171064 23.017298798022495" fill="#85ff25" stroke="none" /><line stroke="#e1ed5e" stroke-width="0.3" x1="172.23445277983987" x2="176.4835382374775" y1="55.19839476539836" y2="52.563006222186495" /><path d="M 173.08426987136738 54.67131705675599 a86.0,86.0 0 0,1 12.851231095245387,41.99856678651699" fill="none" id="id39" stroke="none" /><text fill="#e1ed5e" style="font-size:6.75px; font-family:Arial;" text-anchor="middle"><textPath startOffset="22.20632615414155" xlink:href="#id39">March</textPath></text><path d="M 120.6074358757038 95.95851677861258 l 16.10134180872838 -3.1577583525819053 a37.40806648739593,37.40806648739593 0 0,0 0.11848430773052347,0.6329479096528464 l -16.153311840368765 2.8801323654664954" fill="#ffca12" stroke="none" /><path d="M 120.83666639777658 97.38593545837742 l 28.70766517769891 -3.6015209046013044 a49.9326976409243,49.9326976409243 0 0,0 0.09965055865284125,0.8537451309669393 l -28.765406089355338 3.106832035309512" fill="#9eff22" stroke="none" /><path d="M 120.91429891909075 98.10471618934814 l 44.05888378682056 -3.9926793376912877 a65.23942505089987,65.23942505089987 0 0,0 0.09172512856891446,1.119278899771717 l -44.12108339920897 3.2336865207118017" fill="#35ff69" stroke="none" /><line stroke="#e1ed5e" stroke-width="0.3" x1="184.98032266829074" x2="189.97916517819016" y1="98.17113171792111" y2="98.06355123074" /><path d="M 185.9800911702706 98.14961562048488 a86.0,86.0 0 0,1 -9.607161424134198,41.387399972396054" fill="none" id="id40" stroke="none" /><text fill="#e1ed5e" style="font-size:6.75px; font-family:Arial;" text-anchor="middle"><textPath startOffset="21.466115282336823" xlink:href="#id40">April</textPath></text><path d="M 120.99513854157772 99.54816195383933 l 62.98541562473312 -1.3555141384820022 a84.0,84.0 0 0,0 0.018667971529137795,1.4458549677581494 l -62.99941660337998 0.27112291266339017" fill="#4dd2ff" stroke="none" /><path d="M 120.9904718944345 100.63252640178507 l 14.20991704324403 0.4282013163987345 a35.21636728363624,35.21636728363624 0 0,0 -0.02347400146188449,0.6057596733505223 l -14.200440908930943 -0.6727382367632629" fill="#ffad10" stroke="none" /><path d="M 120.49622156327973 104.57218783832717 l 13.62611531175271 3.039641161161907 a34.96103280125834,34.96103280125834 0 0,0 -0.13608071598372554,0.5862321628946658 l -13.57177402983843 -3.2737419814051374" fill="#ffaa0f" stroke="none" /><path d="M 120.23288151984713 105.62410040840565 l 14.063339355675422 3.9091630391951764 a35.59654306676409,35.59654306676409 0 0,0 -0.1691808142601964,0.5889406088774469 l -13.993965904529126 -4.150661123577206" fill="#ffb210" stroke="none" /><path d="M 119.79798401119884 107.00284435728193 l 19.023194434204942 6.728789644728188 a41.17816980215419,41.17816980215419 0 0,0 -0.24211928317967832,0.6662082812160732 l -18.904550890020037 -7.055245722950391" fill="#fff917" stroke="none" /><line stroke="#e1ed5e" stroke-width="0.3" x1="174.80103733775053" x2="179.2010983576182" y1="140.37084112569926" y2="142.7455964860345" /><path d="M 175.68104954172406 140.8457921977663 a86.0,86.0 0 0,1 -30.038265399797805,32.042727171017184" fill="none" id="id41" stroke="none" /><text fill="#e1ed5e" style="font-size:6.75px; font-family:Arial;" text-anchor="middle"><textPath startOffset="22.206326154141568" xlink:href="#id41">May</textPath></text><path d="M 118.30583269289576 110.29060199501023 l 8.005373316084723 4.500211052910682 a30.183566924165184,30.183566924165184 0 0,0 -0.2584978219196271,0.45071274136312117 l -7.926723498012716 -4.637343640132119" fill="#ff6909" stroke="none" /><path d="M 111.1453310114006 117.79835938074945 l 21.409206691894244 34.1890926675308 a61.339164451005395,61.339164451005395 0 0,0 -0.8997018337943985,0.552670349963856 l -20.817525658167536 -34.55255148432303" fill="#30ff3a" stroke="none" /><line stroke="#e1ed5e" stroke-width="0.3" x1="143.8653032363475" x2="146.44561519142675" y1="172.8068346515853" y2="177.08958963109032" /><path d="M 144.38136562736335 173.6633856474863 a86.0,86.0 0 0,1 -40.68145358897372,12.25698825130547" fill="none" id="id42" stroke="none" /><text fill="#e1ed5e" style="font-size:6.75px; font-family:Arial;" text-anchor="middle"><textPath startOffset="21.466115282336833" xlink:href="#id42">June</textPath></text><path d="M 103.41894727170886 120.7198165907248 l 1.8875498252599996 11.439101886380953 a32.593786970176886,32.593786970176886 0 0,0 -0.5543491321395807,0.08657793367449122 l -1.6903648295119018 -11.469898127402551" fill="#ff8a0c" stroke="none" /><path d="M 103.06178313531737 120.77559828337769 l 0.6827665302260993 4.632883037891161 a25.68292380650984,25.68292380650984 0 0,0 -0.43792003380182165,0.060691726348496775 l -0.6029179052374466 -4.64394932973226" fill="#ff2904" stroke="none" /><line stroke="#e1ed5e" stroke-width="0.3" x1="102.19456741930631" x2="102.32365962044197" y1="184.97166512339345" y2="189.96999836594603" /><path d="M 102.22038585953345 185.97133177190398 a86.0,86.0 0 0,1 -42.740103519485714,-10.115201625700543" fill="none" id="id43" stroke="none" /><text fill="#e1ed5e" style="font-size:6.75px; font-family:Arial;" text-anchor="middle"><textPath startOffset="22.20632615414155" xlink:href="#id43">July</textPath></text><path d="M 97.2962882734958 120.8252237178851 l -1.5626559068610875 12.036290161944628 a33.137305069321314,33.137305069321314 0 0,0 -0.5650248338306508,-0.07830729345091315 l 1.7696093318785686 -12.00760830300111" fill="#ff910d" stroke="none" /><line stroke="#e1ed5e" stroke-width="0.3" x1="58.666819895761336" x2="56.23545636021788" y1="174.27360380694188" y2="178.64263932499728" /><path d="M 58.180547188652646 175.14741091055294 a86.0,86.0 0 0,1 -31.652253787137756,-30.449443065178592" fill="none" id="id44" stroke="none" /><text fill="#e1ed5e" style="font-size:6.75px; font-family:Arial;" text-anchor="middle"><textPath startOffset="22.20632615414155" xlink:href="#id44">August</textPath></text><path d="M 86.51685102203217 116.09983520530335 l -15.52159912193983 18.533889108127042 a45.174885413886734,45.174885413886734 0 0,0 -0.5918652651921812,-0.5044004192394895 l 15.838329863709069 -18.2639642986646" fill="#d5ff1c" stroke="none" /><path d="M 84.67929136418377 114.36230785411684 l -29.52312025494714 27.676274772591324 a61.46715723739493,61.46715723739493 0 0,0 -0.716980997885289,-0.778141267737622 l 29.99514766082816 -27.16398225005236" fill="#31ff3c" stroke="none" /><line stroke="#e1ed5e" stroke-width="0.3" x1="26.63291911575756" x2="22.317208475507996" y1="142.92168965132927" y2="145.44649492493687" /><path d="M 25.769776987707644 143.4266507060508 a86.0,86.0 0 0,1 -11.730757126820373,-40.83630448921669" fill="none" id="id45" stroke="none" /><text fill="#e1ed5e" style="font-size:6.75px; font-family:Arial;" text-anchor="middle"><textPath startOffset="21.46611528233685" xlink:href="#id45">September</textPath></text><line stroke="#e1ed5e" stroke-width="0.3" x1="15.007084014347285" x2="10.007500721073583" y1="101.09737516637583" y2="101.16192664675087" /><path d="M 14.007167355692545 101.11028546245083 a86.0,86.0 0 0,1 10.666146001902526,-42.60595125391555" fill="none" id="id46" stroke="none" /><text fill="#e1ed5e" style="font-size:6.75px; font-family:Arial;" text-anchor="middle"><textPath startOffset="22.20632615414155" xlink:href="#id46">October</textPath></text><path d="M 79.03285615573316 98.82574320788736 l -27.624499523673936 -1.5470994254306312 a48.667787959387525,48.667787959387525 0 0,0 0.05404305011121207,-0.8360220652002598 l 27.59377588255831 2.022380554883903" fill="#acff21" stroke="none" /><path d="M 80.14247586403 93.16781622104843 l -29.97040358782843 -10.31162313283982 a52.69471032918642,52.69471032918642 0 0,0 0.3024849994191871,-0.8551658264261385 l 29.78846550759943 10.82598658569257" fill="#7fff26" stroke="none" /><line stroke="#e1ed5e" stroke-width="0.3" x1="26.266209847984243" x2="21.928928074336255" y1="57.71137044288968" y2="55.22380399835378" /><path d="M 25.398753493254645 57.2138571539825 a86.0,86.0 0 0,1 29.58750427330803,-30.4925239686951" fill="none" id="id47" stroke="none" /><text fill="#e1ed5e" style="font-size:6.75px; font-family:Arial;" text-anchor="middle"><textPath startOffset="21.46611528233685" xlink:href="#id47">November</textPath></text><path d="M 85.05521093208273 85.24692304244772 l -9.936417042655178 -9.808952448002351 a34.962375577699504,34.962375577699504 0 0,0 0.4264813792433935,-0.42464993266558254 l 9.76609986324447 9.978538231318046" fill="#ffaa0f" stroke="none" /><path d="M 85.83668400450813 84.49514656593477 l -18.975545543760408 -20.7728933380489 a49.135110206240206,49.135110206240206 0 0,0 0.6293716556542696,-0.5650560866208392 l 18.615162900510168 21.096448433439022" fill="#a7ff21" stroke="none" /><line stroke="#e1ed5e" stroke-width="0.3" x1="56.76296977257108" x2="54.21961505331056" y1="26.818313649435495" y2="22.513508569990535" /><path d="M 56.25429882871898 25.957352633546506 a86.0,86.0 0 0,1 42.26535254187918,-11.944610805530505" fill="none" id="id48" stroke="none" /><text fill="#e1ed5e" style="font-size:6.75px; font-family:Arial;" text-anchor="middle"><textPath startOffset="22.20632615414155" xlink:href="#id48">December</textPath></text><path d="M 89.3179101791058 81.91981866633112 l -8.288626257223378 -14.029077479247688 a37.29467214001765,37.29467214001765 0 0,0 0.5555188241443821,-0.32179235920344906 l 8.045910700613673 14.169673995841183" fill="#ffc812" stroke="none" /><path d="M 89.63071344664047 81.73862282372117 l -0.9171727184534678 -1.6152352296644115 a22.85746888066109,22.85746888066109 0 0,0 0.3438154192469616,-0.19133290856987917 l 0.8892332101344607 1.630783535794475" fill="#ff0000" stroke="none" /><path d="M 89.94658935756843 81.56283822128135 l -2.236659768523386 -4.10185751511719 a25.672031891420954,25.672031891420954 0 0,0 0.38979307306013905,-0.20821396023973898 l 2.165721648934943 4.139750201858678" fill="#ff2904" stroke="none" /><path d="M 92.23578459929587 80.48803036053334 l -11.98878675830955 -30.12858752230924 a53.42626703809223,53.42626703809223 0 0,0 0.8574072106218998,-0.3326606771010617 l 11.468396382687972 30.330490903300852" fill="#77ff26" stroke="none" /><path d="M 99.27714615592234 79.0124445844662 l -2.1019555083019204 -61.02880696133291 a82.06499403162599,82.06499403162599 0 0,0 1.412195382186707,-0.03647284033967527 l 1.051133490920334 61.05594659381495" fill="#4be4ff" stroke="none" /></svg>