<?xml version="1.0" encoding="utf-8" ?>
<svg baseProfile="full" height="200mm" version="1.1" viewBox="0,0,200,200" width="200mm" xmlns="http://www.w3.org/2000/svg" xmlns:ev="http://www.w3.org/2001/xml-events" xmlns:xlink="http://www.w3.org/1999/xlink"><defs /><rect fill="#1a1a1a" height="200" width="200" x="0" y="0" /><text alignment-baseline="middle" fill="#e1ed5e" style="dominant-baseline: central; font-size:9.0px; font-family:Arial;" text-anchor="middle" x="100.0" y="100.0">2017</text><line stroke="#e1ed5e" stroke-width="0.3" x1="100.0" x2="100.0" y1="15.0" y2="10.0" /><path d="M 100.0 14.0 a86.0,86.0 0 0,1 42.46469731375804,11.215312516191453" fill="none" id="id61" stroke="none" /><text fill="#e1ed5e" style="font-size:6.75px; font-family:Arial;" text-anchor="middle"><textPath startOffset="22.20632615414155" xlink:href="#id61">January</textPath></text><path d="M 100.0 79.0 l 0.0 -33.34449410953413 a54.34449410953413,54.34449410953413 0 0,0 0.9354511322160711,0.008051723227446178 l -0.5739706529435428 33.339553762915244" fill="#6aff28" stroke="none" /><path d="M 101.08401301168833 79.027996857942 l 0.24440319121005766 -4.728379123423316 a25.734691336792622,25.734691336792622 0 0,0 0.4421930140815828,0.02667429018614225 l -0.32575825413125237 4.72347156385687" fill="#ff3505" stroke="none" /><path d="M 101.44485096284872 79.0497635885617 l 0.394396454961783 -5.718720604228629 a26.732304415583272,26.732304415583272 0 0,0 0.4587897510632675,0.035610914624956864 l -0.4927763953873917 5.711084427415208" fill="#ff4306" stroke="none" /><path d="M 102.52436894288641 79.15227682838746 l 1.6279814516633233 -13.444828153364005 a34.54303244035283,34.54303244035283 0 0,0 0.5896746839305792,0.07655669775093542 l -1.8591708641017486 13.414813132448932" fill="#ffac10" stroke="none" /><path d="M 105.36241919743992 79.69619591428918 l 1.9394519395395111 -7.343374466670136 a28.595170991065736,28.595170991065736 0 0,0 0.47481888012350165,0.12978593632486493 l -2.065568708886724 7.30890198951898" fill="#ff5d08" stroke="none" /><path d="M 106.0581310904928 79.89281104454417 l 1.285362819424986 -4.266172636484384 a25.455601703681364,25.455601703681364 0 0,0 0.4184593359314651,0.13001735262957823 l -1.3586075280671694 4.243415148972286" fill="#ff3104" stroke="none" /><path d="M 107.4271985657038 80.35727306442388 l 1.5969723980898225 -4.223516102582887 a25.515352600743125,25.515352600743125 0 0,0 0.4094811132104744,0.15887231025487977 l -1.669436676299964 4.19540108843746" fill="#ff3204" stroke="none" /><path d="M 108.43124777332544 80.76684994638697 l 1.443607313472265 -3.2931206418043866 a24.595642590273503,24.595642590273503 0 0,0 0.38628965400344006,0.1733169076782 l -1.500079085942485 3.267783403609655" fill="#ff2503" stroke="none" /><path d="M 109.08828744355905 81.06846463323043 l 2.522371803360441 -5.254276044856286 a26.82835965516357,26.82835965516357 0 0,0 0.41459874128946106,0.20344180176817414 l -2.6124418116603336 5.210079082953279" fill="#ff4406" stroke="none" /><path d="M 110.05341064243156 81.56283822128135 l 3.6585146930768615 -6.709427244659227 a28.642064100152183,28.642064100152183 0 0,0 0.4308256232615587,0.23975399290005212 l -3.773464405410455 6.6454578541989955" fill="#ff5d08" stroke="none" /><line stroke="#e1ed5e" stroke-width="0.3" x1="143.23703022742887" x2="145.7803849466894" y1="26.818313649435467" y2="22.513508569990506" /><path d="M 143.74570117128098 25.957352633546478 a86.0,86.0 0 0,1 28.547481713284135,27.462654790039114" fill="none" id="id62" stroke="none" /><text fill="#e1ed5e" style="font-size:6.75px; font-family:Arial;" text-anchor="middle"><textPath startOffset="19.985693538727396" xlink:href="#id62">February</textPath></text><path d="M 112.19680574252982 82.90503203632743 l 0.7004982338984856 -0.9818140191695811 a22.206091432658745,22.206091432658745 0 0,0 0.3092512116646217,0.22468415711153633 l -0.7172947619168961 0.9696106272413723" fill="#ff0200" stroke="none" /><path d="M 113.06298171725822 83.55741782278167 l 2.8398120259059425 -3.574516417038349 a25.565271071706114,25.565271071706114 0 0,0 0.3422052768111485,0.27670620173279 l -2.9009207012815823 3.525104118041432" fill="#ff3204" stroke="none" /><path d="M 113.89432698308785 84.25364557470407 l 11.85729020325371 -13.437793301631975 a38.92120586851124,38.92120586851124 0 0,0 0.4985417489592378,0.4475957046257001 l -12.086842939808937 13.231698588236977" fill="#ffe415" stroke="none" /><path d="M 114.68862486808459 84.99185889309781 l 5.173371062966269 -5.285905495487475 a28.396253447682916,28.396253447682916 0 0,0 0.3463858829843652,0.3448983919217592 l -5.263592746117954 5.196071252915599" fill="#ff5a08" stroke="none" /><path d="M 115.68641384162765 86.03803664274999 l 8.00103743487774 -7.121461451520481 a31.71129372390689,31.71129372390689 0 0,0 0.3594069487029789,0.4108642721406742 l -8.122436247158568 6.982681623176859" fill="#ff870c" stroke="none" /><path d="M 116.82858285166822 87.43820079747576 l 12.976033893871582 -9.68604033130486 a37.19249310373694,37.19249310373694 0 0,0 0.37854411000465243,0.5163337406299146 l -13.14084061638986 9.461244147003448" fill="#ffce13" stroke="none" /><line stroke="#e1ed5e" stroke-width="0.3" x1="172.23445277983987" x2="176.4835382374775" y1="55.19839476539836" y2="52.563006222186495" /><path d="M 173.08426987136738 54.67131705675599 a86.0,86.0 0 0,1 12.851231095245387,41.99856678651699" fill="none" id="id63" stroke="none" /><text fill="#e1ed5e" style="font-size:6.75px; font-family:Arial;" text-anchor="middle"><textPath startOffset="22.20632615414155" xlink:href="#id63">March</textPath></text><path d="M 117.84615892207809 88.93136811851018 l 3.9934123214024506 -2.476813701458532 a25.69914333474322,25.69914333474322 0 0,0 0.2299268109607685,0.3779392220351971 l -4.035454930649443 2.4077067062162536" fill="#ff3405" stroke="none" /><path d="M 118.56541770881063 90.18545643968196 l 11.278890002067977 -5.96254600750502 a33.75795103338945,33.75795103338945 0 0,0 0.26715490559962046,0.5160582439198855 l -11.379854340827713 5.76751504132479" fill="#ffa20f" stroke="none" /><path d="M 119.85752413597 93.16781622104841 l 4.291156891680855 -1.4764163098848535 a25.53804281481721,25.53804281481721 0 0,0 0.13944100480568306,0.41691085598289895 l -4.315935190258308 1.4023323509796406" fill="#ff3204" stroke="none" /><path d="M 119.97218684219823 93.5106431181261 l 2.810393131389868 -0.9131520825462424 a23.95502221291514,23.95502221291514 0 0,0 0.12404653818406343,0.39326142481685367 l -2.8256951533421373 0.8646404913029696" fill="#ff1b02" stroke="none" /><path d="M 120.37134235888165 94.90015583598534 l 38.173604550204786 -9.556534417570528 a60.35163826868744,60.35163826868744 0 0,0 0.24361139884326674,1.0099265229126722 l -38.332448749308874 8.89802266299845" fill="#30ff32" stroke="none" /><path d="M 120.91429891909075 98.10471618934814 l 12.786216009640649 -1.1587052617120739 a33.83861042826326,33.83861042826326 0 0,0 0.04757630665359527,0.580551447539586 l -12.804266800113739 0.9384398969647189" fill="#ffa30f" stroke="none" /><line stroke="#e1ed5e" stroke-width="0.3" x1="184.98032266829074" x2="189.97916517819016" y1="98.17113171792111" y2="98.06355123074" /><path d="M 185.9800911702706 98.14961562048488 a86.0,86.0 0 0,1 -9.607161424134198,41.387399972396054" fill="none" id="id64" stroke="none" /><text fill="#e1ed5e" style="font-size:6.75px; font-family:Arial;" text-anchor="middle"><textPath startOffset="21.466115282336823" xlink:href="#id64">April</textPath></text><line stroke="#e1ed5e" stroke-width="0.3" x1="174.80103733775053" x2="179.2010983576182" y1="140.37084112569926" y2="142.7455964860345" /><path d="M 175.68104954172406 140.8457921977663 a86.0,86.0 0 0,1 -30.038265399797805,32.042727171017184" fill="none" id="id65" stroke="none" /><text fill="#e1ed5e" style="font-size:6.75px; font-family:Arial;" text-anchor="middle"><textPath startOffset="22.206326154141568" xlink:href="#id65">May</textPath></text><path d="M 118.30583269289576 110.29060199501023 l 4.601959931712257 2.58698628184305 a26.279254988682514,26.279254988682514 0 0,0 -0.2250605501103415,0.3924120395276035 l -4.556747385449536 -2.6658181672289696" fill="#ff3c05" stroke="none" /><line stroke="#e1ed5e" stroke-width="0.3" x1="143.8653032363475" x2="146.44561519142675" y1="172.8068346515853" y2="177.08958963109032" /><path d="M 144.38136562736335 173.6633856474863 a86.0,86.0 0 0,1 -40.68145358897372,12.25698825130547" fill="none" id="id66" stroke="none" /><text fill="#e1ed5e" style="font-size:6.75px; font-family:Arial;" text-anchor="middle"><textPath startOffset="21.466115282336833" xlink:href="#id66">June</textPath></text><path d="M 109.57404056367764 118.69057910512821 l 2.3296085306357286 4.547895137505359 a26.10983620948418,26.10983620948418 0 0,0 -0.4017757877208561,0.20145872069177168 l -2.250978835232112 -4.5873216991064325" fill="#ff3a05" stroke="none" /><path d="M 103.06178313531737 120.77559828337769 l 0.39249440229121507 2.6632539504243713 a23.692020330584626,23.692020330584626 0 0,0 -0.403973099876318,0.055986990631588365 l -0.34659271122806606 -2.669615506548562" fill="#ff1802" stroke="none" /><line stroke="#e1ed5e" stroke-width="0.3" x1="102.19456741930631" x2="102.32365962044197" y1="184.97166512339345" y2="189.96999836594603" /><path d="M 102.22038585953345 185.97133177190398 a86.0,86.0 0 0,1 -42.740103519485714,-10.115201625700543" fill="none" id="id67" stroke="none" /><text fill="#e1ed5e" style="font-size:6.75px; font-family:Arial;" text-anchor="middle"><textPath startOffset="22.20632615414155" xlink:href="#id67">July</textPath></text><path d="M 97.2962882734958 120.8252237178851 l -1.8282399937786165 14.081940211004769 a35.200123294576166,35.200123294576166 0 0,0 -0.6001979875469597,-0.08318197205748676 l 2.0703665725124067 -14.048383673454676" fill="#ffb510" stroke="none" /><line stroke="#e1ed5e" stroke-width="0.3" x1="58.666819895761336" x2="56.23545636021788" y1="174.27360380694188" y2="178.64263932499728" /><path d="M 58.180547188652646 175.14741091055294 a86.0,86.0 0 0,1 -31.652253787137756,-30.449443065178592" fill="none" id="id68" stroke="none" /><text fill="#e1ed5e" style="font-size:6.75px; font-family:Arial;" text-anchor="middle"><textPath startOffset="22.20632615414155" xlink:href="#id68">August</textPath></text><path d="M 84.67929136418377 114.36230785411684 l -15.656376216547871 14.676977445825145 a42.460097464348706,42.460097464348706 0 0,0 -0.4952739709877884,-0.537522077709992 l 15.906696595531391 -14.40530411331381" fill="#efff19" stroke="none" /><line stroke="#e1ed5e" stroke-width="0.3" x1="26.63291911575756" x2="22.317208475507996" y1="142.92168965132927" y2="145.44649492493687" /><path d="M 25.769776987707644 143.4266507060508 a86.0,86.0 0 0,1 -11.730757126820373,-40.83630448921669" fill="none" id="id69" stroke="none" /><text fill="#e1ed5e" style="font-size:6.75px; font-family:Arial;" text-anchor="middle"><textPath startOffset="21.46611528233685" xlink:href="#id69">September</textPath></text><line stroke="#e1ed5e" stroke-width="0.3" x1="15.007084014347285" x2="10.007500721073583" y1="101.09737516637583" y2="101.16192664675087" /><path d="M 14.007167355692545 101.11028546245083 a86.0,86.0 0 0,1 10.666146001902526,-42.60595125391555" fill="none" id="id70" stroke="none" /><text fill="#e1ed5e" style="font-size:6.75px; font-family:Arial;" text-anchor="middle"><textPath startOffset="22.20632615414155" xlink:href="#id70">October</textPath></text><path d="M 79.03285615573316 98.82574320788736 l -15.880188833433088 -0.8893638416464166 a36.90507357506783,36.90507357506783 0 0,0 0.04098116689091573,-0.6339605131086387 l 15.86252707553776 1.162583419008067" fill="#ffcb12" stroke="none" /><path d="M 80.14247586403 93.16781622104843 l -17.22875261436116 -5.927728116426528 a39.219985655019876,39.219985655019876 0 0,0 0.2251356400664814,-0.6364887715592876 l 17.12416389348487 6.223414514412426" fill="#ffe815" stroke="none" /><line stroke="#e1ed5e" stroke-width="0.3" x1="26.266209847984243" x2="21.928928074336255" y1="57.71137044288968" y2="55.22380399835378" /><path d="M 25.398753493254645 57.2138571539825 a86.0,86.0 0 0,1 29.58750427330803,-30.4925239686951" fill="none" id="id71" stroke="none" /><text fill="#e1ed5e" style="font-size:6.75px; font-family:Arial;" text-anchor="middle"><textPath startOffset="21.46611528233685" xlink:href="#id71">November</textPath></text><path d="M 82.54541684631803 88.32363383020207 l -3.8410391668290256 -2.569490167112384 a25.62124026642219,25.62124026642219 0 0,0 0.24837417511745155,-0.364458454221396 l 3.7962405260428334 2.6352266446041934" fill="#ff3304" stroke="none" /><path d="M 83.84228863543731 86.58626213691792 l -5.8403455358179945 -4.848512408700558 a28.59063294825092,28.59063294825092 0 0,0 0.31761386764344146,-0.37595463871897217 l 5.756021054687429 4.948325997048646" fill="#ff5d08" stroke="none" /><path d="M 85.05521093208273 85.24692304244772 l -5.7120375639703616 -5.638763409956126 a29.026395574955703,29.026395574955703 0 0,0 0.354072542689789,-0.3525520426675923 l 5.614129221113259 5.73625130327383" fill="#ff6309" stroke="none" /><path d="M 85.83668400450813 84.49514656593477 l -10.90826084266553 -11.941482181144272 a37.17371791809837,37.17371791809837 0 0,0 0.4761581747702487,-0.4274995107119948 l 10.70109168029931 12.127480700625547" fill="#ffce13" stroke="none" /><line stroke="#e1ed5e" stroke-width="0.3" x1="56.76296977257108" x2="54.21961505331056" y1="26.818313649435495" y2="22.513508569990535" /><path d="M 56.25429882871898 25.957352633546506 a86.0,86.0 0 0,1 42.26535254187918,-11.944610805530505" fill="none" id="id72" stroke="none" /><text fill="#e1ed5e" style="font-size:6.75px; font-family:Arial;" text-anchor="middle"><textPath startOffset="22.20632615414155" xlink:href="#id72">December</textPath></text><path d="M 89.3179101791058 81.91981866633112 l -4.764790399972951 -8.064739755317289 a30.36713696263002,30.36713696263002 0 0,0 0.45233046036113106,-0.2620189985521709 l 4.625263207146498 8.145562911259507" fill="#ff750a" stroke="none" /><path d="M 89.63071344664047 81.73862282372117 l -0.5272448809229023 -0.9285323136986614 a22.067782478804553,22.067782478804553 0 0,0 0.33193718536439715,-0.18472268427452299 l 0.5111836064864597 0.9374703955333691" fill="#ff0000" stroke="none" /><path d="M 89.94658935756843 81.56283822128135 l -1.2857637275873555 -2.3579892135991356 a23.685759016484763,23.685759016484763 0 0,0 0.3596343613877643,-0.19210422092668358 l 1.2449843196712869 2.3797721610275686" fill="#ff1802" stroke="none" /><path d="M 92.23578459929587 80.48803036053334 l -13.98284261280761 -35.13977735725874 a58.81962242344921,58.81962242344921 0 0,0 0.94396204690785,-0.36624260886994797 l 13.375897400900083 35.37526267001924" fill="#3cff2e" stroke="none" /><path d="M 99.27714615592234 79.0124445844662 l -2.1685615322329856 -62.9626662466014 a84.0,84.0 0 0,0 1.4454934592204836,-0.03733283143056143 l 1.084441437817623 62.990665870174325" fill="#4dd2ff" stroke="none" /></svg>