<?xml version="1.0" encoding="utf-8" ?>
<svg baseProfile="full" height="200mm" version="1.1" viewBox="0,0,200,200" width="200mm" xmlns="http://www.w3.org/2000/svg" xmlns:ev="http://www.w3.org/2001/xml-events" xmlns:xlink="http://www.w3.org/1999/xlink"><defs /><rect fill="#1a1a1a" height="200" width="200" x="0" y="0" /><text alignment-baseline="middle" fill="#e1ed5e" style="dominant-baseline: central; font-size:9.0px; font-family:Arial;" text-anchor="middle" x="100.0" y="100.0">2014</text><line stroke="#e1ed5e" stroke-width="0.3" x1="100.0" x2="100.0" y1="15.0" y2="10.0" /><path d="M 100.0 14.0 a86.0,86.0 0 0,1 42.46469731375804,11.215312516191453" fill="none" id="id25" stroke="none" /><text fill="#e1ed5e" style="font-size:6.75px; font-family:Arial;" text-anchor="middle"><textPath startOffset="22.20632615414155" xlink:href="#id25">January</textPath></text><line stroke="#e1ed5e" stroke-width="0.3" x1="143.23703022742887" x2="145.7803849466894" y1="26.81831364943548" y2="22.513508569990506" /><path d="M 143.74570117128098 25.957352633546492 a86.0,86.0 0 0,1 28.547481713284135,27.462654790039103" fill="none" id="id26" stroke="none" /><text fill="#e1ed5e" style="font-size:6.75px; font-family:Arial;" text-anchor="middle"><textPath startOffset="19.985693538727396" xlink:href="#id26">February</textPath></text><line stroke="#e1ed5e" stroke-width="0.3" x1="172.23445277983987" x2="176.4835382374775" y1="55.19839476539836" y2="52.563006222186495" /><path d="M 173.08426987136738 54.67131705675599 a86.0,86.0 0 0,1 12.851231095245387,41.99856678651699" fill="none" id="id27" stroke="none" /><text fill="#e1ed5e" style="font-size:6.75px; font-family:Arial;" text-anchor="middle"><textPath startOffset="22.20632615414155" xlink:href="#id27">March</textPath></text><line stroke="#e1ed5e" stroke-width="0.3" x1="184.98032266829074" x2="189.97916517819016" y1="98.17113171792111" y2="98.06355123074" /><path d="M 185.9800911702706 98.14961562048488 a86.0,86.0 0 0,1 -9.607161424134198,41.387399972396054" fill="none" id="id28" stroke="none" /><text fill="#e1ed5e" style="font-size:6.75px; font-family:Arial;" text-anchor="middle"><textPath startOffset="21.466115282336823" xlink:href="#id28">April</textPath></text><line stroke="#e1ed5e" stroke-width="0.3" x1="174.80103733775053" x2="179.2010983576182" y1="140.37084112569926" y2="142.7455964860345" /><path d="M 175.68104954172406 140.8457921977663 a86.0,86.0 0 0,1 -30.038265399797805,32.042727171017184" fill="none" id="id29" stroke="none" /><text fill="#e1ed5e" style="font-size:6.75px; font-family:Arial;" text-anchor="middle"><textPath startOffset="22.206326154141568" xlink:href="#id29">May</textPath></text><line stroke="#e1ed5e" stroke-width="0.3" x1="143.8653032363475" x2="146.44561519142675" y1="172.8068346515853" y2="177.08958963109032" /><path d="M 144.38136562736335 173.6633856474863 a86.0,86.0 0 0,1 -40.68145358897372,12.25698825130547" fill="none" id="id30" stroke="none" /><text fill="#e1ed5e" style="font-size:6.75px; font-family:Arial;" text-anchor="middle"><textPath startOffset="21.466115282336833" xlink:href="#id30">June</textPath></text><line stroke="#e1ed5e" stroke-width="0.3" x1="102.19456741930631" x2="102.32365962044197" y1="184.97166512339345" y2="189.96999836594603" /><path d="M 102.22038585953345 185.97133177190398 a86.0,86.0 0 0,1 -42.740103519485714,-10.115201625700543" fill="none" id="id31" stroke="none" /><text fill="#e1ed5e" style="font-size:6.75px; font-family:Arial;" text-anchor="middle"><textPath startOffset="22.20632615414155" xlink:href="#id31">July</textPath></text><path d="M 96.58105272829116 120.7198165907248 l -1.4814170292854532 8.977818814336166 a30.099221234682965,30.099221234682965 0 0,0 -0.5104699333629834,-0.08875174115534688 l 1.6357359341204865 -8.950988494659812" fill="#ff760a" stroke="none" /><line stroke="#e1ed5e" stroke-width="0.3" x1="58.666819895761336" x2="56.23545636021788" y1="174.27360380694188" y2="178.64263932499728" /><path d="M 58.180547188652646 175.14741091055294 a86.0,86.0 0 0,1 -31.652253787137756,-30.449443065178592" fill="none" id="id32" stroke="none" /><text fill="#e1ed5e" style="font-size:6.75px; font-family:Arial;" text-anchor="middle"><textPath startOffset="22.20632615414155" xlink:href="#id32">August</textPath></text><path d="M 86.24171649860922 115.8653595955263 l -20.889356892081455 24.08855427195231 a52.88453666399346,52.88453666399346 0 0,0 -0.6826075274174934,-0.6023217775296266 l 21.300906772405536 -23.7254093526504" fill="#77ff27" stroke="none" /><path d="M 85.44109423537348 115.13401014063109 l -43.67671729387956 45.40203042189327 a84.0,84.0 0 0,0 -1.033400190496823,-1.0113995883097213 l 44.45176743675218 -44.64348073066098" fill="#4dd2ff" stroke="none" /><line stroke="#e1ed5e" stroke-width="0.3" x1="26.63291911575756" x2="22.317208475507996" y1="142.92168965132927" y2="145.44649492493687" /><path d="M 25.769776987707644 143.4266507060508 a86.0,86.0 0 0,1 -11.730757126820373,-40.83630448921669" fill="none" id="id33" stroke="none" /><text fill="#e1ed5e" style="font-size:6.75px; font-family:Arial;" text-anchor="middle"><textPath startOffset="21.46611528233685" xlink:href="#id33">September</textPath></text><line stroke="#e1ed5e" stroke-width="0.3" x1="15.007084014347285" x2="10.007500721073583" y1="101.09737516637583" y2="101.16192664675087" /><path d="M 14.007167355692545 101.11028546245083 a86.0,86.0 0 0,1 10.666146001902534,-42.60595125391555" fill="none" id="id34" stroke="none" /><text fill="#e1ed5e" style="font-size:6.75px; font-family:Arial;" text-anchor="middle"><textPath startOffset="22.20632615414155" xlink:href="#id34">October</textPath></text><path d="M 80.14247586403 93.16781622104843 l -10.782025005577538 -3.709665708723495 a32.40235426968388,32.40235426968388 0 0,0 0.18600018960569073,-0.5258475830701953 l 10.716571735162036 3.8947109182203015" fill="#ff940d" stroke="none" /><path d="M 80.52162464483688 92.15188598940014 l -13.350041162746747 -5.3789211461963875 a35.39292853258263,35.39292853258263 0 0,0 0.23254555119443054,-0.5631274975649727 l 13.255473924666116 5.607923214214671" fill="#ffbb11" stroke="none" /><path d="M 80.803312248108 91.48605970444005 l -22.1200282252524 -9.810473665038293 a45.1979553313575,45.1979553313575 0 0,0 0.3215461811666066,-0.7084843876391462 l 21.94787972712244 10.18978006151951" fill="#ccff1d" stroke="none" /><line stroke="#e1ed5e" stroke-width="0.3" x1="26.266209847984243" x2="21.928928074336255" y1="57.711370442889674" y2="55.22380399835377" /><path d="M 25.398753493254645 57.213857153982495 a86.0,86.0 0 0,1 29.58750427330803,-30.492523968695096" fill="none" id="id35" stroke="none" /><text fill="#e1ed5e" style="font-size:6.75px; font-family:Arial;" text-anchor="middle"><textPath startOffset="21.46611528233685" xlink:href="#id35">November</textPath></text><path d="M 82.7489923806493 88.02491185347247 l -26.003216087522862 -18.05058647078662 a52.654240139888884,52.654240139888884 0 0,0 0.5232512110005184,-0.7401017302124544 l 25.688652256718463 18.495514701330862" fill="#7aff26" stroke="none" /><path d="M 82.95767976084542 87.72973835380427 l -0.5771003890836633 -0.41550520532462343 a21.711118439313996,21.711118439313996 0 0,0 0.2209751302202883,-0.30140982928362975 l 0.5698626463497416 0.4253774782797538" fill="#ff0000" stroke="none" /><path d="M 83.17141714833178 87.43820079747576 l -0.7396485002445142 -0.5521151734769357 a21.922990286350526,21.922990286350526 0 0,0 0.22833740180276255,-0.3004652553630502 l 0.7300351582176428 0.5647652047210125" fill="#ff0300" stroke="none" /><path d="M 83.39014120810768 87.1503855733568 l -12.423777096929737 -9.611204250335488 a36.707497715927346,36.707497715927346 0 0,0 0.3909277178939657,-0.4964385023940236 l 12.256495298441799 9.823635146682559" fill="#ffcc13" stroke="none" /><path d="M 83.84228863543731 86.58626213691792 l -9.754658168351474 -8.098079280040439 a33.67802208576742,33.67802208576742 0 0,0 0.37412976720741725,-0.4428516377703642 l 9.613817787656933 8.26478986743992" fill="#ffa50f" stroke="none" /><path d="M 84.31358615837235 86.03803664274999 l -8.381401173573074 -7.460010761497112 a32.22050115609926,32.22050115609926 0 0,0 0.3723099765745505,-0.41111397512165926 l 8.25174755638248 7.603177523888327" fill="#ff920d" stroke="none" /><path d="M 85.31137513191541 84.99185889309783 l -4.4738948903793085 -4.571213875721851 a27.396227934318325,27.396227934318325 0 0,0 0.33986554470015307,-0.32695038472642557 l 4.394546102066728 4.64754734721059" fill="#ff5107" stroke="none" /><path d="M 88.09926311788651 82.69761687909137 l -14.434165238831415 -20.985713697117696 a46.47047909873865,46.47047909873865 0 0,0 0.662968446983863,-0.44763925483088945 l 14.070792097441013 21.231064864247248" fill="#bdff1f" stroke="none" /><line stroke="#e1ed5e" stroke-width="0.3" x1="56.762969772571076" x2="54.21961505331055" y1="26.818313649435495" y2="22.513508569990535" /><path d="M 56.25429882871897 25.957352633546506 a86.0,86.0 0 0,1 42.265352541879196,-11.944610805530505" fill="none" id="id36" stroke="none" /><text fill="#e1ed5e" style="font-size:6.75px; font-family:Arial;" text-anchor="middle"><textPath startOffset="22.20632615414155" xlink:href="#id36">December</textPath></text><path d="M 90.91171255644093 81.06846463323043 l -1.4883267602306574 -3.1002882417176405 a24.439026566770217,24.439026566770217 0 0,0 0.3808086660607114,-0.17879477480224085 l 1.4347398828703375 3.1254479991598894" fill="#ff2703" stroke="none" /><path d="M 91.90106846888425 80.62456947434976 l -3.110200882352984 -7.440670523676391 a29.064547561425623,29.064547561425623 0 0,0 0.4632558519964218,-0.1889736936910635 l 2.9816611607681818 7.493105103551032" fill="#ff6809" stroke="none" /><path d="M 93.25333710446033 80.11325718540243 l -1.0951801285192655 -3.2281982794663397 a24.408912384537466,24.408912384537466 0 0,0 0.3990475672377003,-0.13155970893754565 l 1.0394497390391557 3.2465717126631195" fill="#ff2703" stroke="none" /><path d="M 97.83486435360386 79.11191278185805 l -0.3427711891478764 -3.3068757177891253 a24.32459307299603,24.32459307299603 0 0,0 0.41684808765362685,-0.039584748721878595 l 0.2857979744040132 3.3122860110261843" fill="#ff2603" stroke="none" /></svg>